<svg width="322" height="166" viewBox="0 0 322 166" fill="none" xmlns="http://www.w3.org/2000/svg">
<rect x="11.7012" y="17.5589" width="299.201" height="147.703" rx="20" fill="#D8D8D8"/>
<path d="M3.20105 20.4544C3.20105 10.7894 11.0361 2.95438 20.701 2.95438H301.902C311.567 2.95438 319.402 10.7894 319.402 20.4544V139.017C319.402 148.682 311.567 156.517 301.902 156.517H20.701C11.0361 156.517 3.20105 148.682 3.20105 139.017V20.4544Z" fill="#5772FF" stroke="black" stroke-width="5"/>
<path fill-rule="evenodd" clip-rule="evenodd" d="M86.6819 3.72464H76.5523L72.4487 10.8894L59.969 3.72464H24.701C24.3689 3.72464 24.0386 3.73274 23.7104 3.74875C23.3528 4.25621 23.0159 4.78457 22.7016 5.33331L9.48141 28.4159L4.70105 25.6715V41.0077L14.2519 46.491L7.64176 58.0323L4.70105 56.344V71.6802L12.4122 76.1073L32.2425 41.4834L20.862 34.9497L34.0822 11.8671C35.9542 8.59852 39.8545 7.5129 43.0775 9.36327L65.8386 22.4307L59.2285 33.9721L93.3702 53.5733L113.201 18.9494L86.6819 3.72464ZM4.70105 125.357V110.021L12.9578 114.761L19.5679 103.22L53.7096 122.821L34.8646 155.725H30.8827L5.43593 141.115C4.95707 139.4 4.70105 137.592 4.70105 135.725V129.178L6.3477 126.302L4.70105 125.357ZM86.9596 155.725H57.5956L46.1797 149.171L52.7898 137.629L69.8606 147.43C73.0836 149.28 76.9839 148.195 78.8559 144.926L88.7711 127.614L100.152 134.148L90.2365 151.46C89.3208 153.059 88.2132 154.485 86.9596 155.725ZM95.2099 23.9569L83.8293 17.4232L77.2192 28.9645L88.5998 35.4982L95.2099 23.9569ZM105.671 45.2988L112.281 33.7575L129.352 43.5581C138.709 48.9306 141.943 61.1807 136.507 70.6707L123.287 93.7533L134.668 100.287L114.837 134.911L80.6956 115.31L100.526 80.6858L111.906 87.2196L125.127 64.137C126.999 60.8684 125.964 56.9498 122.741 55.0994L105.671 45.2988ZM116.677 105.295L105.296 98.7609L98.6863 110.302L110.067 116.836L116.677 105.295ZM35.7189 127.829L24.3384 121.295L17.7283 132.836L29.1088 139.37L35.7189 127.829Z" fill="white"/>
<path d="M76.5523 3.72464V1.22464H75.1031L74.3829 2.48216L76.5523 3.72464ZM86.6819 3.72464L87.9266 1.55654L87.3485 1.22464H86.6819V3.72464ZM72.4487 10.8894L71.204 13.0575L73.3744 14.3036L74.6181 12.1319L72.4487 10.8894ZM59.969 3.72464L61.2137 1.55654L60.6356 1.22464H59.969V3.72464ZM23.7104 3.74875L23.5886 1.25172L22.3698 1.31117L21.6669 2.30863L23.7104 3.74875ZM22.7016 5.33331L20.5322 4.09083L20.5322 4.09083L22.7016 5.33331ZM9.48141 28.4159L8.23668 30.584L10.407 31.83L11.6508 29.6584L9.48141 28.4159ZM4.70105 25.6715L5.94578 23.5034L2.20105 21.3535L2.20105 25.6715H4.70105ZM4.70105 41.0077H2.20105V42.4551L3.45632 43.1758L4.70105 41.0077ZM14.2519 46.491L16.4213 47.7334L17.6624 45.5663L15.4966 44.3229L14.2519 46.491ZM7.64176 58.0323L6.39703 60.2004L8.56738 61.4464L9.81115 59.2748L7.64176 58.0323ZM4.70105 56.344L5.94578 54.1759L2.20105 52.026V56.344H4.70105ZM4.70105 71.6802H2.20105V73.1277L3.45632 73.8483L4.70105 71.6802ZM12.4122 76.1073L11.1675 78.2754L13.3378 79.5214L14.5816 77.3498L12.4122 76.1073ZM32.2425 41.4834L34.4119 42.7259L35.6531 40.5587L33.4873 39.3153L32.2425 41.4834ZM20.862 34.9497L18.6926 33.7072L17.4514 35.8743L19.6172 37.1178L20.862 34.9497ZM34.0822 11.8671L31.9128 10.6246L34.0822 11.8671ZM43.0775 9.36327L44.3222 7.19517L44.3222 7.19517L43.0775 9.36327ZM65.8386 22.4307L68.008 23.6732L69.2492 21.5061L67.0834 20.2627L65.8386 22.4307ZM59.2285 33.9721L57.0591 32.7296L55.818 34.8967L57.9838 36.1401L59.2285 33.9721ZM93.3702 53.5733L92.1255 55.7414L94.2958 56.9874L95.5396 54.8157L93.3702 53.5733ZM113.201 18.9494L115.37 20.1918L116.611 18.0247L114.445 16.7813L113.201 18.9494ZM4.70105 125.357H2.20105V126.805L3.45631 127.525L4.70105 125.357ZM4.70105 110.021L5.94578 107.853L2.20105 105.703V110.021H4.70105ZM12.9578 114.761L11.7131 116.929L13.8834 118.175L15.1272 116.004L12.9578 114.761ZM19.5679 103.22L20.8126 101.052L18.6423 99.8058L17.3985 101.977L19.5679 103.22ZM53.7096 122.821L55.879 124.064L57.1202 121.896L54.9543 120.653L53.7096 122.821ZM34.8646 155.725V158.225H36.3138L37.034 156.967L34.8646 155.725ZM30.8827 155.725L29.638 157.893L30.2161 158.225H30.8827V155.725ZM5.43593 141.115L3.02804 141.788L3.30337 142.774L4.1912 143.283L5.43593 141.115ZM4.70105 129.178L2.53166 127.935L2.20105 128.512V129.178H4.70105ZM6.3477 126.302L8.51708 127.545L9.75828 125.378L7.59243 124.134L6.3477 126.302ZM86.9596 155.725V158.225H87.9873L88.7178 157.502L86.9596 155.725ZM57.5956 155.725L56.3509 157.893L56.929 158.225H57.5956V155.725ZM46.1797 149.171L44.0103 147.928L42.7691 150.095L44.9349 151.339L46.1797 149.171ZM52.7898 137.629L54.0345 135.461L51.8642 134.215L50.6204 136.387L52.7898 137.629ZM69.8606 147.43L68.6159 149.598L68.6159 149.598L69.8606 147.43ZM78.8559 144.926L76.6866 143.684L76.6866 143.684L78.8559 144.926ZM88.7711 127.614L90.0158 125.446L87.8455 124.2L86.6017 126.372L88.7711 127.614ZM100.152 134.148L102.321 135.39L103.562 133.223L101.396 131.98L100.152 134.148ZM90.2365 151.46L92.4059 152.702L92.4059 152.702L90.2365 151.46ZM83.8293 17.4232L85.074 15.2551L82.9037 14.0091L81.6599 16.1807L83.8293 17.4232ZM95.2099 23.9569L97.3793 25.1994L98.6204 23.0323L96.4546 21.7888L95.2099 23.9569ZM77.2192 28.9645L75.0498 27.722L73.8086 29.8891L75.9745 31.1326L77.2192 28.9645ZM88.5998 35.4982L87.355 37.6663L89.5254 38.9123L90.7691 36.7407L88.5998 35.4982ZM112.281 33.7575L113.525 31.5894L111.355 30.3434L110.111 32.515L112.281 33.7575ZM105.671 45.2988L103.501 44.0563L102.26 46.2235L104.426 47.4669L105.671 45.2988ZM129.352 43.5581L130.596 41.39L130.596 41.39L129.352 43.5581ZM136.507 70.6707L138.677 71.9132L138.677 71.9132L136.507 70.6707ZM123.287 93.7533L121.118 92.5108L119.876 94.678L122.042 95.9214L123.287 93.7533ZM134.668 100.287L136.837 101.53L138.078 99.3624L135.912 98.119L134.668 100.287ZM114.837 134.911L113.593 137.079L115.763 138.325L117.007 136.153L114.837 134.911ZM80.6956 115.31L78.5262 114.067L77.285 116.234L79.4509 117.478L80.6956 115.31ZM100.526 80.6858L101.771 78.5177L99.6003 77.2717L98.3565 79.4433L100.526 80.6858ZM111.906 87.2196L110.662 89.3877L112.832 90.6337L114.076 88.462L111.906 87.2196ZM125.127 64.137L122.957 62.8945L122.957 62.8945L125.127 64.137ZM122.741 55.0994L121.497 57.2675L121.497 57.2675L122.741 55.0994ZM105.296 98.7609L106.541 96.5928L104.371 95.3468L103.127 97.5184L105.296 98.7609ZM116.677 105.295L118.846 106.537L120.088 104.37L117.922 103.127L116.677 105.295ZM98.6863 110.302L96.5169 109.06L95.2757 111.227L97.4415 112.47L98.6863 110.302ZM110.067 116.836L108.822 119.004L110.992 120.25L112.236 118.078L110.067 116.836ZM24.3384 121.295L25.5831 119.127L23.4128 117.881L22.169 120.052L24.3384 121.295ZM35.7189 127.829L37.8883 129.071L39.1295 126.904L36.9637 125.661L35.7189 127.829ZM17.7283 132.836L15.5589 131.594L14.3177 133.761L16.4835 135.004L17.7283 132.836ZM29.1088 139.37L27.8641 141.538L30.0344 142.784L31.2782 140.612L29.1088 139.37ZM76.5523 6.22464H86.6819V1.22464H76.5523V6.22464ZM74.3829 2.48216L70.2794 9.64696L74.6181 12.1319L78.7217 4.96712L74.3829 2.48216ZM73.6935 8.72135L61.2137 1.55654L58.7242 5.89274L71.204 13.0575L73.6935 8.72135ZM24.701 6.22464H59.969V1.22464H24.701V6.22464ZM23.8322 6.24578C24.1199 6.23175 24.4095 6.22464 24.701 6.22464V1.22464C24.3282 1.22464 23.9574 1.23373 23.5886 1.25172L23.8322 6.24578ZM21.6669 2.30863C21.2644 2.87974 20.8855 3.47404 20.5322 4.09083L24.871 6.5758C25.1463 6.0951 25.4412 5.63268 25.7539 5.18887L21.6669 2.30863ZM20.5322 4.09083L7.31202 27.1734L11.6508 29.6584L24.871 6.5758L20.5322 4.09083ZM10.7261 26.2478L5.94578 23.5034L3.45632 27.8395L8.23668 30.584L10.7261 26.2478ZM7.20105 41.0077V25.6715H2.20105V41.0077H7.20105ZM3.45632 43.1758L13.0071 48.6591L15.4966 44.3229L5.94578 38.8396L3.45632 43.1758ZM12.0825 45.2485L5.47238 56.7898L9.81115 59.2748L16.4213 47.7334L12.0825 45.2485ZM8.8865 55.8642L5.94578 54.1759L3.45632 58.5121L6.39703 60.2004L8.8865 55.8642ZM7.20105 71.6802V56.344H2.20105V71.6802H7.20105ZM3.45632 73.8483L11.1675 78.2754L13.657 73.9392L5.94578 69.5121L3.45632 73.8483ZM14.5816 77.3498L34.4119 42.7259L30.0731 40.2409L10.2428 74.8648L14.5816 77.3498ZM33.4873 39.3153L22.1067 32.7816L19.6172 37.1178L30.9978 43.6515L33.4873 39.3153ZM23.0314 36.1921L36.2516 13.1095L31.9128 10.6246L18.6926 33.7072L23.0314 36.1921ZM36.2516 13.1095C37.4527 11.0124 39.8355 10.3847 41.8328 11.5314L44.3222 7.19517C39.8736 4.64112 34.4557 6.18464 31.9128 10.6246L36.2516 13.1095ZM41.8328 11.5314L64.5939 24.5988L67.0834 20.2627L44.3222 7.19517L41.8328 11.5314ZM63.6693 21.1883L57.0591 32.7296L61.3979 35.2145L68.008 23.6732L63.6693 21.1883ZM57.9838 36.1401L92.1255 55.7414L94.615 51.4052L60.4733 31.804L57.9838 36.1401ZM95.5396 54.8157L115.37 20.1918L111.031 17.7069L91.2008 52.3308L95.5396 54.8157ZM114.445 16.7813L87.9266 1.55654L85.4372 5.89274L111.956 21.1174L114.445 16.7813ZM7.20105 125.357V110.021H2.20105V125.357H7.20105ZM14.2025 112.593L5.94578 107.853L3.45632 112.189L11.7131 116.929L14.2025 112.593ZM17.3985 101.977L10.7884 113.519L15.1272 116.004L21.7373 104.462L17.3985 101.977ZM54.9543 120.653L20.8126 101.052L18.3232 105.388L52.4649 124.989L54.9543 120.653ZM37.034 156.967L55.879 124.064L51.5402 121.579L32.6952 154.482L37.034 156.967ZM34.8646 153.225H30.8827V158.225H34.8646V153.225ZM4.1912 143.283L29.638 157.893L32.1275 153.557L6.68067 138.947L4.1912 143.283ZM7.84383 140.443C7.4255 138.945 7.20105 137.363 7.20105 135.725H2.20105C2.20105 137.822 2.48865 139.856 3.02804 141.788L7.84383 140.443ZM7.20105 135.725V129.178H2.20105V135.725H7.20105ZM4.17831 125.06L2.53166 127.935L6.87044 130.42L8.51708 127.545L4.17831 125.06ZM3.45631 127.525L5.10296 128.471L7.59243 124.134L5.94579 123.189L3.45631 127.525ZM86.9596 153.225H57.5956V158.225H86.9596V153.225ZM44.9349 151.339L56.3509 157.893L58.8404 153.557L47.4244 147.002L44.9349 151.339ZM50.6204 136.387L44.0103 147.928L48.3491 150.413L54.9592 138.872L50.6204 136.387ZM71.1053 145.262L54.0345 135.461L51.545 139.797L68.6159 149.598L71.1053 145.262ZM76.6866 143.684C75.4855 145.781 73.1027 146.408 71.1053 145.262L68.6159 149.598C73.0646 152.152 78.4824 150.609 81.0253 146.169L76.6866 143.684ZM86.6017 126.372L76.6866 143.684L81.0253 146.169L90.9405 128.857L86.6017 126.372ZM101.396 131.98L90.0158 125.446L87.5264 129.782L98.9069 136.316L101.396 131.98ZM92.4059 152.702L102.321 135.39L97.9823 132.905L88.0671 150.217L92.4059 152.702ZM88.7178 157.502C90.1296 156.105 91.3762 154.5 92.4059 152.702L88.0671 150.217C87.2653 151.617 86.2968 152.864 85.2015 153.947L88.7178 157.502ZM82.5846 19.5913L93.9651 26.125L96.4546 21.7888L85.074 15.2551L82.5846 19.5913ZM79.3886 30.207L85.9987 18.6657L81.6599 16.1807L75.0498 27.722L79.3886 30.207ZM89.8445 33.3301L78.4639 26.7964L75.9745 31.1326L87.355 37.6663L89.8445 33.3301ZM93.0405 22.7144L86.4304 34.2557L90.7691 36.7407L97.3793 25.1994L93.0405 22.7144ZM110.111 32.515L103.501 44.0563L107.84 46.5413L114.45 35L110.111 32.515ZM130.596 41.39L113.525 31.5894L111.036 35.9256L128.107 45.7262L130.596 41.39ZM138.677 71.9132C144.782 61.2534 141.178 47.4651 130.596 41.39L128.107 45.7262C136.241 50.3961 139.103 61.1079 134.338 69.4282L138.677 71.9132ZM125.456 94.9958L138.677 71.9132L134.338 69.4282L121.118 92.5108L125.456 94.9958ZM135.912 98.119L124.532 91.5852L122.042 95.9214L133.423 102.455L135.912 98.119ZM117.007 136.153L136.837 101.53L132.498 99.0446L112.668 133.668L117.007 136.153ZM79.4509 117.478L113.593 137.079L116.082 132.743L81.9403 113.142L79.4509 117.478ZM98.3565 79.4433L78.5262 114.067L82.865 116.552L102.695 81.9283L98.3565 79.4433ZM113.151 85.0515L101.771 78.5177L99.2812 82.8539L110.662 89.3877L113.151 85.0515ZM122.957 62.8945L109.737 85.9771L114.076 88.462L127.296 65.3794L122.957 62.8945ZM121.497 57.2675C123.496 58.4153 124.159 60.7957 122.957 62.8945L127.296 65.3794C129.838 60.9412 128.433 55.4843 123.986 52.9313L121.497 57.2675ZM104.426 47.4669L121.497 57.2675L123.986 52.9313L106.915 43.1307L104.426 47.4669ZM104.052 100.929L115.432 107.463L117.922 103.127L106.541 96.5928L104.052 100.929ZM100.856 111.545L107.466 100.003L103.127 97.5184L96.5169 109.06L100.856 111.545ZM111.312 114.668L99.931 108.134L97.4415 112.47L108.822 119.004L111.312 114.668ZM114.508 104.052L107.897 115.593L112.236 118.078L118.846 106.537L114.508 104.052ZM23.0936 123.463L34.4742 129.997L36.9637 125.661L25.5831 119.127L23.0936 123.463ZM19.8976 134.079L26.5077 122.537L22.169 120.052L15.5589 131.594L19.8976 134.079ZM30.3536 137.202L18.973 130.668L16.4835 135.004L27.8641 141.538L30.3536 137.202ZM33.5495 126.586L26.9394 138.127L31.2782 140.612L37.8883 129.071L33.5495 126.586Z" fill="black"/>
<mask id="path-5-outside-1_17_75" maskUnits="userSpaceOnUse" x="131" y="95" width="182" height="54" fill="black">
<rect fill="white" x="131" y="95" width="182" height="54"/>
<path d="M159.4 120H154.75V105.9L149.2 120H145.36L139.81 106.08V120H135.31V98.73H141.49L147.34 113.1L152.89 98.73H159.4V120ZM178.301 118.35C176.721 119.77 174.711 120.48 172.271 120.48C169.831 120.48 167.811 119.77 166.211 118.35C164.631 116.91 163.841 114.9 163.841 112.32V98.73H168.581V111.93C168.581 113.19 168.901 114.15 169.541 114.81C170.201 115.47 171.111 115.8 172.271 115.8C173.431 115.8 174.331 115.47 174.971 114.81C175.631 114.15 175.961 113.19 175.961 111.93V98.73H180.701V112.32C180.701 114.9 179.901 116.91 178.301 118.35ZM199.064 120H185.144V98.73H189.884V115.47H199.064V120ZM216.137 103.26H209.567V120H204.827V103.26H198.287V98.73H216.137V103.26ZM223.811 120H219.011V98.73H223.811V120ZM154.96 145H151.12L150.82 142.84C150.3 143.58 149.53 144.2 148.51 144.7C147.49 145.2 146.27 145.45 144.85 145.45C141.81 145.45 139.25 144.43 137.17 142.39C135.11 140.33 134.08 137.66 134.08 134.38C134.08 131.12 135.15 128.46 137.29 126.4C139.45 124.32 142.07 123.28 145.15 123.28C147.91 123.28 150.1 123.93 151.72 125.23C153.34 126.53 154.43 128.07 154.99 129.85L150.43 131.44C150.21 130.54 149.66 129.7 148.78 128.92C147.92 128.12 146.71 127.72 145.15 127.72C143.51 127.72 142.05 128.29 140.77 129.43C139.51 130.55 138.88 132.2 138.88 134.38C138.88 136.5 139.49 138.16 140.71 139.36C141.93 140.54 143.45 141.13 145.27 141.13C146.83 141.13 148.05 140.76 148.93 140.02C149.81 139.26 150.34 138.47 150.52 137.65H144.13V133.63H154.96V145ZM163.753 145H158.953V123.73H163.753V145ZM173.877 129.58C172.657 130.68 172.047 132.27 172.047 134.35C172.047 136.43 172.657 138.02 173.877 139.12C175.117 140.22 176.557 140.77 178.197 140.77C179.837 140.77 181.267 140.22 182.487 139.12C183.707 138.02 184.317 136.43 184.317 134.35C184.317 132.27 183.707 130.68 182.487 129.58C181.267 128.46 179.837 127.9 178.197 127.9C176.557 127.9 175.117 128.46 173.877 129.58ZM167.127 134.38C167.127 131.08 168.197 128.41 170.337 126.37C172.497 124.31 175.117 123.28 178.197 123.28C181.277 123.28 183.887 124.31 186.027 126.37C188.167 128.43 189.237 131.1 189.237 134.38C189.237 137.66 188.167 140.33 186.027 142.39C183.887 144.43 181.277 145.45 178.197 145.45C175.117 145.45 172.497 144.43 170.337 142.39C168.197 140.33 167.127 137.66 167.127 134.38ZM202.425 145.45C199.305 145.45 196.685 144.43 194.565 142.39C192.445 140.33 191.385 137.67 191.385 134.41C191.385 131.17 192.455 128.51 194.595 126.43C196.735 124.33 199.325 123.28 202.365 123.28C203.885 123.28 205.255 123.51 206.475 123.97C207.715 124.41 208.715 125 209.475 125.74C210.235 126.48 210.845 127.24 211.305 128.02C211.765 128.8 212.085 129.61 212.265 130.45L207.795 131.86C207.695 131.44 207.535 131.03 207.315 130.63C207.095 130.21 206.785 129.79 206.385 129.37C205.985 128.93 205.435 128.58 204.735 128.32C204.035 128.04 203.245 127.9 202.365 127.9C200.765 127.9 199.355 128.47 198.135 129.61C196.915 130.73 196.305 132.33 196.305 134.41C196.305 136.33 196.905 137.86 198.105 139C199.305 140.14 200.745 140.71 202.425 140.71C204.065 140.71 205.335 140.3 206.235 139.48C207.135 138.66 207.725 137.74 208.005 136.72L212.535 138.01C212.335 138.83 212.005 139.64 211.545 140.44C211.105 141.24 210.495 142.03 209.715 142.81C208.955 143.59 207.935 144.23 206.655 144.73C205.395 145.21 203.985 145.45 202.425 145.45ZM229.013 145L227.483 140.68H219.263L217.733 145H212.753L220.763 123.73H226.253L234.173 145H229.013ZM223.433 129.01L220.823 136.36H225.983L223.433 129.01ZM250.941 128.26H244.371V145H239.631V128.26H233.091V123.73H250.941V128.26ZM258.867 129.58C257.647 130.68 257.037 132.27 257.037 134.35C257.037 136.43 257.647 138.02 258.867 139.12C260.107 140.22 261.547 140.77 263.187 140.77C264.827 140.77 266.257 140.22 267.477 139.12C268.697 138.02 269.307 136.43 269.307 134.35C269.307 132.27 268.697 130.68 267.477 129.58C266.257 128.46 264.827 127.9 263.187 127.9C261.547 127.9 260.107 128.46 258.867 129.58ZM252.117 134.38C252.117 131.08 253.187 128.41 255.327 126.37C257.487 124.31 260.107 123.28 263.187 123.28C266.267 123.28 268.877 124.31 271.017 126.37C273.157 128.43 274.227 131.1 274.227 134.38C274.227 137.66 273.157 140.33 271.017 142.39C268.877 144.43 266.267 145.45 263.187 145.45C260.107 145.45 257.487 144.43 255.327 142.39C253.187 140.33 252.117 137.66 252.117 134.38ZM287.835 145L284.025 137.08H282.345V145H277.605V123.73H286.035C288.095 123.73 289.755 124.36 291.015 125.62C292.295 126.88 292.935 128.47 292.935 130.39C292.935 131.83 292.565 133.08 291.825 134.14C291.085 135.18 290.055 135.93 288.735 136.39L293.055 145H287.835ZM282.345 133H285.135C286.095 133 286.835 132.77 287.355 132.31C287.875 131.83 288.135 131.2 288.135 130.42C288.135 129.62 287.875 128.99 287.355 128.53C286.835 128.07 286.095 127.84 285.135 127.84H282.345V133ZM309.943 145H296.443V123.73H309.913V128.2H301.183V132.25H309.103V136.42H301.183V140.5H309.943V145Z"/>
</mask>
<path d="M159.4 120H154.75V105.9L149.2 120H145.36L139.81 106.08V120H135.31V98.73H141.49L147.34 113.1L152.89 98.73H159.4V120ZM178.301 118.35C176.721 119.77 174.711 120.48 172.271 120.48C169.831 120.48 167.811 119.77 166.211 118.35C164.631 116.91 163.841 114.9 163.841 112.32V98.73H168.581V111.93C168.581 113.19 168.901 114.15 169.541 114.81C170.201 115.47 171.111 115.8 172.271 115.8C173.431 115.8 174.331 115.47 174.971 114.81C175.631 114.15 175.961 113.19 175.961 111.93V98.73H180.701V112.32C180.701 114.9 179.901 116.91 178.301 118.35ZM199.064 120H185.144V98.73H189.884V115.47H199.064V120ZM216.137 103.26H209.567V120H204.827V103.26H198.287V98.73H216.137V103.26ZM223.811 120H219.011V98.73H223.811V120ZM154.96 145H151.12L150.82 142.84C150.3 143.58 149.53 144.2 148.51 144.7C147.49 145.2 146.27 145.45 144.85 145.45C141.81 145.45 139.25 144.43 137.17 142.39C135.11 140.33 134.08 137.66 134.08 134.38C134.08 131.12 135.15 128.46 137.29 126.4C139.45 124.32 142.07 123.28 145.15 123.28C147.91 123.28 150.1 123.93 151.72 125.23C153.34 126.53 154.43 128.07 154.99 129.85L150.43 131.44C150.21 130.54 149.66 129.7 148.78 128.92C147.92 128.12 146.71 127.72 145.15 127.72C143.51 127.72 142.05 128.29 140.77 129.43C139.51 130.55 138.88 132.2 138.88 134.38C138.88 136.5 139.49 138.16 140.71 139.36C141.93 140.54 143.45 141.13 145.27 141.13C146.83 141.13 148.05 140.76 148.93 140.02C149.81 139.26 150.34 138.47 150.52 137.65H144.13V133.63H154.96V145ZM163.753 145H158.953V123.73H163.753V145ZM173.877 129.58C172.657 130.68 172.047 132.27 172.047 134.35C172.047 136.43 172.657 138.02 173.877 139.12C175.117 140.22 176.557 140.77 178.197 140.77C179.837 140.77 181.267 140.22 182.487 139.12C183.707 138.02 184.317 136.43 184.317 134.35C184.317 132.27 183.707 130.68 182.487 129.58C181.267 128.46 179.837 127.9 178.197 127.9C176.557 127.9 175.117 128.46 173.877 129.58ZM167.127 134.38C167.127 131.08 168.197 128.41 170.337 126.37C172.497 124.31 175.117 123.28 178.197 123.28C181.277 123.28 183.887 124.31 186.027 126.37C188.167 128.43 189.237 131.1 189.237 134.38C189.237 137.66 188.167 140.33 186.027 142.39C183.887 144.43 181.277 145.45 178.197 145.45C175.117 145.45 172.497 144.43 170.337 142.39C168.197 140.33 167.127 137.66 167.127 134.38ZM202.425 145.45C199.305 145.45 196.685 144.43 194.565 142.39C192.445 140.33 191.385 137.67 191.385 134.41C191.385 131.17 192.455 128.51 194.595 126.43C196.735 124.33 199.325 123.28 202.365 123.28C203.885 123.28 205.255 123.51 206.475 123.97C207.715 124.41 208.715 125 209.475 125.74C210.235 126.48 210.845 127.24 211.305 128.02C211.765 128.8 212.085 129.61 212.265 130.45L207.795 131.86C207.695 131.44 207.535 131.03 207.315 130.63C207.095 130.21 206.785 129.79 206.385 129.37C205.985 128.93 205.435 128.58 204.735 128.32C204.035 128.04 203.245 127.9 202.365 127.9C200.765 127.9 199.355 128.47 198.135 129.61C196.915 130.73 196.305 132.33 196.305 134.41C196.305 136.33 196.905 137.86 198.105 139C199.305 140.14 200.745 140.71 202.425 140.71C204.065 140.71 205.335 140.3 206.235 139.48C207.135 138.66 207.725 137.74 208.005 136.72L212.535 138.01C212.335 138.83 212.005 139.64 211.545 140.44C211.105 141.24 210.495 142.03 209.715 142.81C208.955 143.59 207.935 144.23 206.655 144.73C205.395 145.21 203.985 145.45 202.425 145.45ZM229.013 145L227.483 140.68H219.263L217.733 145H212.753L220.763 123.73H226.253L234.173 145H229.013ZM223.433 129.01L220.823 136.36H225.983L223.433 129.01ZM250.941 128.26H244.371V145H239.631V128.26H233.091V123.73H250.941V128.26ZM258.867 129.58C257.647 130.68 257.037 132.27 257.037 134.35C257.037 136.43 257.647 138.02 258.867 139.12C260.107 140.22 261.547 140.77 263.187 140.77C264.827 140.77 266.257 140.22 267.477 139.12C268.697 138.02 269.307 136.43 269.307 134.35C269.307 132.27 268.697 130.68 267.477 129.58C266.257 128.46 264.827 127.9 263.187 127.9C261.547 127.9 260.107 128.46 258.867 129.58ZM252.117 134.38C252.117 131.08 253.187 128.41 255.327 126.37C257.487 124.31 260.107 123.28 263.187 123.28C266.267 123.28 268.877 124.31 271.017 126.37C273.157 128.43 274.227 131.1 274.227 134.38C274.227 137.66 273.157 140.33 271.017 142.39C268.877 144.43 266.267 145.45 263.187 145.45C260.107 145.45 257.487 144.43 255.327 142.39C253.187 140.33 252.117 137.66 252.117 134.38ZM287.835 145L284.025 137.08H282.345V145H277.605V123.73H286.035C288.095 123.73 289.755 124.36 291.015 125.62C292.295 126.88 292.935 128.47 292.935 130.39C292.935 131.83 292.565 133.08 291.825 134.14C291.085 135.18 290.055 135.93 288.735 136.39L293.055 145H287.835ZM282.345 133H285.135C286.095 133 286.835 132.77 287.355 132.31C287.875 131.83 288.135 131.2 288.135 130.42C288.135 129.62 287.875 128.99 287.355 128.53C286.835 128.07 286.095 127.84 285.135 127.84H282.345V133ZM309.943 145H296.443V123.73H309.913V128.2H301.183V132.25H309.103V136.42H301.183V140.5H309.943V145Z" fill="#FEFEFE"/>
<path d="M159.4 120V123H162.4V120H159.4ZM154.75 120H151.75V123H154.75V120ZM154.75 105.9H157.75L151.958 104.801L154.75 105.9ZM149.2 120V123H151.243L151.992 121.099L149.2 120ZM145.36 120L142.573 121.111L143.326 123H145.36V120ZM139.81 106.08L142.597 104.969L136.81 106.08H139.81ZM139.81 120V123H142.81V120H139.81ZM135.31 120H132.31V123H135.31V120ZM135.31 98.73V95.73H132.31V98.73H135.31ZM141.49 98.73L144.269 97.5988L143.508 95.73H141.49V98.73ZM147.34 113.1L144.561 114.231L147.413 121.237L150.139 114.181L147.34 113.1ZM152.89 98.73V95.73H150.833L150.091 97.6491L152.89 98.73ZM159.4 98.73H162.4V95.73H159.4V98.73ZM159.4 117H154.75V123H159.4V117ZM157.75 120V105.9H151.75V120H157.75ZM151.958 104.801L146.408 118.901L151.992 121.099L157.542 106.999L151.958 104.801ZM149.2 117H145.36V123H149.2V117ZM148.147 118.889L142.597 104.969L137.023 107.191L142.573 121.111L148.147 118.889ZM136.81 106.08V120H142.81V106.08H136.81ZM139.81 117H135.31V123H139.81V117ZM138.31 120V98.73H132.31V120H138.31ZM135.31 101.73H141.49V95.73H135.31V101.73ZM138.711 99.8612L144.561 114.231L150.119 111.969L144.269 97.5988L138.711 99.8612ZM150.139 114.181L155.689 99.8108L150.091 97.6491L144.541 112.019L150.139 114.181ZM152.89 101.73H159.4V95.73H152.89V101.73ZM156.4 98.73V120H162.4V98.73H156.4ZM178.301 118.35L180.306 120.581L180.308 120.58L178.301 118.35ZM166.211 118.35L164.19 120.567L164.205 120.581L164.22 120.594L166.211 118.35ZM163.841 98.73V95.73H160.841V98.73H163.841ZM168.581 98.73H171.581V95.73H168.581V98.73ZM169.541 114.81L167.387 116.898L167.403 116.915L167.42 116.931L169.541 114.81ZM174.971 114.81L172.85 112.689L172.833 112.705L172.817 112.722L174.971 114.81ZM175.961 98.73V95.73H172.961V98.73H175.961ZM180.701 98.73H183.701V95.73H180.701V98.73ZM176.296 116.119C175.348 116.971 174.088 117.48 172.271 117.48V123.48C175.334 123.48 178.094 122.569 180.306 120.581L176.296 116.119ZM172.271 117.48C170.455 117.48 169.176 116.971 168.202 116.106L164.22 120.594C166.446 122.569 169.207 123.48 172.271 123.48V117.48ZM168.232 116.133C167.403 115.377 166.841 114.245 166.841 112.32H160.841C160.841 115.555 161.859 118.443 164.19 120.567L168.232 116.133ZM166.841 112.32V98.73H160.841V112.32H166.841ZM163.841 101.73H168.581V95.73H163.841V101.73ZM165.581 98.73V111.93H171.581V98.73H165.581ZM165.581 111.93C165.581 113.676 166.029 115.498 167.387 116.898L171.695 112.722C171.718 112.746 171.699 112.743 171.667 112.646C171.63 112.537 171.581 112.313 171.581 111.93H165.581ZM167.42 116.931C168.772 118.284 170.52 118.8 172.271 118.8V112.8C171.972 112.8 171.811 112.757 171.741 112.732C171.683 112.711 171.67 112.696 171.662 112.689L167.42 116.931ZM172.271 118.8C174.018 118.8 175.78 118.285 177.125 116.898L172.817 112.722C172.816 112.723 172.816 112.722 172.818 112.721C172.818 112.721 172.819 112.72 172.819 112.72C172.82 112.72 172.82 112.72 172.82 112.72C172.82 112.72 172.819 112.72 172.818 112.721C172.817 112.721 172.815 112.722 172.813 112.724C172.807 112.726 172.798 112.731 172.783 112.736C172.725 112.757 172.57 112.8 172.271 112.8V118.8ZM177.092 116.931C178.489 115.534 178.961 113.699 178.961 111.93H172.961C172.961 112.305 172.911 112.519 172.876 112.62C172.846 112.707 172.829 112.709 172.85 112.689L177.092 116.931ZM178.961 111.93V98.73H172.961V111.93H178.961ZM175.961 101.73H180.701V95.73H175.961V101.73ZM177.701 98.73V112.32H183.701V98.73H177.701ZM177.701 112.32C177.701 114.233 177.137 115.361 176.294 116.12L180.308 120.58C182.665 118.459 183.701 115.567 183.701 112.32H177.701ZM199.064 120V123H202.064V120H199.064ZM185.144 120H182.144V123H185.144V120ZM185.144 98.73V95.73H182.144V98.73H185.144ZM189.884 98.73H192.884V95.73H189.884V98.73ZM189.884 115.47H186.884V118.47H189.884V115.47ZM199.064 115.47H202.064V112.47H199.064V115.47ZM199.064 117H185.144V123H199.064V117ZM188.144 120V98.73H182.144V120H188.144ZM185.144 101.73H189.884V95.73H185.144V101.73ZM186.884 98.73V115.47H192.884V98.73H186.884ZM189.884 118.47H199.064V112.47H189.884V118.47ZM196.064 115.47V120H202.064V115.47H196.064ZM216.137 103.26V106.26H219.137V103.26H216.137ZM209.567 103.26V100.26H206.567V103.26H209.567ZM209.567 120V123H212.567V120H209.567ZM204.827 120H201.827V123H204.827V120ZM204.827 103.26H207.827V100.26H204.827V103.26ZM198.287 103.26H195.287V106.26H198.287V103.26ZM198.287 98.73V95.73H195.287V98.73H198.287ZM216.137 98.73H219.137V95.73H216.137V98.73ZM216.137 100.26H209.567V106.26H216.137V100.26ZM206.567 103.26V120H212.567V103.26H206.567ZM209.567 117H204.827V123H209.567V117ZM207.827 120V103.26H201.827V120H207.827ZM204.827 100.26H198.287V106.26H204.827V100.26ZM201.287 103.26V98.73H195.287V103.26H201.287ZM198.287 101.73H216.137V95.73H198.287V101.73ZM213.137 98.73V103.26H219.137V98.73H213.137ZM223.811 120V123H226.811V120H223.811ZM219.011 120H216.011V123H219.011V120ZM219.011 98.73V95.73H216.011V98.73H219.011ZM223.811 98.73H226.811V95.73H223.811V98.73ZM223.811 117H219.011V123H223.811V117ZM222.011 120V98.73H216.011V120H222.011ZM219.011 101.73H223.811V95.73H219.011V101.73ZM220.811 98.73V120H226.811V98.73H220.811ZM154.96 145V148H157.96V145H154.96ZM151.12 145L148.149 145.413L148.508 148H151.12V145ZM150.82 142.84L153.791 142.427L152.744 134.884L148.365 141.115L150.82 142.84ZM148.51 144.7L147.19 142.006L147.19 142.006L148.51 144.7ZM137.17 142.39L135.049 144.511L135.059 144.522L135.069 144.532L137.17 142.39ZM137.29 126.4L139.371 128.561L139.371 128.561L137.29 126.4ZM151.72 125.23L149.842 127.57L149.842 127.57L151.72 125.23ZM154.99 129.85L155.978 132.683L158.725 131.725L157.852 128.95L154.99 129.85ZM150.43 131.44L147.516 132.152L148.3 135.36L151.418 134.273L150.43 131.44ZM148.78 128.92L146.737 131.117L146.763 131.141L146.79 131.165L148.78 128.92ZM140.77 129.43L142.763 131.672L142.765 131.67L140.77 129.43ZM140.71 139.36L138.606 141.499L138.615 141.508L138.624 141.516L140.71 139.36ZM148.93 140.02L150.861 142.316L150.876 142.303L150.891 142.29L148.93 140.02ZM150.52 137.65L153.45 138.293L154.25 134.65H150.52V137.65ZM144.13 137.65H141.13V140.65H144.13V137.65ZM144.13 133.63V130.63H141.13V133.63H144.13ZM154.96 133.63H157.96V130.63H154.96V133.63ZM154.96 142H151.12V148H154.96V142ZM154.091 144.587L153.791 142.427L147.849 143.253L148.149 145.413L154.091 144.587ZM148.365 141.115C148.201 141.349 147.87 141.673 147.19 142.006L149.83 147.394C151.19 146.727 152.399 145.811 153.275 144.565L148.365 141.115ZM147.19 142.006C146.67 142.261 145.924 142.45 144.85 142.45V148.45C146.616 148.45 148.31 148.139 149.83 147.394L147.19 142.006ZM144.85 142.45C142.558 142.45 140.763 141.712 139.271 140.248L135.069 144.532C137.737 147.148 141.062 148.45 144.85 148.45V142.45ZM139.291 140.269C137.867 138.844 137.08 136.974 137.08 134.38H131.08C131.08 138.346 132.353 141.816 135.049 144.511L139.291 140.269ZM137.08 134.38C137.08 131.848 137.879 129.998 139.371 128.561L135.209 124.239C132.421 126.922 131.08 130.392 131.08 134.38H137.08ZM139.371 128.561C140.955 127.035 142.823 126.28 145.15 126.28V120.28C141.317 120.28 137.945 121.605 135.209 124.239L139.371 128.561ZM145.15 126.28C147.452 126.28 148.907 126.819 149.842 127.57L153.598 122.89C151.293 121.041 148.368 120.28 145.15 120.28V126.28ZM149.842 127.57C151.054 128.542 151.766 129.6 152.128 130.75L157.852 128.95C157.094 126.54 155.627 124.518 153.598 122.89L149.842 127.57ZM154.002 127.017L149.442 128.607L151.418 134.273L155.978 132.683L154.002 127.017ZM153.344 130.728C152.945 129.093 151.984 127.751 150.77 126.675L146.79 131.165C147.336 131.649 147.475 131.987 147.516 132.152L153.344 130.728ZM150.823 126.723C149.246 125.256 147.214 124.72 145.15 124.72V130.72C146.206 130.72 146.594 130.984 146.737 131.117L150.823 126.723ZM145.15 124.72C142.739 124.72 140.577 125.585 138.775 127.19L142.765 131.67C143.523 130.995 144.281 130.72 145.15 130.72V124.72ZM138.777 127.188C136.701 129.033 135.88 131.61 135.88 134.38H141.88C141.88 132.79 142.319 132.067 142.763 131.672L138.777 127.188ZM135.88 134.38C135.88 137.1 136.682 139.606 138.606 141.499L142.814 137.221C142.298 136.714 141.88 135.9 141.88 134.38H135.88ZM138.624 141.516C140.447 143.279 142.734 144.13 145.27 144.13V138.13C144.166 138.13 143.413 137.801 142.796 137.204L138.624 141.516ZM145.27 144.13C147.284 144.13 149.274 143.65 150.861 142.316L146.999 137.724C146.826 137.87 146.376 138.13 145.27 138.13V144.13ZM150.891 142.29C152.076 141.267 153.087 139.949 153.45 138.293L147.59 137.007C147.59 137.008 147.587 137.021 147.574 137.049C147.562 137.077 147.539 137.123 147.496 137.186C147.409 137.316 147.25 137.507 146.969 137.75L150.891 142.29ZM150.52 134.65H144.13V140.65H150.52V134.65ZM147.13 137.65V133.63H141.13V137.65H147.13ZM144.13 136.63H154.96V130.63H144.13V136.63ZM151.96 133.63V145H157.96V133.63H151.96ZM163.753 145V148H166.753V145H163.753ZM158.953 145H155.953V148H158.953V145ZM158.953 123.73V120.73H155.953V123.73H158.953ZM163.753 123.73H166.753V120.73H163.753V123.73ZM163.753 142H158.953V148H163.753V142ZM161.953 145V123.73H155.953V145H161.953ZM158.953 126.73H163.753V120.73H158.953V126.73ZM160.753 123.73V145H166.753V123.73H160.753ZM173.877 129.58L175.886 131.808L175.888 131.806L173.877 129.58ZM173.877 139.12L171.868 141.348L171.877 141.356L171.886 141.364L173.877 139.12ZM182.487 139.12L184.496 141.348L184.496 141.348L182.487 139.12ZM182.487 129.58L180.458 131.79L180.468 131.799L180.478 131.808L182.487 129.58ZM170.337 126.37L172.407 128.541L172.407 128.541L170.337 126.37ZM186.027 126.37L188.107 124.209L186.027 126.37ZM186.027 142.39L188.097 144.561L188.102 144.556L188.107 144.551L186.027 142.39ZM170.337 142.39L168.256 144.551L168.267 144.561L168.277 144.571L170.337 142.39ZM171.868 127.352C169.857 129.165 169.047 131.662 169.047 134.35H175.047C175.047 132.878 175.456 132.195 175.886 131.808L171.868 127.352ZM169.047 134.35C169.047 137.038 169.857 139.535 171.868 141.348L175.886 136.892C175.456 136.505 175.047 135.822 175.047 134.35H169.047ZM171.886 141.364C173.668 142.945 175.815 143.77 178.197 143.77V137.77C177.299 137.77 176.565 137.495 175.868 136.876L171.886 141.364ZM178.197 143.77C180.58 143.77 182.726 142.944 184.496 141.348L180.478 136.892C179.808 137.496 179.093 137.77 178.197 137.77V143.77ZM184.496 141.348C186.506 139.535 187.317 137.038 187.317 134.35H181.317C181.317 135.822 180.907 136.505 180.478 136.892L184.496 141.348ZM187.317 134.35C187.317 131.662 186.506 129.165 184.496 127.352L180.478 131.808C180.907 132.195 181.317 132.878 181.317 134.35H187.317ZM184.516 127.37C182.748 125.747 180.596 124.9 178.197 124.9V130.9C179.077 130.9 179.785 131.173 180.458 131.79L184.516 127.37ZM178.197 124.9C175.799 124.9 173.646 125.746 171.866 127.354L175.888 131.806C176.588 131.174 177.315 130.9 178.197 130.9V124.9ZM170.127 134.38C170.127 131.795 170.933 129.947 172.407 128.541L168.267 124.199C165.461 126.873 164.127 130.365 164.127 134.38H170.127ZM172.407 128.541C173.99 127.032 175.861 126.28 178.197 126.28V120.28C174.373 120.28 171.004 121.588 168.266 124.199L172.407 128.541ZM178.197 126.28C180.533 126.28 182.388 127.031 183.946 128.531L188.107 124.209C185.386 121.589 182.021 120.28 178.197 120.28V126.28ZM183.946 128.531C185.434 129.964 186.237 131.822 186.237 134.38H192.237C192.237 130.378 190.899 126.896 188.107 124.209L183.946 128.531ZM186.237 134.38C186.237 136.938 185.434 138.796 183.946 140.229L188.107 144.551C190.899 141.864 192.237 138.382 192.237 134.38H186.237ZM183.957 140.219C182.4 141.703 180.542 142.45 178.197 142.45V148.45C182.012 148.45 185.374 147.157 188.097 144.561L183.957 140.219ZM178.197 142.45C175.852 142.45 173.978 141.702 172.397 140.209L168.277 144.571C171.016 147.158 174.382 148.45 178.197 148.45V142.45ZM172.417 140.229C170.929 138.796 170.127 136.938 170.127 134.38H164.127C164.127 138.382 165.464 141.864 168.256 144.551L172.417 140.229ZM194.565 142.39L192.474 144.542L192.479 144.547L192.485 144.552L194.565 142.39ZM194.595 126.43L196.686 128.581L196.691 128.576L196.696 128.571L194.595 126.43ZM206.475 123.97L205.416 126.777L205.444 126.787L205.471 126.797L206.475 123.97ZM209.475 125.74L211.568 123.591L211.568 123.591L209.475 125.74ZM211.305 128.02L213.889 126.496L213.889 126.496L211.305 128.02ZM212.265 130.45L213.167 133.311L215.77 132.49L215.198 129.821L212.265 130.45ZM207.795 131.86L204.876 132.555L205.623 135.691L208.697 134.721L207.795 131.86ZM207.315 130.63L204.657 132.022L204.671 132.049L204.686 132.076L207.315 130.63ZM206.385 129.37L204.165 131.388L204.188 131.414L204.212 131.439L206.385 129.37ZM204.735 128.32L203.621 131.105L203.655 131.119L203.69 131.132L204.735 128.32ZM198.135 129.61L200.164 131.82L200.173 131.811L200.183 131.802L198.135 129.61ZM198.105 139L200.171 136.825L200.171 136.825L198.105 139ZM206.235 139.48L204.214 137.262L204.214 137.262L206.235 139.48ZM208.005 136.72L208.826 133.835L205.913 133.005L205.112 135.926L208.005 136.72ZM212.535 138.01L215.449 138.721L216.133 135.916L213.356 135.125L212.535 138.01ZM211.545 140.44L208.944 138.945L208.93 138.969L208.916 138.994L211.545 140.44ZM209.715 142.81L207.593 140.689L207.58 140.702L207.566 140.716L209.715 142.81ZM206.655 144.73L207.723 147.533L207.734 147.529L207.746 147.524L206.655 144.73ZM202.425 142.45C200.029 142.45 198.17 141.696 196.645 140.228L192.485 144.552C195.2 147.164 198.581 148.45 202.425 148.45V142.45ZM196.655 140.238C195.179 138.804 194.385 136.951 194.385 134.41H188.385C188.385 138.389 189.71 141.856 192.474 144.542L196.655 140.238ZM194.385 134.41C194.385 131.904 195.18 130.045 196.686 128.581L192.504 124.279C189.73 126.975 188.385 130.436 188.385 134.41H194.385ZM196.696 128.571C198.266 127.03 200.098 126.28 202.365 126.28V120.28C198.551 120.28 195.203 121.63 192.493 124.289L196.696 128.571ZM202.365 126.28C203.582 126.28 204.586 126.464 205.416 126.777L207.533 121.163C205.924 120.556 204.187 120.28 202.365 120.28V126.28ZM205.471 126.797C206.399 127.126 206.997 127.515 207.382 127.889L211.568 123.591C210.432 122.485 209.03 121.694 207.478 121.143L205.471 126.797ZM207.382 127.889C207.983 128.475 208.417 129.029 208.721 129.544L213.889 126.496C213.273 125.451 212.487 124.485 211.568 123.591L207.382 127.889ZM208.721 129.544C209.026 130.061 209.222 130.571 209.331 131.079L215.198 129.821C214.947 128.649 214.504 127.539 213.889 126.496L208.721 129.544ZM211.362 127.589L206.892 128.999L208.697 134.721L213.167 133.311L211.362 127.589ZM210.713 131.165C210.547 130.468 210.286 129.807 209.943 129.184L204.686 132.076C204.784 132.253 204.842 132.412 204.876 132.555L210.713 131.165ZM209.972 129.238C209.598 128.523 209.108 127.88 208.557 127.301L204.212 131.439C204.461 131.7 204.592 131.897 204.657 132.022L209.972 129.238ZM208.605 127.352C207.81 126.478 206.816 125.893 205.779 125.508L203.69 131.132C204.053 131.267 204.16 131.382 204.165 131.388L208.605 127.352ZM205.849 125.535C204.74 125.091 203.563 124.9 202.365 124.9V130.9C202.926 130.9 203.329 130.989 203.621 131.105L205.849 125.535ZM202.365 124.9C199.968 124.9 197.835 125.784 196.086 127.418L200.183 131.802C200.874 131.156 201.561 130.9 202.365 130.9V124.9ZM196.106 127.4C194.116 129.227 193.305 131.72 193.305 134.41H199.305C199.305 132.94 199.714 132.233 200.164 131.82L196.106 127.4ZM193.305 134.41C193.305 137.009 194.146 139.377 196.038 141.175L200.171 136.825C199.664 136.343 199.305 135.651 199.305 134.41H193.305ZM196.038 141.175C197.805 142.853 199.989 143.71 202.425 143.71V137.71C201.501 137.71 200.804 137.427 200.171 136.825L196.038 141.175ZM202.425 143.71C204.549 143.71 206.635 143.174 208.255 141.698L204.214 137.262C204.035 137.426 203.581 137.71 202.425 137.71V143.71ZM208.255 141.698C209.51 140.554 210.446 139.16 210.898 137.514L205.112 135.926C205.004 136.32 204.759 136.766 204.214 137.262L208.255 141.698ZM207.183 139.605L211.713 140.895L213.356 135.125L208.826 133.835L207.183 139.605ZM209.62 137.299C209.493 137.82 209.276 138.367 208.944 138.945L214.145 141.935C214.733 140.913 215.176 139.84 215.449 138.721L209.62 137.299ZM208.916 138.994C208.637 139.501 208.213 140.069 207.593 140.689L211.836 144.931C212.776 143.991 213.572 142.979 214.173 141.886L208.916 138.994ZM207.566 140.716C207.172 141.121 206.546 141.552 205.563 141.936L207.746 147.524C209.324 146.908 210.738 146.059 211.863 144.904L207.566 140.716ZM205.587 141.927C204.717 142.258 203.676 142.45 202.425 142.45V148.45C204.293 148.45 206.073 148.162 207.723 147.533L205.587 141.927ZM229.013 145L226.185 146.002L226.893 148H229.013V145ZM227.483 140.68L230.311 139.678L229.603 137.68H227.483V140.68ZM219.263 140.68V137.68H217.143L216.435 139.678L219.263 140.68ZM217.733 145V148H219.853L220.561 146.002L217.733 145ZM212.753 145L209.946 143.943L208.418 148H212.753V145ZM220.763 123.73V120.73H218.687L217.956 122.673L220.763 123.73ZM226.253 123.73L229.065 122.683L228.337 120.73H226.253V123.73ZM234.173 145V148H238.491L236.985 143.953L234.173 145ZM223.433 129.01L226.267 128.027L223.466 119.952L220.606 128.006L223.433 129.01ZM220.823 136.36L217.996 135.356L216.574 139.36H220.823V136.36ZM225.983 136.36V139.36H230.199L228.817 135.377L225.983 136.36ZM231.841 143.998L230.311 139.678L224.655 141.682L226.185 146.002L231.841 143.998ZM227.483 137.68H219.263V143.68H227.483V137.68ZM216.435 139.678L214.905 143.998L220.561 146.002L222.091 141.682L216.435 139.678ZM217.733 142H212.753V148H217.733V142ZM215.561 146.057L223.571 124.787L217.956 122.673L209.946 143.943L215.561 146.057ZM220.763 126.73H226.253V120.73H220.763V126.73ZM223.442 124.777L231.362 146.047L236.985 143.953L229.065 122.683L223.442 124.777ZM234.173 142H229.013V148H234.173V142ZM220.606 128.006L217.996 135.356L223.65 137.364L226.26 130.014L220.606 128.006ZM220.823 139.36H225.983V133.36H220.823V139.36ZM228.817 135.377L226.267 128.027L220.599 129.993L223.149 137.343L228.817 135.377ZM250.941 128.26V131.26H253.941V128.26H250.941ZM244.371 128.26V125.26H241.371V128.26H244.371ZM244.371 145V148H247.371V145H244.371ZM239.631 145H236.631V148H239.631V145ZM239.631 128.26H242.631V125.26H239.631V128.26ZM233.091 128.26H230.091V131.26H233.091V128.26ZM233.091 123.73V120.73H230.091V123.73H233.091ZM250.941 123.73H253.941V120.73H250.941V123.73ZM250.941 125.26H244.371V131.26H250.941V125.26ZM241.371 128.26V145H247.371V128.26H241.371ZM244.371 142H239.631V148H244.371V142ZM242.631 145V128.26H236.631V145H242.631ZM239.631 125.26H233.091V131.26H239.631V125.26ZM236.091 128.26V123.73H230.091V128.26H236.091ZM233.091 126.73H250.941V120.73H233.091V126.73ZM247.941 123.73V128.26H253.941V123.73H247.941ZM258.867 129.58L260.876 131.808L260.878 131.806L258.867 129.58ZM258.867 139.12L256.858 141.348L256.867 141.356L256.876 141.364L258.867 139.12ZM267.477 139.12L269.486 141.348L269.486 141.348L267.477 139.12ZM267.477 129.58L265.448 131.79L265.458 131.799L265.468 131.808L267.477 129.58ZM255.327 126.37L257.397 128.541L257.398 128.541L255.327 126.37ZM271.017 126.37L273.098 124.209L271.017 126.37ZM271.017 142.39L273.087 144.561L273.092 144.556L273.098 144.551L271.017 142.39ZM255.327 142.39L253.247 144.551L253.257 144.561L253.267 144.571L255.327 142.39ZM256.858 127.352C254.848 129.165 254.037 131.662 254.037 134.35H260.037C260.037 132.878 260.447 132.195 260.876 131.808L256.858 127.352ZM254.037 134.35C254.037 137.038 254.848 139.535 256.858 141.348L260.876 136.892C260.447 136.505 260.037 135.822 260.037 134.35H254.037ZM256.876 141.364C258.659 142.945 260.805 143.77 263.187 143.77V137.77C262.289 137.77 261.556 137.495 260.858 136.876L256.876 141.364ZM263.187 143.77C265.571 143.77 267.716 142.944 269.486 141.348L265.468 136.892C264.798 137.496 264.084 137.77 263.187 137.77V143.77ZM269.486 141.348C271.497 139.535 272.307 137.038 272.307 134.35H266.307C266.307 135.822 265.898 136.505 265.468 136.892L269.486 141.348ZM272.307 134.35C272.307 131.662 271.497 129.165 269.486 127.352L265.468 131.808C265.898 132.195 266.307 132.878 266.307 134.35H272.307ZM269.506 127.37C267.738 125.747 265.587 124.9 263.187 124.9V130.9C264.068 130.9 264.776 131.173 265.448 131.79L269.506 127.37ZM263.187 124.9C260.789 124.9 258.636 125.746 256.856 127.354L260.878 131.806C261.578 131.174 262.305 130.9 263.187 130.9V124.9ZM255.117 134.38C255.117 131.795 255.923 129.947 257.397 128.541L253.257 124.199C250.451 126.873 249.117 130.365 249.117 134.38H255.117ZM257.398 128.541C258.98 127.032 260.851 126.28 263.187 126.28V120.28C259.363 120.28 255.994 121.588 253.257 124.199L257.398 128.541ZM263.187 126.28C265.523 126.28 267.378 127.031 268.937 128.531L273.098 124.209C270.376 121.589 267.011 120.28 263.187 120.28V126.28ZM268.937 128.531C270.425 129.964 271.227 131.822 271.227 134.38H277.227C277.227 130.378 275.889 126.896 273.098 124.209L268.937 128.531ZM271.227 134.38C271.227 136.938 270.425 138.796 268.937 140.229L273.098 144.551C275.889 141.864 277.227 138.382 277.227 134.38H271.227ZM268.947 140.219C267.39 141.703 265.532 142.45 263.187 142.45V148.45C267.002 148.45 270.364 147.157 273.087 144.561L268.947 140.219ZM263.187 142.45C260.842 142.45 258.968 141.702 257.387 140.209L253.267 144.571C256.006 147.158 259.372 148.45 263.187 148.45V142.45ZM257.408 140.229C255.919 138.796 255.117 136.938 255.117 134.38H249.117C249.117 138.382 250.455 141.864 253.247 144.551L257.408 140.229ZM287.835 145L285.131 146.301L285.949 148H287.835V145ZM284.025 137.08L286.728 135.779L285.911 134.08H284.025V137.08ZM282.345 137.08V134.08H279.345V137.08H282.345ZM282.345 145V148H285.345V145H282.345ZM277.605 145H274.605V148H277.605V145ZM277.605 123.73V120.73H274.605V123.73H277.605ZM291.015 125.62L288.894 127.741L288.902 127.75L288.91 127.758L291.015 125.62ZM291.825 134.14L294.269 135.879L294.277 135.868L294.285 135.857L291.825 134.14ZM288.735 136.39L287.748 133.557L284.521 134.681L286.054 137.735L288.735 136.39ZM293.055 145V148H297.917L295.736 143.655L293.055 145ZM282.345 133H279.345V136H282.345V133ZM287.355 132.31L289.343 134.557L289.366 134.536L289.39 134.514L287.355 132.31ZM287.355 128.53L285.367 130.777L285.367 130.777L287.355 128.53ZM282.345 127.84V124.84H279.345V127.84H282.345ZM290.538 143.699L286.728 135.779L281.321 138.381L285.131 146.301L290.538 143.699ZM284.025 134.08H282.345V140.08H284.025V134.08ZM279.345 137.08V145H285.345V137.08H279.345ZM282.345 142H277.605V148H282.345V142ZM280.605 145V123.73H274.605V145H280.605ZM277.605 126.73H286.035V120.73H277.605V126.73ZM286.035 126.73C287.434 126.73 288.285 127.132 288.894 127.741L293.136 123.499C291.225 121.588 288.756 120.73 286.035 120.73V126.73ZM288.91 127.758C289.575 128.412 289.935 129.212 289.935 130.39H295.935C295.935 127.728 295.015 125.348 293.119 123.482L288.91 127.758ZM289.935 130.39C289.935 131.289 289.714 131.923 289.365 132.423L294.285 135.857C295.416 134.237 295.935 132.371 295.935 130.39H289.935ZM289.381 132.401C289.036 132.886 288.539 133.281 287.748 133.557L289.722 139.223C291.571 138.579 293.134 137.474 294.269 135.879L289.381 132.401ZM286.054 137.735L290.374 146.345L295.736 143.655L291.416 135.045L286.054 137.735ZM293.055 142H287.835V148H293.055V142ZM282.345 136H285.135V130H282.345V136ZM285.135 136C286.547 136 288.095 135.661 289.343 134.557L285.367 130.063C285.41 130.025 285.451 129.998 285.483 129.981C285.514 129.964 285.529 129.96 285.52 129.963C285.497 129.97 285.382 130 285.135 130V136ZM289.39 134.514C290.592 133.405 291.135 131.942 291.135 130.42H285.135C285.135 130.474 285.127 130.43 285.167 130.333C285.186 130.287 285.211 130.24 285.242 130.197C285.272 130.154 285.3 130.124 285.32 130.106L289.39 134.514ZM291.135 130.42C291.135 128.905 290.607 127.402 289.343 126.283L285.367 130.777C285.334 130.748 285.295 130.706 285.256 130.653C285.218 130.599 285.188 130.543 285.167 130.492C285.123 130.387 285.135 130.345 285.135 130.42H291.135ZM289.343 126.283C288.095 125.179 286.547 124.84 285.135 124.84V130.84C285.382 130.84 285.497 130.87 285.52 130.877C285.529 130.88 285.514 130.876 285.483 130.859C285.451 130.842 285.41 130.815 285.367 130.777L289.343 126.283ZM285.135 124.84H282.345V130.84H285.135V124.84ZM279.345 127.84V133H285.345V127.84H279.345ZM309.943 145V148H312.943V145H309.943ZM296.443 145H293.443V148H296.443V145ZM296.443 123.73V120.73H293.443V123.73H296.443ZM309.913 123.73H312.913V120.73H309.913V123.73ZM309.913 128.2V131.2H312.913V128.2H309.913ZM301.183 128.2V125.2H298.183V128.2H301.183ZM301.183 132.25H298.183V135.25H301.183V132.25ZM309.103 132.25H312.103V129.25H309.103V132.25ZM309.103 136.42V139.42H312.103V136.42H309.103ZM301.183 136.42V133.42H298.183V136.42H301.183ZM301.183 140.5H298.183V143.5H301.183V140.5ZM309.943 140.5H312.943V137.5H309.943V140.5ZM309.943 142H296.443V148H309.943V142ZM299.443 145V123.73H293.443V145H299.443ZM296.443 126.73H309.913V120.73H296.443V126.73ZM306.913 123.73V128.2H312.913V123.73H306.913ZM309.913 125.2H301.183V131.2H309.913V125.2ZM298.183 128.2V132.25H304.183V128.2H298.183ZM301.183 135.25H309.103V129.25H301.183V135.25ZM306.103 132.25V136.42H312.103V132.25H306.103ZM309.103 133.42H301.183V139.42H309.103V133.42ZM298.183 136.42V140.5H304.183V136.42H298.183ZM301.183 143.5H309.943V137.5H301.183V143.5ZM306.943 140.5V145H312.943V140.5H306.943Z" fill="black" mask="url(#path-5-outside-1_17_75)"/>
</svg>
