<svg width="322" height="186" viewBox="0 0 322 186" fill="none" xmlns="http://www.w3.org/2000/svg">
<rect x="11.1007" y="38.1209" width="299.201" height="147.703" rx="20" fill="#D8D8D8"/>
<path d="M20.1005 23.5164H301.302C310.967 23.5164 318.802 31.3515 318.802 41.0165V159.579C318.802 169.244 310.967 177.079 301.302 177.079H20.1005C10.4355 177.079 2.60052 169.244 2.60052 159.579V41.0165C2.60052 31.3515 10.4355 23.5164 20.1005 23.5164Z" fill="#FF5454" stroke="black" stroke-width="5"/>
<mask id="path-3-outside-1_83_3" maskUnits="userSpaceOnUse" x="15.4954" y="130.049" width="142" height="33" fill="black">
<rect fill="white" x="15.4954" y="130.049" width="142" height="33"/>
<path d="M35.4304 159.049H19.1904V134.234H24.7204V153.764H35.4304V159.049ZM44.8736 141.059C43.4503 142.342 42.7386 144.197 42.7386 146.624C42.7386 149.051 43.4503 150.906 44.8736 152.189C46.3203 153.472 48.0003 154.114 49.9136 154.114C51.8269 154.114 53.4953 153.472 54.9186 152.189C56.3419 150.906 57.0536 149.051 57.0536 146.624C57.0536 144.197 56.3419 142.342 54.9186 141.059C53.4953 139.752 51.8269 139.099 49.9136 139.099C48.0003 139.099 46.3203 139.752 44.8736 141.059ZM36.9986 146.659C36.9986 142.809 38.2469 139.694 40.7436 137.314C43.2636 134.911 46.3203 133.709 49.9136 133.709C53.5069 133.709 56.5519 134.911 59.0486 137.314C61.5453 139.717 62.7936 142.832 62.7936 146.659C62.7936 150.486 61.5453 153.601 59.0486 156.004C56.5519 158.384 53.5069 159.574 49.9136 159.574C46.3203 159.574 43.2636 158.384 40.7436 156.004C38.2469 153.601 36.9986 150.486 36.9986 146.659ZM78.1794 159.574C74.5394 159.574 71.4827 158.384 69.0094 156.004C66.536 153.601 65.2994 150.497 65.2994 146.694C65.2994 142.914 66.5477 139.811 69.0444 137.384C71.541 134.934 74.5627 133.709 78.1094 133.709C79.8827 133.709 81.481 133.977 82.9044 134.514C84.351 135.027 85.5177 135.716 86.4044 136.579C87.291 137.442 88.0027 138.329 88.5394 139.239C89.076 140.149 89.4494 141.094 89.6594 142.074L84.4444 143.719C84.3277 143.229 84.141 142.751 83.8844 142.284C83.6277 141.794 83.266 141.304 82.7994 140.814C82.3327 140.301 81.691 139.892 80.8744 139.589C80.0577 139.262 79.136 139.099 78.1094 139.099C76.2427 139.099 74.5977 139.764 73.1744 141.094C71.751 142.401 71.0394 144.267 71.0394 146.694C71.0394 148.934 71.7394 150.719 73.1394 152.049C74.5394 153.379 76.2194 154.044 78.1794 154.044C80.0927 154.044 81.5744 153.566 82.6244 152.609C83.6744 151.652 84.3627 150.579 84.6894 149.389L89.9744 150.894C89.741 151.851 89.356 152.796 88.8194 153.729C88.306 154.662 87.5944 155.584 86.6844 156.494C85.7977 157.404 84.6077 158.151 83.1144 158.734C81.6444 159.294 79.9994 159.574 78.1794 159.574ZM109.199 159.049L107.414 154.009H97.8242L96.0392 159.049H90.2292L99.5742 134.234H105.979L115.219 159.049H109.199ZM102.689 140.394L99.6442 148.969H105.664L102.689 140.394ZM134.517 159.049H118.277V134.234H123.807V153.764H134.517V159.049ZM153.852 159.049H138.102V134.234H153.817V139.449H143.632V144.174H152.872V149.039H143.632V153.799H153.852V159.049Z"/>
</mask>
<path d="M35.4304 159.049H19.1904V134.234H24.7204V153.764H35.4304V159.049ZM44.8736 141.059C43.4503 142.342 42.7386 144.197 42.7386 146.624C42.7386 149.051 43.4503 150.906 44.8736 152.189C46.3203 153.472 48.0003 154.114 49.9136 154.114C51.8269 154.114 53.4953 153.472 54.9186 152.189C56.3419 150.906 57.0536 149.051 57.0536 146.624C57.0536 144.197 56.3419 142.342 54.9186 141.059C53.4953 139.752 51.8269 139.099 49.9136 139.099C48.0003 139.099 46.3203 139.752 44.8736 141.059ZM36.9986 146.659C36.9986 142.809 38.2469 139.694 40.7436 137.314C43.2636 134.911 46.3203 133.709 49.9136 133.709C53.5069 133.709 56.5519 134.911 59.0486 137.314C61.5453 139.717 62.7936 142.832 62.7936 146.659C62.7936 150.486 61.5453 153.601 59.0486 156.004C56.5519 158.384 53.5069 159.574 49.9136 159.574C46.3203 159.574 43.2636 158.384 40.7436 156.004C38.2469 153.601 36.9986 150.486 36.9986 146.659ZM78.1794 159.574C74.5394 159.574 71.4827 158.384 69.0094 156.004C66.536 153.601 65.2994 150.497 65.2994 146.694C65.2994 142.914 66.5477 139.811 69.0444 137.384C71.541 134.934 74.5627 133.709 78.1094 133.709C79.8827 133.709 81.481 133.977 82.9044 134.514C84.351 135.027 85.5177 135.716 86.4044 136.579C87.291 137.442 88.0027 138.329 88.5394 139.239C89.076 140.149 89.4494 141.094 89.6594 142.074L84.4444 143.719C84.3277 143.229 84.141 142.751 83.8844 142.284C83.6277 141.794 83.266 141.304 82.7994 140.814C82.3327 140.301 81.691 139.892 80.8744 139.589C80.0577 139.262 79.136 139.099 78.1094 139.099C76.2427 139.099 74.5977 139.764 73.1744 141.094C71.751 142.401 71.0394 144.267 71.0394 146.694C71.0394 148.934 71.7394 150.719 73.1394 152.049C74.5394 153.379 76.2194 154.044 78.1794 154.044C80.0927 154.044 81.5744 153.566 82.6244 152.609C83.6744 151.652 84.3627 150.579 84.6894 149.389L89.9744 150.894C89.741 151.851 89.356 152.796 88.8194 153.729C88.306 154.662 87.5944 155.584 86.6844 156.494C85.7977 157.404 84.6077 158.151 83.1144 158.734C81.6444 159.294 79.9994 159.574 78.1794 159.574ZM109.199 159.049L107.414 154.009H97.8242L96.0392 159.049H90.2292L99.5742 134.234H105.979L115.219 159.049H109.199ZM102.689 140.394L99.6442 148.969H105.664L102.689 140.394ZM134.517 159.049H118.277V134.234H123.807V153.764H134.517V159.049ZM153.852 159.049H138.102V134.234H153.817V139.449H143.632V144.174H152.872V149.039H143.632V153.799H153.852V159.049Z" fill="#FEFEFE"/>
<path d="M35.4304 159.049V162.049H38.4304V159.049H35.4304ZM19.1904 159.049H16.1904V162.049H19.1904V159.049ZM19.1904 134.234V131.234H16.1904V134.234H19.1904ZM24.7204 134.234H27.7204V131.234H24.7204V134.234ZM24.7204 153.764H21.7204V156.764H24.7204V153.764ZM35.4304 153.764H38.4304V150.764H35.4304V153.764ZM35.4304 156.049H19.1904V162.049H35.4304V156.049ZM22.1904 159.049V134.234H16.1904V159.049H22.1904ZM19.1904 137.234H24.7204V131.234H19.1904V137.234ZM21.7204 134.234V153.764H27.7204V134.234H21.7204ZM24.7204 156.764H35.4304V150.764H24.7204V156.764ZM32.4304 153.764V159.049H38.4304V153.764H32.4304ZM44.8736 141.059L46.8825 143.287L46.8844 143.285L44.8736 141.059ZM44.8736 152.189L42.8647 154.417L42.8737 154.425L42.8827 154.433L44.8736 152.189ZM54.9186 152.189L56.9275 154.417L56.9275 154.417L54.9186 152.189ZM54.9186 141.059L52.8898 143.269L52.8997 143.278L52.9097 143.287L54.9186 141.059ZM40.7436 137.314L42.8136 139.485L42.8141 139.485L40.7436 137.314ZM59.0486 137.314L61.1291 135.153L59.0486 137.314ZM59.0486 156.004L61.1186 158.175L61.1239 158.17L61.1291 158.165L59.0486 156.004ZM40.7436 156.004L38.663 158.165L38.6733 158.175L38.6837 158.185L40.7436 156.004ZM42.8647 138.831C40.6507 140.827 39.7386 143.59 39.7386 146.624H45.7386C45.7386 144.805 46.2498 143.857 46.8825 143.287L42.8647 138.831ZM39.7386 146.624C39.7386 149.658 40.6507 152.421 42.8647 154.417L46.8825 149.961C46.2498 149.39 45.7386 148.443 45.7386 146.624H39.7386ZM42.8827 154.433C44.8718 156.198 47.2579 157.114 49.9136 157.114V151.114C48.7426 151.114 47.7687 150.747 46.8644 149.945L42.8827 154.433ZM49.9136 157.114C52.5703 157.114 54.954 156.196 56.9275 154.417L52.9097 149.961C52.0365 150.748 51.0835 151.114 49.9136 151.114V157.114ZM56.9275 154.417C59.1415 152.421 60.0536 149.658 60.0536 146.624H54.0536C54.0536 148.443 53.5424 149.39 52.9097 149.961L56.9275 154.417ZM60.0536 146.624C60.0536 143.59 59.1415 140.827 56.9275 138.831L52.9097 143.287C53.5424 143.857 54.0536 144.805 54.0536 146.624H60.0536ZM56.9474 138.849C54.9766 137.04 52.5864 136.099 49.9136 136.099V142.099C51.0674 142.099 52.0139 142.465 52.8898 143.269L56.9474 138.849ZM49.9136 136.099C47.242 136.099 44.8493 137.038 42.8627 138.833L46.8844 143.285C47.7912 142.466 48.7586 142.099 49.9136 142.099V136.099ZM39.9986 146.659C39.9986 143.524 40.9828 141.231 42.8136 139.485L38.6736 135.142C35.511 138.157 33.9986 142.093 33.9986 146.659H39.9986ZM42.8141 139.485C44.7566 137.632 47.064 136.709 49.9136 136.709V130.709C45.5765 130.709 41.7705 132.189 38.6731 135.143L42.8141 139.485ZM49.9136 136.709C52.7628 136.709 55.0528 137.632 56.968 139.475L61.1291 135.153C58.051 132.19 54.251 130.709 49.9136 130.709V136.709ZM56.968 139.475C58.8129 141.251 59.7936 143.554 59.7936 146.659H65.7936C65.7936 142.111 64.2776 138.183 61.1291 135.153L56.968 139.475ZM59.7936 146.659C59.7936 149.764 58.8129 152.067 56.9681 153.843L61.1291 158.165C64.2776 155.134 65.7936 151.207 65.7936 146.659H59.7936ZM56.9786 153.832C55.0651 155.657 52.7717 156.574 49.9136 156.574V162.574C54.2421 162.574 58.0387 161.111 61.1186 158.175L56.9786 153.832ZM49.9136 156.574C47.0552 156.574 44.7444 155.656 42.8035 153.823L38.6837 158.185C41.7828 161.112 45.5853 162.574 49.9136 162.574V156.574ZM42.8241 153.843C40.9793 152.067 39.9986 149.764 39.9986 146.659H33.9986C33.9986 151.207 35.5145 155.134 38.663 158.165L42.8241 153.843ZM69.0094 156.004L66.9187 158.155L66.924 158.161L66.9292 158.166L69.0094 156.004ZM69.0444 137.384L71.1353 139.535L71.1405 139.53L71.1456 139.525L69.0444 137.384ZM82.9044 134.514L81.846 137.321L81.8734 137.331L81.9011 137.341L82.9044 134.514ZM86.4044 136.579L88.4972 134.429L88.4972 134.429L86.4044 136.579ZM88.5394 139.239L91.1235 137.715L91.1235 137.715L88.5394 139.239ZM89.6594 142.074L90.5618 144.935L93.1646 144.114L92.5928 141.445L89.6594 142.074ZM84.4444 143.719L81.5259 144.414L82.2726 147.55L85.3468 146.58L84.4444 143.719ZM83.8844 142.284L81.2269 143.676L81.241 143.703L81.2557 143.73L83.8844 142.284ZM82.7994 140.814L80.5795 142.832L80.603 142.858L80.627 142.883L82.7994 140.814ZM80.8744 139.589L79.7602 142.374L79.7948 142.388L79.8298 142.401L80.8744 139.589ZM73.1744 141.094L75.2032 143.304L75.2129 143.295L75.2226 143.286L73.1744 141.094ZM73.1394 152.049L75.2056 149.874L75.2056 149.874L73.1394 152.049ZM82.6244 152.609L80.6039 150.391L80.6039 150.391L82.6244 152.609ZM84.6894 149.389L85.511 146.504L82.5981 145.674L81.7964 148.595L84.6894 149.389ZM89.9744 150.894L92.8889 151.605L93.5732 148.799L90.796 148.009L89.9744 150.894ZM88.8194 153.729L86.2186 152.233L86.2044 152.258L86.1907 152.283L88.8194 153.729ZM86.6844 156.494L84.563 154.373L84.5493 154.386L84.5357 154.4L86.6844 156.494ZM83.1144 158.734L84.1824 161.537L84.1942 161.533L84.2059 161.528L83.1144 158.734ZM78.1794 156.574C75.2633 156.574 72.9677 155.649 71.0895 153.842L66.9292 158.166C69.9977 161.118 73.8154 162.574 78.1794 162.574V156.574ZM71.1 153.852C69.2708 152.075 68.2994 149.779 68.2994 146.694H62.2994C62.2994 151.216 63.8013 155.126 66.9187 158.155L71.1 153.852ZM68.2994 146.694C68.2994 143.647 69.2727 141.346 71.1353 139.535L66.9534 135.233C63.8227 138.276 62.2994 142.18 62.2994 146.694H68.2994ZM71.1456 139.525C73.0727 137.634 75.3363 136.709 78.1094 136.709V130.709C73.7891 130.709 70.0094 132.234 66.9432 135.243L71.1456 139.525ZM78.1094 136.709C79.58 136.709 80.812 136.931 81.846 137.321L83.9628 131.707C82.1501 131.023 80.1854 130.709 78.1094 130.709V136.709ZM81.9011 137.341C83.0355 137.744 83.8001 138.23 84.3115 138.728L88.4972 134.429C87.2353 133.201 85.6666 132.311 83.9076 131.687L81.9011 137.341ZM84.3115 138.728C85.0391 139.437 85.5747 140.117 85.9553 140.763L91.1235 137.715C90.4307 136.54 89.5429 135.448 88.4972 134.429L84.3115 138.728ZM85.9553 140.763C86.3371 141.41 86.5871 142.054 86.726 142.702L92.5928 141.445C92.3116 140.133 91.815 138.888 91.1235 137.715L85.9553 140.763ZM88.7569 139.213L83.5419 140.858L85.3468 146.58L90.5618 144.935L88.7569 139.213ZM87.3628 143.024C87.1802 142.257 86.8921 141.527 86.513 140.838L81.2557 143.73C81.39 143.974 81.4752 144.201 81.5259 144.414L87.3628 143.024ZM86.5419 140.892C86.1307 140.107 85.5897 139.394 84.9718 138.745L80.627 142.883C80.9424 143.214 81.1247 143.481 81.2269 143.676L86.5419 140.892ZM85.0192 138.796C84.1579 137.848 83.0728 137.205 81.9189 136.777L79.8298 142.401C80.3093 142.579 80.5075 142.753 80.5795 142.832L85.0192 138.796ZM81.9885 136.803C80.7635 136.313 79.4548 136.099 78.1094 136.099V142.099C78.8172 142.099 79.3519 142.211 79.7602 142.374L81.9885 136.803ZM78.1094 136.099C75.4464 136.099 73.0784 137.078 71.1261 138.902L75.2226 143.286C76.117 142.45 77.039 142.099 78.1094 142.099V136.099ZM71.1456 138.884C68.9521 140.898 68.0394 143.657 68.0394 146.694H74.0394C74.0394 144.877 74.5499 143.904 75.2032 143.304L71.1456 138.884ZM68.0394 146.694C68.0394 149.613 68.9803 152.236 71.0731 154.224L75.2056 149.874C74.4984 149.202 74.0394 148.255 74.0394 146.694H68.0394ZM71.0731 154.224C73.0399 156.092 75.4632 157.044 78.1794 157.044V151.044C76.9756 151.044 76.0388 150.665 75.2056 149.874L71.0731 154.224ZM78.1794 157.044C80.5769 157.044 82.8745 156.439 84.6448 154.826L80.6039 150.391C80.2742 150.692 79.6085 151.044 78.1794 151.044V157.044ZM84.6448 154.826C86.0497 153.547 87.0838 151.999 87.5823 150.183L81.7964 148.595C81.6417 149.158 81.2991 149.758 80.6039 150.391L84.6448 154.826ZM83.8677 152.274L89.1527 153.779L90.796 148.009L85.511 146.504L83.8677 152.274ZM87.0598 150.183C86.8995 150.84 86.6273 151.523 86.2186 152.233L91.4201 155.224C92.0848 154.068 92.5826 152.861 92.8889 151.605L87.0598 150.183ZM86.1907 152.283C85.8387 152.923 85.313 153.623 84.563 154.373L88.8057 158.615C89.8757 157.545 90.7734 156.401 91.448 155.175L86.1907 152.283ZM84.5357 154.4C84.0148 154.935 83.2188 155.472 82.0228 155.94L84.2059 161.528C85.9966 160.829 87.5806 159.873 88.8331 158.587L84.5357 154.4ZM82.0464 155.93C80.9665 156.342 79.6908 156.574 78.1794 156.574V162.574C80.3079 162.574 82.3222 162.246 84.1824 161.537L82.0464 155.93ZM109.199 159.049L106.371 160.05L107.079 162.049H109.199V159.049ZM107.414 154.009L110.242 153.007L109.534 151.009H107.414V154.009ZM97.8242 154.009V151.009H95.7041L94.9963 153.007L97.8242 154.009ZM96.0392 159.049V162.049H98.1593L98.8671 160.05L96.0392 159.049ZM90.2292 159.049L87.4217 157.992L85.8938 162.049H90.2292V159.049ZM99.5742 134.234V131.234H97.4983L96.7667 133.177L99.5742 134.234ZM105.979 134.234L108.791 133.187L108.063 131.234H105.979V134.234ZM115.219 159.049V162.049H119.538L118.031 158.002L115.219 159.049ZM102.689 140.394L105.523 139.411L102.722 131.336L99.8622 139.39L102.689 140.394ZM99.6442 148.969L96.8172 147.965L95.3954 151.969H99.6442V148.969ZM105.664 148.969V151.969H109.88L108.498 147.986L105.664 148.969ZM112.027 158.047L110.242 153.007L104.586 155.01L106.371 160.05L112.027 158.047ZM107.414 151.009H97.8242V157.009H107.414V151.009ZM94.9963 153.007L93.2113 158.047L98.8671 160.05L100.652 155.01L94.9963 153.007ZM96.0392 156.049H90.2292V162.049H96.0392V156.049ZM93.0367 160.106L102.382 135.291L96.7667 133.177L87.4217 157.992L93.0367 160.106ZM99.5742 137.234H105.979V131.234H99.5742V137.234ZM103.168 135.281L112.408 160.096L118.031 158.002L108.791 133.187L103.168 135.281ZM115.219 156.049H109.199V162.049H115.219V156.049ZM99.8622 139.39L96.8172 147.965L102.471 149.973L105.516 141.398L99.8622 139.39ZM99.6442 151.969H105.664V145.969H99.6442V151.969ZM108.498 147.986L105.523 139.411L99.8549 141.377L102.83 149.952L108.498 147.986ZM134.517 159.049V162.049H137.517V159.049H134.517ZM118.277 159.049H115.277V162.049H118.277V159.049ZM118.277 134.234V131.234H115.277V134.234H118.277ZM123.807 134.234H126.807V131.234H123.807V134.234ZM123.807 153.764H120.807V156.764H123.807V153.764ZM134.517 153.764H137.517V150.764H134.517V153.764ZM134.517 156.049H118.277V162.049H134.517V156.049ZM121.277 159.049V134.234H115.277V159.049H121.277ZM118.277 137.234H123.807V131.234H118.277V137.234ZM120.807 134.234V153.764H126.807V134.234H120.807ZM123.807 156.764H134.517V150.764H123.807V156.764ZM131.517 153.764V159.049H137.517V153.764H131.517ZM153.852 159.049V162.049H156.852V159.049H153.852ZM138.102 159.049H135.102V162.049H138.102V159.049ZM138.102 134.234V131.234H135.102V134.234H138.102ZM153.817 134.234H156.817V131.234H153.817V134.234ZM153.817 139.449V142.449H156.817V139.449H153.817ZM143.632 139.449V136.449H140.632V139.449H143.632ZM143.632 144.174H140.632V147.174H143.632V144.174ZM152.872 144.174H155.872V141.174H152.872V144.174ZM152.872 149.039V152.039H155.872V149.039H152.872ZM143.632 149.039V146.039H140.632V149.039H143.632ZM143.632 153.799H140.632V156.799H143.632V153.799ZM153.852 153.799H156.852V150.799H153.852V153.799ZM153.852 156.049H138.102V162.049H153.852V156.049ZM141.102 159.049V134.234H135.102V159.049H141.102ZM138.102 137.234H153.817V131.234H138.102V137.234ZM150.817 134.234V139.449H156.817V134.234H150.817ZM153.817 136.449H143.632V142.449H153.817V136.449ZM140.632 139.449V144.174H146.632V139.449H140.632ZM143.632 147.174H152.872V141.174H143.632V147.174ZM149.872 144.174V149.039H155.872V144.174H149.872ZM152.872 146.039H143.632V152.039H152.872V146.039ZM140.632 149.039V153.799H146.632V149.039H140.632ZM143.632 156.799H153.852V150.799H143.632V156.799ZM150.852 153.799V159.049H156.852V153.799H150.852Z" fill="black" mask="url(#path-3-outside-1_83_3)"/>
<mask id="path-5-inside-2_83_3" fill="white">
<path fill-rule="evenodd" clip-rule="evenodd" d="M320.531 165.097C318.136 173.459 310.433 179.579 301.302 179.579H300.344L207.569 124.854L219.117 105.276L320.531 165.097Z"/>
</mask>
<path fill-rule="evenodd" clip-rule="evenodd" d="M320.531 165.097C318.136 173.459 310.433 179.579 301.302 179.579H300.344L207.569 124.854L219.117 105.276L320.531 165.097Z" fill="#E0E0E0"/>
<path d="M320.531 165.097L325.337 166.474L326.402 162.755L323.071 160.79L320.531 165.097ZM300.344 179.579L297.804 183.886L298.979 184.579H300.344V179.579ZM207.569 124.854L203.262 122.314L200.722 126.62L205.028 129.161L207.569 124.854ZM219.117 105.276L221.657 100.97L217.351 98.4293L214.81 102.736L219.117 105.276ZM315.724 163.72C313.927 169.995 308.143 174.579 301.302 174.579V184.579C312.724 184.579 322.345 176.924 325.337 166.474L315.724 163.72ZM301.302 174.579H300.344V184.579H301.302V174.579ZM302.884 175.273L210.109 120.548L205.028 129.161L297.804 183.886L302.884 175.273ZM211.875 127.394L223.424 107.817L214.81 102.736L203.262 122.314L211.875 127.394ZM216.577 109.583L317.99 169.404L323.071 160.79L221.657 100.97L216.577 109.583Z" fill="black" mask="url(#path-5-inside-2_83_3)"/>
<path d="M216.5 139.257L233.624 111.268C233.624 111.268 237.746 102.935 235.48 97.3646C233.26 91.9089 223.988 86.7407 223.988 86.7407C217.535 83.698 203.363 76.9714 198.302 74.407C193.24 71.8426 189.058 74.5406 187.599 76.2101C186.141 77.8796 175.979 100.652 175.979 100.652L182.791 105.861L160.953 92.0372C160.953 92.0372 156.741 90.0297 153.541 94.2409C151.167 97.3647 153.541 100.652 153.541 100.652L196.889 131.307L182.791 134.702C182.791 134.702 178.264 136.78 179.529 141.405C181.35 148.065 187.599 146.218 187.599 146.218L216.5 139.257Z" fill="black" fill-opacity="0.3"/>
<path d="M50.0392 58.9939L66.4452 87.4099C66.4452 87.4099 71.7961 95.0131 77.7721 95.6836C83.6253 96.3403 92.5959 90.6639 92.5959 90.6639C98.3521 86.4489 111.032 77.2136 115.703 73.9926C120.374 70.7715 120.003 65.8082 119.233 63.7292C118.463 61.6502 103.313 41.8431 103.313 41.8431L118.061 32.7595C118.061 32.7595 121.837 30.018 119.666 25.1946C118.057 21.6167 114.035 22.1315 114.035 22.1315L66.3934 45.5648L70.1466 31.5579C70.1466 31.5579 70.4841 26.5887 65.8167 25.4899C59.0963 23.9077 57.7331 30.2798 57.7331 30.2798L50.0392 58.9939Z" fill="black" fill-opacity="0.3"/>
<path d="M207.36 134.602L224.484 106.613C224.484 106.613 228.606 98.2797 226.34 92.7096C224.12 87.2539 214.847 82.0857 214.847 82.0857C208.394 79.0429 194.223 72.3164 189.162 69.752C184.1 67.1876 179.918 69.8855 178.459 71.5551C177 73.2246 166.839 95.997 166.839 95.997L173.651 101.206L151.813 87.3822C151.813 87.3822 147.601 85.3747 144.4 89.5859C142.026 92.7097 144.4 95.997 144.4 95.997L187.749 126.652L173.651 130.047C173.651 130.047 169.124 132.125 170.389 136.75C172.21 143.41 178.459 141.563 178.459 141.563L207.36 134.602Z" fill="white" stroke="black" stroke-width="5"/>
<mask id="path-10-inside-3_83_3" fill="white">
<path fill-rule="evenodd" clip-rule="evenodd" d="M0.100586 115.847V89.7399L65.5952 52.7377L76.776 72.5279L0.100586 115.847Z"/>
</mask>
<path fill-rule="evenodd" clip-rule="evenodd" d="M0.100586 115.847V89.7399L65.5952 52.7377L76.776 72.5279L0.100586 115.847Z" fill="#D9D9D9"/>
<path d="M0.100586 115.847H-4.89941V124.414L2.56004 120.2L0.100586 115.847ZM0.100586 89.7399L-2.35887 85.3866L-4.89941 86.822V89.7399H0.100586ZM65.5952 52.7377L69.9485 50.2782L67.4891 45.925L63.1358 48.3844L65.5952 52.7377ZM76.776 72.5279L79.2355 76.8812L83.5887 74.4217L81.1293 70.0684L76.776 72.5279ZM5.10059 115.847V89.7399H-4.89941V115.847H5.10059ZM2.56004 94.0932L68.0547 57.091L63.1358 48.3844L-2.35887 85.3866L2.56004 94.0932ZM61.242 55.1972L72.4227 74.9873L81.1293 70.0684L69.9485 50.2782L61.242 55.1972ZM74.3165 68.1746L-2.35887 111.494L2.56004 120.2L79.2355 76.8812L74.3165 68.1746Z" fill="black" mask="url(#path-10-inside-3_83_3)"/>
<path fill-rule="evenodd" clip-rule="evenodd" d="M56.1701 85.2986L40.4927 56.4742L48.915 27.9652C48.915 27.9652 49.677 24.7992 52.4829 23.5626H57.6963C61.7161 25.0232 61.2919 29.5588 61.2919 29.5588L57.1834 43.4657L100.391 23.5626H110.483C110.659 23.8296 110.819 24.1269 110.958 24.458C113.005 29.3351 109.16 31.9795 109.16 31.9795L86.2691 43.9794L94.1862 40.6849C94.1862 40.6849 108.827 60.8711 109.544 62.9691C110.26 65.067 110.505 70.0382 105.754 73.1393C101.002 76.2404 88.0912 85.1499 82.2296 89.2171C82.2296 89.2171 73.1174 94.6633 67.2828 93.8578C61.3257 93.0354 56.1701 85.2986 56.1701 85.2986Z" fill="white"/>
<path d="M40.4927 56.4742L38.0951 55.7659L37.8017 56.759L38.2965 57.6686L40.4927 56.4742ZM56.1701 85.2986L53.974 86.4931L54.0275 86.5916L54.0897 86.6849L56.1701 85.2986ZM48.915 27.9652L51.3125 28.6735L51.3306 28.6123L51.3455 28.5502L48.915 27.9652ZM52.4829 23.5626V21.0626H51.9564L51.4747 21.2749L52.4829 23.5626ZM57.6963 23.5626L58.5501 21.2129L58.1365 21.0626H57.6963V23.5626ZM61.2919 29.5588L63.6894 30.2671L63.7584 30.0338L63.781 29.7916L61.2919 29.5588ZM57.1834 43.4657L54.7859 42.7574L53.2248 48.0417L58.2294 45.7364L57.1834 43.4657ZM100.391 23.5626V21.0626H99.8424L99.3446 21.2919L100.391 23.5626ZM110.483 23.5626L112.57 22.1862L111.829 21.0626H110.483V23.5626ZM110.958 24.458L113.263 23.4905L113.263 23.4905L110.958 24.458ZM109.16 31.9795L110.321 34.1937L110.453 34.1242L110.577 34.0393L109.16 31.9795ZM86.2691 43.9794L85.1084 41.7652L87.2296 46.2876L86.2691 43.9794ZM94.1862 40.6849L96.21 39.2171L95.0499 37.6176L93.2257 38.3767L94.1862 40.6849ZM105.754 73.1393L107.12 75.2328L107.12 75.2328L105.754 73.1393ZM82.2296 89.2171L83.5121 91.363L83.585 91.3194L83.6547 91.271L82.2296 89.2171ZM67.2828 93.8578L66.9409 96.3343L66.9409 96.3343L67.2828 93.8578ZM38.2965 57.6686L53.974 86.4931L58.3663 84.1041L42.6889 55.2797L38.2965 57.6686ZM46.5174 27.2569L38.0951 55.7659L42.8902 57.1825L51.3125 28.6735L46.5174 27.2569ZM51.4747 21.2749C49.4147 22.1827 48.175 23.7657 47.4767 24.9862C47.1216 25.6068 46.8822 26.175 46.7292 26.5947C46.6521 26.806 46.5954 26.984 46.5558 27.1177C46.536 27.1846 46.5204 27.2408 46.5087 27.2849C46.5028 27.307 46.4979 27.326 46.4938 27.342C46.4918 27.3499 46.49 27.3571 46.4884 27.3635C46.4877 27.3666 46.4869 27.3696 46.4862 27.3724C46.4859 27.3738 46.4856 27.3751 46.4853 27.3764C46.4851 27.3771 46.4849 27.378 46.4848 27.3783C46.4846 27.3792 46.4844 27.3801 48.915 27.9652C51.3455 28.5502 51.3453 28.5511 51.3451 28.552C51.345 28.5522 51.3448 28.5531 51.3447 28.5536C51.3444 28.5547 51.3442 28.5558 51.3439 28.5568C51.3435 28.5588 51.343 28.5606 51.3426 28.5623C51.3418 28.5656 51.3411 28.5682 51.3406 28.5701C51.3397 28.574 51.3393 28.5751 51.3397 28.5737C51.3405 28.5708 51.344 28.5578 51.3505 28.5357C51.3636 28.4914 51.3884 28.4124 51.4266 28.3077C51.5041 28.0951 51.6305 27.7944 51.8167 27.469C52.2009 26.7974 52.7451 26.179 53.4911 25.8503L51.4747 21.2749ZM52.4829 26.0626H57.6963V21.0626H52.4829V26.0626ZM61.2919 29.5588C63.781 29.7916 63.7811 29.7905 63.7812 29.7894C63.7813 29.789 63.7814 29.7878 63.7814 29.787C63.7816 29.7854 63.7817 29.7837 63.7819 29.7819C63.7822 29.7784 63.7826 29.7746 63.7829 29.7704C63.7836 29.7622 63.7844 29.7528 63.7852 29.7422C63.7869 29.7212 63.7888 29.6955 63.7907 29.6655C63.7945 29.6056 63.7984 29.528 63.8012 29.4349C63.8067 29.2492 63.8075 28.9984 63.7921 28.6989C63.7617 28.1073 63.6661 27.2866 63.3954 26.3876C62.843 24.553 61.5074 22.2874 58.5501 21.2129L56.8426 25.9123C57.9051 26.2984 58.3673 27.0309 58.6077 27.8292C58.7334 28.2467 58.783 28.6512 58.7987 28.9557C58.8063 29.1043 58.8054 29.2191 58.8034 29.2872C58.8024 29.321 58.8011 29.3423 58.8007 29.3495C58.8004 29.3531 58.8004 29.3531 58.8007 29.3493C58.8009 29.3474 58.8011 29.3445 58.8014 29.3406C58.8016 29.3387 58.8018 29.3365 58.802 29.334C58.8021 29.3328 58.8022 29.3315 58.8024 29.3302C58.8024 29.3295 58.8025 29.3285 58.8025 29.3281C58.8026 29.3271 58.8027 29.326 61.2919 29.5588ZM59.581 44.174L63.6894 30.2671L58.8943 28.8505L54.7859 42.7574L59.581 44.174ZM99.3446 21.2919L56.1375 41.195L58.2294 45.7364L101.437 25.8333L99.3446 21.2919ZM100.391 26.0626H110.483V21.0626H100.391V26.0626ZM113.263 23.4905C113.065 23.0196 112.833 22.5851 112.57 22.1862L108.396 24.9389C108.485 25.0741 108.572 25.2342 108.652 25.4255L113.263 23.4905ZM109.16 31.9795C110.577 34.0393 110.578 34.0386 110.579 34.0378C110.579 34.0375 110.58 34.0367 110.581 34.0361C110.583 34.035 110.584 34.0339 110.586 34.0327C110.59 34.0303 110.593 34.0277 110.597 34.0249C110.605 34.0193 110.614 34.013 110.624 34.006C110.644 33.992 110.667 33.975 110.694 33.9551C110.747 33.9153 110.815 33.8635 110.894 33.7998C111.051 33.6728 111.255 33.496 111.484 33.2696C111.939 32.821 112.518 32.1519 113.012 31.2609C114.047 29.396 114.615 26.7123 113.263 23.4905L108.652 25.4255C109.347 27.0808 109.016 28.1578 108.64 28.8344C108.43 29.2142 108.175 29.511 107.973 29.7106C107.874 29.8084 107.794 29.8763 107.748 29.9129C107.726 29.9311 107.713 29.9409 107.711 29.9422C107.71 29.9428 107.712 29.9413 107.717 29.9376C107.72 29.9357 107.724 29.9333 107.728 29.9303C107.73 29.9288 107.732 29.9272 107.735 29.9254C107.736 29.9246 107.737 29.9236 107.739 29.9227C107.739 29.9222 107.74 29.9215 107.741 29.9212C107.742 29.9205 107.743 29.9197 109.16 31.9795ZM87.4299 46.1936L110.321 34.1937L107.999 29.7653L85.1084 41.7652L87.4299 46.1936ZM93.2257 38.3767L85.3086 41.6713L87.2296 46.2876L95.1467 42.993L93.2257 38.3767ZM111.909 62.161C111.785 61.7979 111.586 61.4249 111.437 61.1562C111.263 60.8435 111.045 60.481 110.8 60.0874C110.308 59.2977 109.658 58.3089 108.915 57.2055C107.426 54.9949 105.516 52.2571 103.638 49.5979C101.758 46.936 99.9012 44.3412 98.5151 42.4127C97.8218 41.4481 97.2459 40.6498 96.8432 40.0923C96.6418 39.8136 96.4837 39.595 96.3758 39.446C96.3219 39.3715 96.2805 39.3144 96.2526 39.2759C96.2386 39.2566 96.228 39.242 96.2209 39.2321C96.2173 39.2272 96.2146 39.2235 96.2128 39.2209C96.2119 39.2197 96.2112 39.2187 96.2107 39.2181C96.2105 39.2178 96.2103 39.2175 96.2102 39.2173C96.21 39.2172 96.21 39.2171 94.1862 40.6849C92.1625 42.1526 92.1625 42.1527 92.1626 42.1528C92.1627 42.153 92.1628 42.1532 92.163 42.1535C92.1635 42.154 92.1641 42.1549 92.165 42.1561C92.1667 42.1585 92.1693 42.1621 92.1728 42.1669C92.1797 42.1764 92.1901 42.1908 92.2039 42.2098C92.2314 42.2477 92.2723 42.3042 92.3258 42.3781C92.4327 42.5258 92.5899 42.743 92.7902 43.0204C93.1909 43.575 93.7644 44.3701 94.455 45.3308C95.8364 47.2528 97.6846 49.8357 99.5542 52.4826C101.426 55.1322 103.31 57.8343 104.768 59.9987C105.498 61.0828 106.11 62.0152 106.556 62.7311C106.78 63.0901 106.95 63.3765 107.069 63.5899C107.213 63.8475 107.212 63.878 107.178 63.7772L111.909 62.161ZM107.12 75.2328C113.165 71.2878 112.848 64.9084 111.909 62.161L107.178 63.7772C107.672 65.2256 107.846 68.7885 104.387 71.0457L107.12 75.2328ZM83.6547 91.271C89.5281 87.1957 102.405 78.31 107.12 75.2328L104.387 71.0457C99.5992 74.1707 86.6542 83.1041 80.8044 87.1631L83.6547 91.271ZM66.9409 96.3343C70.5875 96.8377 74.8799 95.4158 77.9108 94.145C79.4989 93.4792 80.8881 92.7897 81.8797 92.2673C82.3769 92.0055 82.7776 91.7838 83.0572 91.6256C83.1972 91.5465 83.307 91.4831 83.3838 91.4384C83.4222 91.4161 83.4524 91.3984 83.4739 91.3857C83.4846 91.3793 83.4932 91.3742 83.4996 91.3704C83.5028 91.3685 83.5055 91.367 83.5075 91.3657C83.5086 91.3651 83.5095 91.3646 83.5103 91.3641C83.5106 91.3639 83.5111 91.3636 83.5113 91.3635C83.5117 91.3632 83.5121 91.363 82.2296 89.2171C80.947 87.0711 80.9473 87.0709 80.9476 87.0708C80.9476 87.0707 80.9479 87.0706 80.948 87.0705C80.9482 87.0704 80.9483 87.0703 80.9482 87.0704C80.9481 87.0705 80.9474 87.0709 80.9462 87.0716C80.9438 87.073 80.9393 87.0757 80.9326 87.0796C80.9193 87.0875 80.8975 87.1003 80.8678 87.1176C80.8082 87.1523 80.7166 87.2051 80.596 87.2734C80.3546 87.4099 79.9978 87.6074 79.5495 87.8435C78.6502 88.3172 77.3967 88.9389 75.9775 89.5339C72.9936 90.7849 69.8126 91.6833 67.6246 91.3813L66.9409 96.3343ZM56.1701 85.2986C54.0897 86.6849 54.0901 86.6854 54.0904 86.686C54.0906 86.6862 54.091 86.6868 54.0913 86.6872C54.0919 86.6881 54.0925 86.6891 54.0933 86.6903C54.0948 86.6925 54.0967 86.6953 54.0988 86.6985C54.1031 86.7049 54.1087 86.7131 54.1155 86.7232C54.1292 86.7434 54.1478 86.7707 54.1714 86.8049C54.2185 86.8732 54.2852 86.9688 54.3705 87.0879C54.541 87.326 54.7864 87.6595 55.0983 88.0589C55.7197 88.8546 56.6173 89.9282 57.7233 91.0361C59.8407 93.1571 63.1133 95.8059 66.9409 96.3343L67.6246 91.3813C65.4952 91.0873 63.2115 89.4565 61.2618 87.5035C60.3343 86.5744 59.5707 85.6623 59.0392 84.9817C58.7747 84.6429 58.5708 84.3655 58.436 84.1773C58.3687 84.0833 58.3189 84.0118 58.2876 83.9664C58.2719 83.9437 58.2609 83.9276 58.2547 83.9184C58.2516 83.9138 58.2497 83.9109 58.249 83.9099C58.2486 83.9094 58.2486 83.9093 58.2488 83.9097C58.249 83.9099 58.2492 83.9102 58.2495 83.9106C58.2496 83.9108 58.2499 83.9112 58.2499 83.9114C58.2502 83.9118 58.2505 83.9122 56.1701 85.2986Z" fill="black"/>
</svg>
