<svg width="322" height="186" viewBox="0 0 322 186" fill="none" xmlns="http://www.w3.org/2000/svg">
<rect x="11.1007" y="38.1209" width="299.201" height="147.703" rx="20" fill="#D8D8D8"/>
<path d="M20.1005 23.5164H301.302C310.967 23.5164 318.802 31.3515 318.802 41.0165V159.579C318.802 169.244 310.967 177.079 301.302 177.079H20.1005C10.4355 177.079 2.60052 169.244 2.60052 159.579V41.0165C2.60052 31.3515 10.4355 23.5164 20.1005 23.5164Z" fill="#FF5454" stroke="black" stroke-width="5"/>
<mask id="path-3-outside-1_17_21" maskUnits="userSpaceOnUse" x="16.4954" y="127.049" width="135" height="36" fill="black">
<rect fill="white" x="16.4954" y="127.049" width="135" height="36"/>
<path d="M38.1354 159.049H19.5754V130.689H25.8954V153.009H38.1354V159.049ZM45.6876 144.849C45.6876 150.769 49.9276 153.409 53.8876 153.409C57.8076 153.409 62.0476 150.769 62.0476 144.849C62.0476 138.929 57.8076 136.249 53.8876 136.249C49.9276 136.249 45.6876 138.929 45.6876 144.849ZM39.1276 144.889C39.1276 135.889 45.8876 130.089 53.8876 130.089C61.8476 130.089 68.6076 135.889 68.6076 144.889C68.6076 153.849 61.8476 159.649 53.8876 159.649C45.8876 159.649 39.1276 153.849 39.1276 144.889ZM85.3914 159.649C77.2314 159.649 70.6714 153.769 70.6714 144.929C70.6714 136.089 77.3914 130.089 85.3114 130.089C93.8314 130.089 97.5914 135.569 98.5114 139.649L92.5514 141.529C92.1114 139.569 90.3114 136.249 85.3114 136.249C81.5114 136.249 77.2314 138.969 77.2314 144.929C77.2314 150.249 81.1514 153.329 85.3914 153.329C90.3114 153.329 92.2714 150.049 92.8314 148.009L98.8714 149.729C97.9514 153.649 94.1914 159.649 85.3914 159.649ZM120.043 159.049L118.003 153.289H107.043L105.003 159.049H98.3626L109.043 130.689H116.363L126.923 159.049H120.043ZM112.603 137.729L109.123 147.529H116.003L112.603 137.729ZM148.178 159.049H129.618V130.689H135.938V153.009H148.178V159.049Z"/>
</mask>
<path d="M38.1354 159.049H19.5754V130.689H25.8954V153.009H38.1354V159.049ZM45.6876 144.849C45.6876 150.769 49.9276 153.409 53.8876 153.409C57.8076 153.409 62.0476 150.769 62.0476 144.849C62.0476 138.929 57.8076 136.249 53.8876 136.249C49.9276 136.249 45.6876 138.929 45.6876 144.849ZM39.1276 144.889C39.1276 135.889 45.8876 130.089 53.8876 130.089C61.8476 130.089 68.6076 135.889 68.6076 144.889C68.6076 153.849 61.8476 159.649 53.8876 159.649C45.8876 159.649 39.1276 153.849 39.1276 144.889ZM85.3914 159.649C77.2314 159.649 70.6714 153.769 70.6714 144.929C70.6714 136.089 77.3914 130.089 85.3114 130.089C93.8314 130.089 97.5914 135.569 98.5114 139.649L92.5514 141.529C92.1114 139.569 90.3114 136.249 85.3114 136.249C81.5114 136.249 77.2314 138.969 77.2314 144.929C77.2314 150.249 81.1514 153.329 85.3914 153.329C90.3114 153.329 92.2714 150.049 92.8314 148.009L98.8714 149.729C97.9514 153.649 94.1914 159.649 85.3914 159.649ZM120.043 159.049L118.003 153.289H107.043L105.003 159.049H98.3626L109.043 130.689H116.363L126.923 159.049H120.043ZM112.603 137.729L109.123 147.529H116.003L112.603 137.729ZM148.178 159.049H129.618V130.689H135.938V153.009H148.178V159.049Z" fill="#FEFEFE"/>
<path d="M38.1354 159.049V162.049H41.1354V159.049H38.1354ZM19.5754 159.049H16.5754V162.049H19.5754V159.049ZM19.5754 130.689V127.689H16.5754V130.689H19.5754ZM25.8954 130.689H28.8954V127.689H25.8954V130.689ZM25.8954 153.009H22.8954V156.009H25.8954V153.009ZM38.1354 153.009H41.1354V150.009H38.1354V153.009ZM38.1354 156.049H19.5754V162.049H38.1354V156.049ZM22.5754 159.049V130.689H16.5754V159.049H22.5754ZM19.5754 133.689H25.8954V127.689H19.5754V133.689ZM22.8954 130.689V153.009H28.8954V130.689H22.8954ZM25.8954 156.009H38.1354V150.009H25.8954V156.009ZM35.1354 153.009V159.049H41.1354V153.009H35.1354ZM42.6876 144.849C42.6876 148.585 44.055 151.561 46.2953 153.578C48.476 155.542 51.2735 156.409 53.8876 156.409V150.409C52.5417 150.409 51.2392 149.956 50.3099 149.119C49.4402 148.336 48.6876 147.033 48.6876 144.849H42.6876ZM53.8876 156.409C56.4882 156.409 59.2756 155.538 61.4485 153.575C63.6806 151.559 65.0476 148.584 65.0476 144.849H59.0476C59.0476 147.034 58.2946 148.339 57.4268 149.123C56.4996 149.96 55.207 150.409 53.8876 150.409V156.409ZM65.0476 144.849C65.0476 141.115 63.6819 138.134 61.4563 136.11C59.2879 134.137 56.4997 133.249 53.8876 133.249V139.249C55.1956 139.249 56.4874 139.701 57.4189 140.548C58.2934 141.344 59.0476 142.663 59.0476 144.849H65.0476ZM53.8876 133.249C51.2621 133.249 48.4638 134.133 46.2874 136.106C44.0537 138.132 42.6876 141.115 42.6876 144.849H48.6876C48.6876 142.663 49.4415 141.346 50.3178 140.551C51.2514 139.705 52.5531 139.249 53.8876 139.249V133.249ZM42.1276 144.889C42.1276 137.668 47.4196 133.089 53.8876 133.089V127.089C44.3556 127.089 36.1276 134.11 36.1276 144.889H42.1276ZM53.8876 133.089C60.3103 133.089 65.6076 137.663 65.6076 144.889H71.6076C71.6076 134.115 63.385 127.089 53.8876 127.089V133.089ZM65.6076 144.889C65.6076 152.07 60.3159 156.649 53.8876 156.649V162.649C63.3793 162.649 71.6076 155.628 71.6076 144.889H65.6076ZM53.8876 156.649C47.414 156.649 42.1276 152.064 42.1276 144.889H36.1276C36.1276 155.633 44.3612 162.649 53.8876 162.649V156.649ZM98.5114 139.649L99.4138 142.51L102.045 141.68L101.438 138.989L98.5114 139.649ZM92.5514 141.529L89.6242 142.186L90.3395 145.372L93.4538 144.39L92.5514 141.529ZM92.8314 148.009L93.653 145.124L90.7401 144.294L89.9384 147.215L92.8314 148.009ZM98.8714 149.729L101.792 150.414L102.446 147.628L99.693 146.844L98.8714 149.729ZM85.3914 156.649C78.7956 156.649 73.6714 152.021 73.6714 144.929H67.6714C67.6714 155.517 75.6671 162.649 85.3914 162.649V156.649ZM73.6714 144.929C73.6714 137.815 78.9781 133.089 85.3114 133.089V127.089C75.8046 127.089 67.6714 134.363 67.6714 144.929H73.6714ZM85.3114 133.089C92.1762 133.089 94.9142 137.334 95.5848 140.309L101.438 138.989C100.269 133.803 95.4865 127.089 85.3114 127.089V133.089ZM97.6089 136.788L91.6489 138.668L93.4538 144.39L99.4138 142.51L97.6089 136.788ZM95.4785 140.872C95.1586 139.447 94.3592 137.55 92.7091 135.98C90.993 134.348 88.541 133.249 85.3114 133.249V139.249C87.0817 139.249 88.0297 139.81 88.5736 140.327C89.1835 140.908 89.5042 141.651 89.6242 142.186L95.4785 140.872ZM85.3114 133.249C82.7291 133.249 79.9619 134.166 77.8124 136.149C75.6071 138.183 74.2314 141.174 74.2314 144.929H80.2314C80.2314 142.724 80.9956 141.375 81.8803 140.559C82.8209 139.692 84.0936 139.249 85.3114 139.249V133.249ZM74.2314 144.929C74.2314 152.048 79.6404 156.329 85.3914 156.329V150.329C82.6624 150.329 80.2314 148.45 80.2314 144.929H74.2314ZM85.3914 156.329C88.5834 156.329 91.0305 155.24 92.7714 153.647C94.4512 152.11 95.3295 150.242 95.7243 148.803L89.9384 147.215C89.7733 147.816 89.3915 148.607 88.7213 149.22C88.1122 149.778 87.1194 150.329 85.3914 150.329V156.329ZM92.0097 150.894L98.0497 152.614L99.693 146.844L93.653 145.124L92.0097 150.894ZM95.9507 149.043C95.2568 152 92.4321 156.649 85.3914 156.649V162.649C95.9507 162.649 100.646 155.298 101.792 150.414L95.9507 149.043ZM120.043 159.049L117.215 160.05L117.923 162.049H120.043V159.049ZM118.003 153.289L120.83 152.287L120.123 150.289H118.003V153.289ZM107.043 153.289V150.289H104.923L104.215 152.287L107.043 153.289ZM105.003 159.049V162.049H107.123L107.83 160.05L105.003 159.049ZM98.3626 159.049L95.5551 157.992L94.0272 162.049H98.3626V159.049ZM109.043 130.689V127.689H106.967L106.235 129.632L109.043 130.689ZM116.363 130.689L119.174 129.642L118.447 127.689H116.363V130.689ZM126.923 159.049V162.049H131.241L129.734 158.002L126.923 159.049ZM112.603 137.729L115.437 136.746L112.636 128.671L109.776 136.725L112.603 137.729ZM109.123 147.529L106.296 146.525L104.874 150.529H109.123V147.529ZM116.003 147.529V150.529H120.219L118.837 146.546L116.003 147.529ZM122.87 158.047L120.83 152.287L115.175 154.29L117.215 160.05L122.87 158.047ZM118.003 150.289H107.043V156.289H118.003V150.289ZM104.215 152.287L102.175 158.047L107.83 160.05L109.87 154.29L104.215 152.287ZM105.003 156.049H98.3626V162.049H105.003V156.049ZM101.17 160.106L111.85 131.746L106.235 129.632L95.5551 157.992L101.17 160.106ZM109.043 133.689H116.363V127.689H109.043V133.689ZM113.551 131.736L124.111 160.096L129.734 158.002L119.174 129.642L113.551 131.736ZM126.923 156.049H120.043V162.049H126.923V156.049ZM109.776 136.725L106.296 146.525L111.95 148.533L115.43 138.733L109.776 136.725ZM109.123 150.529H116.003V144.529H109.123V150.529ZM118.837 146.546L115.437 136.746L109.768 138.712L113.168 148.512L118.837 146.546ZM148.178 159.049V162.049H151.178V159.049H148.178ZM129.618 159.049H126.618V162.049H129.618V159.049ZM129.618 130.689V127.689H126.618V130.689H129.618ZM135.938 130.689H138.938V127.689H135.938V130.689ZM135.938 153.009H132.938V156.009H135.938V153.009ZM148.178 153.009H151.178V150.009H148.178V153.009ZM148.178 156.049H129.618V162.049H148.178V156.049ZM132.618 159.049V130.689H126.618V159.049H132.618ZM129.618 133.689H135.938V127.689H129.618V133.689ZM132.938 130.689V153.009H138.938V130.689H132.938ZM135.938 156.009H148.178V150.009H135.938V156.009ZM145.178 153.009V159.049H151.178V153.009H145.178Z" fill="black" mask="url(#path-3-outside-1_17_21)"/>
<mask id="path-5-inside-2_17_21" fill="white">
<path fill-rule="evenodd" clip-rule="evenodd" d="M320.531 165.097C318.136 173.459 310.433 179.579 301.302 179.579H300.344L207.569 124.854L219.117 105.276L320.531 165.097Z"/>
</mask>
<path fill-rule="evenodd" clip-rule="evenodd" d="M320.531 165.097C318.136 173.459 310.433 179.579 301.302 179.579H300.344L207.569 124.854L219.117 105.276L320.531 165.097Z" fill="#E0E0E0"/>
<path d="M320.531 165.097L325.337 166.474L326.402 162.755L323.071 160.79L320.531 165.097ZM300.344 179.579L297.804 183.886L298.979 184.579H300.344V179.579ZM207.569 124.854L203.262 122.314L200.722 126.62L205.028 129.161L207.569 124.854ZM219.117 105.276L221.657 100.97L217.351 98.4293L214.81 102.736L219.117 105.276ZM315.724 163.72C313.927 169.995 308.143 174.579 301.302 174.579V184.579C312.724 184.579 322.345 176.924 325.337 166.474L315.724 163.72ZM301.302 174.579H300.344V184.579H301.302V174.579ZM302.884 175.273L210.109 120.548L205.028 129.161L297.804 183.886L302.884 175.273ZM211.875 127.394L223.424 107.817L214.81 102.736L203.262 122.314L211.875 127.394ZM216.577 109.583L317.99 169.404L323.071 160.79L221.657 100.97L216.577 109.583Z" fill="black" mask="url(#path-5-inside-2_17_21)"/>
<path d="M216.5 139.257L233.624 111.268C233.624 111.268 237.746 102.935 235.48 97.3646C233.26 91.9089 223.988 86.7407 223.988 86.7407C217.535 83.698 203.363 76.9714 198.302 74.407C193.24 71.8426 189.058 74.5406 187.599 76.2101C186.141 77.8796 175.979 100.652 175.979 100.652L182.791 105.861L160.953 92.0372C160.953 92.0372 156.741 90.0297 153.541 94.2409C151.167 97.3647 153.541 100.652 153.541 100.652L196.889 131.307L182.791 134.702C182.791 134.702 178.264 136.78 179.529 141.405C181.35 148.065 187.599 146.218 187.599 146.218L216.5 139.257Z" fill="black" fill-opacity="0.3"/>
<path d="M50.0392 58.9939L66.4452 87.4099C66.4452 87.4099 71.7961 95.0131 77.7721 95.6836C83.6253 96.3403 92.5959 90.6639 92.5959 90.6639C98.3521 86.4489 111.032 77.2136 115.703 73.9926C120.374 70.7715 120.003 65.8082 119.233 63.7292C118.463 61.6502 103.313 41.8431 103.313 41.8431L118.061 32.7595C118.061 32.7595 121.837 30.018 119.666 25.1946C118.057 21.6167 114.035 22.1315 114.035 22.1315L66.3934 45.5648L70.1466 31.5579C70.1466 31.5579 70.4841 26.5887 65.8167 25.4899C59.0963 23.9077 57.7331 30.2798 57.7331 30.2798L50.0392 58.9939Z" fill="black" fill-opacity="0.3"/>
<path d="M207.36 134.602L224.484 106.613C224.484 106.613 228.606 98.2797 226.34 92.7096C224.12 87.2539 214.847 82.0857 214.847 82.0857C208.394 79.0429 194.223 72.3164 189.162 69.752C184.1 67.1876 179.918 69.8855 178.459 71.5551C177 73.2246 166.839 95.997 166.839 95.997L173.651 101.206L151.813 87.3822C151.813 87.3822 147.601 85.3747 144.4 89.5859C142.026 92.7097 144.4 95.997 144.4 95.997L187.749 126.652L173.651 130.047C173.651 130.047 169.124 132.125 170.389 136.75C172.21 143.41 178.459 141.563 178.459 141.563L207.36 134.602Z" fill="white" stroke="black" stroke-width="5"/>
<mask id="path-10-inside-3_17_21" fill="white">
<path fill-rule="evenodd" clip-rule="evenodd" d="M0.100586 115.847V89.7399L65.5952 52.7377L76.776 72.5279L0.100586 115.847Z"/>
</mask>
<path fill-rule="evenodd" clip-rule="evenodd" d="M0.100586 115.847V89.7399L65.5952 52.7377L76.776 72.5279L0.100586 115.847Z" fill="#D9D9D9"/>
<path d="M0.100586 115.847H-4.89941V124.414L2.56004 120.2L0.100586 115.847ZM0.100586 89.7399L-2.35887 85.3866L-4.89941 86.822V89.7399H0.100586ZM65.5952 52.7377L69.9485 50.2782L67.4891 45.925L63.1358 48.3844L65.5952 52.7377ZM76.776 72.5279L79.2355 76.8812L83.5887 74.4217L81.1293 70.0684L76.776 72.5279ZM5.10059 115.847V89.7399H-4.89941V115.847H5.10059ZM2.56004 94.0932L68.0547 57.091L63.1358 48.3844L-2.35887 85.3866L2.56004 94.0932ZM61.242 55.1972L72.4227 74.9873L81.1293 70.0684L69.9485 50.2782L61.242 55.1972ZM74.3165 68.1746L-2.35887 111.494L2.56004 120.2L79.2355 76.8812L74.3165 68.1746Z" fill="black" mask="url(#path-10-inside-3_17_21)"/>
<path fill-rule="evenodd" clip-rule="evenodd" d="M56.1701 85.2986L40.4927 56.4742L48.915 27.9652C48.915 27.9652 49.677 24.7992 52.4829 23.5626H57.6963C61.7161 25.0232 61.2919 29.5588 61.2919 29.5588L57.1834 43.4657L100.391 23.5626H110.483C110.659 23.8296 110.819 24.1269 110.958 24.458C113.005 29.3351 109.16 31.9795 109.16 31.9795L86.2691 43.9794L94.1862 40.6849C94.1862 40.6849 108.827 60.8711 109.544 62.9691C110.26 65.067 110.505 70.0382 105.754 73.1393C101.002 76.2404 88.0912 85.1499 82.2296 89.2171C82.2296 89.2171 73.1174 94.6633 67.2828 93.8578C61.3257 93.0354 56.1701 85.2986 56.1701 85.2986Z" fill="white"/>
<path d="M40.4927 56.4742L38.0951 55.7659L37.8017 56.759L38.2965 57.6686L40.4927 56.4742ZM56.1701 85.2986L53.974 86.4931L54.0275 86.5916L54.0897 86.6849L56.1701 85.2986ZM48.915 27.9652L51.3125 28.6735L51.3306 28.6123L51.3455 28.5502L48.915 27.9652ZM52.4829 23.5626V21.0626H51.9564L51.4747 21.2749L52.4829 23.5626ZM57.6963 23.5626L58.5501 21.2129L58.1365 21.0626H57.6963V23.5626ZM61.2919 29.5588L63.6894 30.2671L63.7584 30.0338L63.781 29.7916L61.2919 29.5588ZM57.1834 43.4657L54.7859 42.7574L53.2248 48.0417L58.2294 45.7364L57.1834 43.4657ZM100.391 23.5626V21.0626H99.8424L99.3446 21.2919L100.391 23.5626ZM110.483 23.5626L112.57 22.1862L111.829 21.0626H110.483V23.5626ZM110.958 24.458L113.263 23.4905L113.263 23.4905L110.958 24.458ZM109.16 31.9795L110.321 34.1937L110.453 34.1242L110.577 34.0393L109.16 31.9795ZM86.2691 43.9794L85.1084 41.7652L87.2296 46.2876L86.2691 43.9794ZM94.1862 40.6849L96.21 39.2171L95.0499 37.6176L93.2257 38.3767L94.1862 40.6849ZM105.754 73.1393L107.12 75.2328L107.12 75.2328L105.754 73.1393ZM82.2296 89.2171L83.5121 91.363L83.585 91.3194L83.6547 91.271L82.2296 89.2171ZM67.2828 93.8578L66.9409 96.3343L66.9409 96.3343L67.2828 93.8578ZM38.2965 57.6686L53.974 86.4931L58.3663 84.1041L42.6889 55.2797L38.2965 57.6686ZM46.5174 27.2569L38.0951 55.7659L42.8902 57.1825L51.3125 28.6735L46.5174 27.2569ZM51.4747 21.2749C49.4147 22.1827 48.175 23.7657 47.4767 24.9862C47.1216 25.6068 46.8822 26.175 46.7292 26.5947C46.6521 26.806 46.5954 26.984 46.5558 27.1177C46.536 27.1846 46.5204 27.2408 46.5087 27.2849C46.5028 27.307 46.4979 27.326 46.4938 27.342C46.4918 27.3499 46.49 27.3571 46.4884 27.3635C46.4877 27.3666 46.4869 27.3696 46.4862 27.3724C46.4859 27.3738 46.4856 27.3751 46.4853 27.3764C46.4851 27.3771 46.4849 27.378 46.4848 27.3783C46.4846 27.3792 46.4844 27.3801 48.915 27.9652C51.3455 28.5502 51.3453 28.5511 51.3451 28.552C51.345 28.5522 51.3448 28.5531 51.3447 28.5536C51.3444 28.5547 51.3442 28.5558 51.3439 28.5568C51.3435 28.5588 51.343 28.5606 51.3426 28.5623C51.3418 28.5656 51.3411 28.5682 51.3406 28.5701C51.3397 28.574 51.3393 28.5751 51.3397 28.5737C51.3405 28.5708 51.344 28.5578 51.3505 28.5357C51.3636 28.4914 51.3884 28.4124 51.4266 28.3077C51.5041 28.0951 51.6305 27.7944 51.8167 27.469C52.2009 26.7974 52.7451 26.179 53.4911 25.8503L51.4747 21.2749ZM52.4829 26.0626H57.6963V21.0626H52.4829V26.0626ZM61.2919 29.5588C63.781 29.7916 63.7811 29.7905 63.7812 29.7894C63.7813 29.789 63.7814 29.7878 63.7814 29.787C63.7816 29.7854 63.7817 29.7837 63.7819 29.7819C63.7822 29.7784 63.7826 29.7746 63.7829 29.7704C63.7836 29.7622 63.7844 29.7528 63.7852 29.7422C63.7869 29.7212 63.7888 29.6955 63.7907 29.6655C63.7945 29.6056 63.7984 29.528 63.8012 29.4349C63.8067 29.2492 63.8075 28.9984 63.7921 28.6989C63.7617 28.1073 63.6661 27.2866 63.3954 26.3876C62.843 24.553 61.5074 22.2874 58.5501 21.2129L56.8426 25.9123C57.9051 26.2984 58.3673 27.0309 58.6077 27.8292C58.7334 28.2467 58.783 28.6512 58.7987 28.9557C58.8063 29.1043 58.8054 29.2191 58.8034 29.2872C58.8024 29.321 58.8011 29.3423 58.8007 29.3495C58.8004 29.3531 58.8004 29.3531 58.8007 29.3493C58.8009 29.3474 58.8011 29.3445 58.8014 29.3406C58.8016 29.3387 58.8018 29.3365 58.802 29.334C58.8021 29.3328 58.8022 29.3315 58.8024 29.3302C58.8024 29.3295 58.8025 29.3285 58.8025 29.3281C58.8026 29.3271 58.8027 29.326 61.2919 29.5588ZM59.581 44.174L63.6894 30.2671L58.8943 28.8505L54.7859 42.7574L59.581 44.174ZM99.3446 21.2919L56.1375 41.195L58.2294 45.7364L101.437 25.8333L99.3446 21.2919ZM100.391 26.0626H110.483V21.0626H100.391V26.0626ZM113.263 23.4905C113.065 23.0196 112.833 22.5851 112.57 22.1862L108.396 24.9389C108.485 25.0741 108.572 25.2342 108.652 25.4255L113.263 23.4905ZM109.16 31.9795C110.577 34.0393 110.578 34.0386 110.579 34.0378C110.579 34.0375 110.58 34.0367 110.581 34.0361C110.583 34.035 110.584 34.0339 110.586 34.0327C110.59 34.0303 110.593 34.0277 110.597 34.0249C110.605 34.0193 110.614 34.013 110.624 34.006C110.644 33.992 110.667 33.975 110.694 33.9551C110.747 33.9153 110.815 33.8635 110.894 33.7998C111.051 33.6728 111.255 33.496 111.484 33.2696C111.939 32.821 112.518 32.1519 113.012 31.2609C114.047 29.396 114.615 26.7123 113.263 23.4905L108.652 25.4255C109.347 27.0808 109.016 28.1578 108.64 28.8344C108.43 29.2142 108.175 29.511 107.973 29.7106C107.874 29.8084 107.794 29.8763 107.748 29.9129C107.726 29.9311 107.713 29.9409 107.711 29.9422C107.71 29.9428 107.712 29.9413 107.717 29.9376C107.72 29.9357 107.724 29.9333 107.728 29.9303C107.73 29.9288 107.732 29.9272 107.735 29.9254C107.736 29.9246 107.737 29.9236 107.739 29.9227C107.739 29.9222 107.74 29.9215 107.741 29.9212C107.742 29.9205 107.743 29.9197 109.16 31.9795ZM87.4299 46.1936L110.321 34.1937L107.999 29.7653L85.1084 41.7652L87.4299 46.1936ZM93.2257 38.3767L85.3086 41.6713L87.2296 46.2876L95.1467 42.993L93.2257 38.3767ZM111.909 62.161C111.785 61.7979 111.586 61.4249 111.437 61.1562C111.263 60.8435 111.045 60.481 110.8 60.0874C110.308 59.2977 109.658 58.3089 108.915 57.2055C107.426 54.9949 105.516 52.2571 103.638 49.5979C101.758 46.936 99.9012 44.3412 98.5151 42.4127C97.8218 41.4481 97.2459 40.6498 96.8432 40.0923C96.6418 39.8136 96.4837 39.595 96.3758 39.446C96.3219 39.3715 96.2805 39.3144 96.2526 39.2759C96.2386 39.2566 96.228 39.242 96.2209 39.2321C96.2173 39.2272 96.2146 39.2235 96.2128 39.2209C96.2119 39.2197 96.2112 39.2187 96.2107 39.2181C96.2105 39.2178 96.2103 39.2175 96.2102 39.2173C96.21 39.2172 96.21 39.2171 94.1862 40.6849C92.1625 42.1526 92.1625 42.1527 92.1626 42.1528C92.1627 42.153 92.1628 42.1532 92.163 42.1535C92.1635 42.154 92.1641 42.1549 92.165 42.1561C92.1667 42.1585 92.1693 42.1621 92.1728 42.1669C92.1797 42.1764 92.1901 42.1908 92.2039 42.2098C92.2314 42.2477 92.2723 42.3042 92.3258 42.3781C92.4327 42.5258 92.5899 42.743 92.7902 43.0204C93.1909 43.575 93.7644 44.3701 94.455 45.3308C95.8364 47.2528 97.6846 49.8357 99.5542 52.4826C101.426 55.1322 103.31 57.8343 104.768 59.9987C105.498 61.0828 106.11 62.0152 106.556 62.7311C106.78 63.0901 106.95 63.3765 107.069 63.5899C107.213 63.8475 107.212 63.878 107.178 63.7772L111.909 62.161ZM107.12 75.2328C113.165 71.2878 112.848 64.9084 111.909 62.161L107.178 63.7772C107.672 65.2256 107.846 68.7885 104.387 71.0457L107.12 75.2328ZM83.6547 91.271C89.5281 87.1957 102.405 78.31 107.12 75.2328L104.387 71.0457C99.5992 74.1707 86.6542 83.1041 80.8044 87.1631L83.6547 91.271ZM66.9409 96.3343C70.5875 96.8377 74.8799 95.4158 77.9108 94.145C79.4989 93.4792 80.8881 92.7897 81.8797 92.2673C82.3769 92.0055 82.7776 91.7838 83.0572 91.6256C83.1972 91.5465 83.307 91.4831 83.3838 91.4384C83.4222 91.4161 83.4524 91.3984 83.4739 91.3857C83.4846 91.3793 83.4932 91.3742 83.4996 91.3704C83.5028 91.3685 83.5055 91.367 83.5075 91.3657C83.5086 91.3651 83.5095 91.3646 83.5103 91.3641C83.5106 91.3639 83.5111 91.3636 83.5113 91.3635C83.5117 91.3632 83.5121 91.363 82.2296 89.2171C80.947 87.0711 80.9473 87.0709 80.9476 87.0708C80.9476 87.0707 80.9479 87.0706 80.948 87.0705C80.9482 87.0704 80.9483 87.0703 80.9482 87.0704C80.9481 87.0705 80.9474 87.0709 80.9462 87.0716C80.9438 87.073 80.9393 87.0757 80.9326 87.0796C80.9193 87.0875 80.8975 87.1003 80.8678 87.1176C80.8082 87.1523 80.7166 87.2051 80.596 87.2734C80.3546 87.4099 79.9978 87.6074 79.5495 87.8435C78.6502 88.3172 77.3967 88.9389 75.9775 89.5339C72.9936 90.7849 69.8126 91.6833 67.6246 91.3813L66.9409 96.3343ZM56.1701 85.2986C54.0897 86.6849 54.0901 86.6854 54.0904 86.686C54.0906 86.6862 54.091 86.6868 54.0913 86.6872C54.0919 86.6881 54.0925 86.6891 54.0933 86.6903C54.0948 86.6925 54.0967 86.6953 54.0988 86.6985C54.1031 86.7049 54.1087 86.7131 54.1155 86.7232C54.1292 86.7434 54.1478 86.7707 54.1714 86.8049C54.2185 86.8732 54.2852 86.9688 54.3705 87.0879C54.541 87.326 54.7864 87.6595 55.0983 88.0589C55.7197 88.8546 56.6173 89.9282 57.7233 91.0361C59.8407 93.1571 63.1133 95.8059 66.9409 96.3343L67.6246 91.3813C65.4952 91.0873 63.2115 89.4565 61.2618 87.5035C60.3343 86.5744 59.5707 85.6623 59.0392 84.9817C58.7747 84.6429 58.5708 84.3655 58.436 84.1773C58.3687 84.0833 58.3189 84.0118 58.2876 83.9664C58.2719 83.9437 58.2609 83.9276 58.2547 83.9184C58.2516 83.9138 58.2497 83.9109 58.249 83.9099C58.2486 83.9094 58.2486 83.9093 58.2488 83.9097C58.249 83.9099 58.2492 83.9102 58.2495 83.9106C58.2496 83.9108 58.2499 83.9112 58.2499 83.9114C58.2502 83.9118 58.2505 83.9122 56.1701 85.2986Z" fill="black"/>
</svg>
