<svg width="322" height="165" viewBox="0 0 322 165" fill="none" xmlns="http://www.w3.org/2000/svg">
<rect x="11" y="17.1865" width="299.201" height="147.703" rx="20" fill="#D8D8D8"/>
<rect x="2.5" y="2.58203" width="316.201" height="153.563" rx="17.5" fill="#5772FF" stroke="black" stroke-width="5"/>
<mask id="path-3-outside-1_16_25" maskUnits="userSpaceOnUse" x="94.201" y="66.8884" width="208" height="72" fill="black">
<rect fill="white" x="94.201" y="66.8884" width="208" height="72"/>
<path d="M145.251 96.6884C143.144 98.5818 140.464 99.5284 137.211 99.5284C133.957 99.5284 131.264 98.5818 129.131 96.6884C127.024 94.7684 125.971 92.0884 125.971 88.6484V70.5284H132.291V88.1284C132.291 89.8084 132.717 91.0884 133.571 91.9684C134.451 92.8484 135.664 93.2884 137.211 93.2884C138.757 93.2884 139.957 92.8484 140.811 91.9684C141.691 91.0884 142.131 89.8084 142.131 88.1284V70.5284H148.451V88.6484C148.451 92.0884 147.384 94.7684 145.251 96.6884ZM179.015 98.8884H172.335L160.655 80.2484V98.8884H154.375V70.5284H162.055L172.695 87.7684V70.5284H179.015V98.8884ZM191.517 98.8884H185.117V70.5284H191.517V98.8884ZM217.176 77.4884L211.496 79.0884C211.363 78.2084 210.923 77.3951 210.176 76.6484C209.429 75.9018 208.296 75.5284 206.776 75.5284C205.629 75.5284 204.696 75.8351 203.976 76.4484C203.256 77.0351 202.896 77.7418 202.896 78.5684C202.896 80.0351 203.829 80.9418 205.696 81.2884L209.496 82.0084C212.109 82.4884 214.123 83.5151 215.536 85.0884C216.976 86.6351 217.696 88.4484 217.696 90.5284C217.696 92.9018 216.749 94.9951 214.856 96.8084C212.963 98.5951 210.416 99.4884 207.216 99.4884C203.643 99.4884 200.869 98.5684 198.896 96.7284C196.949 94.8618 195.856 92.7551 195.616 90.4084L201.416 89.0084C201.549 90.4218 202.096 91.5951 203.056 92.5284C204.043 93.4351 205.456 93.8884 207.296 93.8884C208.523 93.8884 209.496 93.6218 210.216 93.0884C210.936 92.5284 211.296 91.8084 211.296 90.9284C211.296 90.2084 211.029 89.6084 210.496 89.1284C209.963 88.6218 209.216 88.2751 208.256 88.0884L204.376 87.3684C201.976 86.9151 200.083 85.9418 198.696 84.4484C197.336 82.9551 196.656 81.1551 196.656 79.0484C196.656 76.4351 197.656 74.2618 199.656 72.5284C201.656 70.7951 204.043 69.9284 206.816 69.9284C208.496 69.9284 209.989 70.1684 211.296 70.6484C212.629 71.1018 213.683 71.7151 214.456 72.4884C215.229 73.2618 215.829 74.0618 216.256 74.8884C216.709 75.7151 217.016 76.5818 217.176 77.4884ZM235.072 99.4884C230.912 99.4884 227.419 98.1284 224.592 95.4084C221.765 92.6618 220.352 89.1151 220.352 84.7684C220.352 80.4484 221.779 76.9018 224.632 74.1284C227.485 71.3284 230.939 69.9284 234.992 69.9284C237.019 69.9284 238.845 70.2351 240.472 70.8484C242.125 71.4351 243.459 72.2218 244.472 73.2084C245.485 74.1951 246.299 75.2084 246.912 76.2484C247.525 77.2884 247.952 78.3684 248.192 79.4884L242.232 81.3684C242.099 80.8084 241.885 80.2618 241.592 79.7284C241.299 79.1684 240.885 78.6084 240.352 78.0484C239.819 77.4618 239.085 76.9951 238.152 76.6484C237.219 76.2751 236.165 76.0884 234.992 76.0884C232.859 76.0884 230.979 76.8484 229.352 78.3684C227.725 79.8618 226.912 81.9951 226.912 84.7684C226.912 87.3284 227.712 89.3684 229.312 90.8884C230.912 92.4084 232.832 93.1684 235.072 93.1684C237.259 93.1684 238.952 92.6218 240.152 91.5284C241.352 90.4351 242.139 89.2084 242.512 87.8484L248.552 89.5684C248.285 90.6618 247.845 91.7418 247.232 92.8084C246.645 93.8751 245.832 94.9284 244.792 95.9684C243.779 97.0084 242.419 97.8618 240.712 98.5284C239.032 99.1684 237.152 99.4884 235.072 99.4884ZM259.29 98.8884H252.89V70.5284H259.29V98.8884ZM286.909 76.5684H278.149V98.8884H271.829V76.5684H263.109V70.5284H286.909V76.5684ZM297.142 98.8884H290.742V70.5284H297.142V98.8884ZM120.992 134.888L118.952 129.128H107.992L105.952 134.888H99.312L109.992 106.528H117.312L127.872 134.888H120.992ZM113.552 113.568L110.072 123.368H116.952L113.552 113.568ZM149.927 134.888H131.367V106.528H137.687V128.848H149.927V134.888ZM190.067 134.888H184.947L184.547 132.008C183.854 132.995 182.827 133.822 181.467 134.488C180.107 135.155 178.48 135.488 176.587 135.488C172.534 135.488 169.12 134.128 166.347 131.408C163.6 128.662 162.227 125.102 162.227 120.728C162.227 116.382 163.654 112.835 166.507 110.088C169.387 107.315 172.88 105.928 176.987 105.928C180.667 105.928 183.587 106.795 185.747 108.528C187.907 110.262 189.36 112.315 190.107 114.688L184.027 116.808C183.734 115.608 183 114.488 181.827 113.448C180.68 112.382 179.067 111.848 176.987 111.848C174.8 111.848 172.854 112.608 171.147 114.128C169.467 115.622 168.627 117.822 168.627 120.728C168.627 123.555 169.44 125.768 171.067 127.368C172.694 128.942 174.72 129.728 177.147 129.728C179.227 129.728 180.854 129.235 182.027 128.248C183.2 127.235 183.907 126.182 184.147 125.088H175.627V119.728H190.067V134.888ZM201.79 134.888H195.39V106.528H201.79V134.888ZM215.289 114.328C213.663 115.795 212.849 117.915 212.849 120.688C212.849 123.462 213.663 125.582 215.289 127.048C216.943 128.515 218.863 129.248 221.049 129.248C223.236 129.248 225.143 128.515 226.769 127.048C228.396 125.582 229.209 123.462 229.209 120.688C229.209 117.915 228.396 115.795 226.769 114.328C225.143 112.835 223.236 112.088 221.049 112.088C218.863 112.088 216.943 112.835 215.289 114.328ZM206.289 120.728C206.289 116.328 207.716 112.768 210.569 110.048C213.449 107.302 216.943 105.928 221.049 105.928C225.156 105.928 228.636 107.302 231.489 110.048C234.343 112.795 235.769 116.355 235.769 120.728C235.769 125.102 234.343 128.662 231.489 131.408C228.636 134.128 225.156 135.488 221.049 135.488C216.943 135.488 213.449 134.128 210.569 131.408C207.716 128.662 206.289 125.102 206.289 120.728ZM253.353 135.488C249.193 135.488 245.7 134.128 242.873 131.408C240.047 128.662 238.633 125.115 238.633 120.768C238.633 116.448 240.06 112.902 242.913 110.128C245.767 107.328 249.22 105.928 253.273 105.928C255.3 105.928 257.127 106.235 258.753 106.848C260.407 107.435 261.74 108.222 262.753 109.208C263.767 110.195 264.58 111.208 265.193 112.248C265.807 113.288 266.233 114.368 266.473 115.488L260.513 117.368C260.38 116.808 260.167 116.262 259.873 115.728C259.58 115.168 259.167 114.608 258.633 114.048C258.1 113.462 257.367 112.995 256.433 112.648C255.5 112.275 254.447 112.088 253.273 112.088C251.14 112.088 249.26 112.848 247.633 114.368C246.007 115.862 245.193 117.995 245.193 120.768C245.193 123.328 245.993 125.368 247.593 126.888C249.193 128.408 251.113 129.168 253.353 129.168C255.54 129.168 257.233 128.622 258.433 127.528C259.633 126.435 260.42 125.208 260.793 123.848L266.833 125.568C266.567 126.662 266.127 127.742 265.513 128.808C264.927 129.875 264.113 130.928 263.073 131.968C262.06 133.008 260.7 133.862 258.993 134.528C257.313 135.168 255.433 135.488 253.353 135.488ZM278.297 114.328C276.671 115.795 275.857 117.915 275.857 120.688C275.857 123.462 276.671 125.582 278.297 127.048C279.951 128.515 281.871 129.248 284.057 129.248C286.244 129.248 288.151 128.515 289.777 127.048C291.404 125.582 292.217 123.462 292.217 120.688C292.217 117.915 291.404 115.795 289.777 114.328C288.151 112.835 286.244 112.088 284.057 112.088C281.871 112.088 279.951 112.835 278.297 114.328ZM269.297 120.728C269.297 116.328 270.724 112.768 273.577 110.048C276.457 107.302 279.951 105.928 284.057 105.928C288.164 105.928 291.644 107.302 294.497 110.048C297.351 112.795 298.777 116.355 298.777 120.728C298.777 125.102 297.351 128.662 294.497 131.408C291.644 134.128 288.164 135.488 284.057 135.488C279.951 135.488 276.457 134.128 273.577 131.408C270.724 128.662 269.297 125.102 269.297 120.728Z"/>
</mask>
<path d="M145.251 96.6884C143.144 98.5818 140.464 99.5284 137.211 99.5284C133.957 99.5284 131.264 98.5818 129.131 96.6884C127.024 94.7684 125.971 92.0884 125.971 88.6484V70.5284H132.291V88.1284C132.291 89.8084 132.717 91.0884 133.571 91.9684C134.451 92.8484 135.664 93.2884 137.211 93.2884C138.757 93.2884 139.957 92.8484 140.811 91.9684C141.691 91.0884 142.131 89.8084 142.131 88.1284V70.5284H148.451V88.6484C148.451 92.0884 147.384 94.7684 145.251 96.6884ZM179.015 98.8884H172.335L160.655 80.2484V98.8884H154.375V70.5284H162.055L172.695 87.7684V70.5284H179.015V98.8884ZM191.517 98.8884H185.117V70.5284H191.517V98.8884ZM217.176 77.4884L211.496 79.0884C211.363 78.2084 210.923 77.3951 210.176 76.6484C209.429 75.9018 208.296 75.5284 206.776 75.5284C205.629 75.5284 204.696 75.8351 203.976 76.4484C203.256 77.0351 202.896 77.7418 202.896 78.5684C202.896 80.0351 203.829 80.9418 205.696 81.2884L209.496 82.0084C212.109 82.4884 214.123 83.5151 215.536 85.0884C216.976 86.6351 217.696 88.4484 217.696 90.5284C217.696 92.9018 216.749 94.9951 214.856 96.8084C212.963 98.5951 210.416 99.4884 207.216 99.4884C203.643 99.4884 200.869 98.5684 198.896 96.7284C196.949 94.8618 195.856 92.7551 195.616 90.4084L201.416 89.0084C201.549 90.4218 202.096 91.5951 203.056 92.5284C204.043 93.4351 205.456 93.8884 207.296 93.8884C208.523 93.8884 209.496 93.6218 210.216 93.0884C210.936 92.5284 211.296 91.8084 211.296 90.9284C211.296 90.2084 211.029 89.6084 210.496 89.1284C209.963 88.6218 209.216 88.2751 208.256 88.0884L204.376 87.3684C201.976 86.9151 200.083 85.9418 198.696 84.4484C197.336 82.9551 196.656 81.1551 196.656 79.0484C196.656 76.4351 197.656 74.2618 199.656 72.5284C201.656 70.7951 204.043 69.9284 206.816 69.9284C208.496 69.9284 209.989 70.1684 211.296 70.6484C212.629 71.1018 213.683 71.7151 214.456 72.4884C215.229 73.2618 215.829 74.0618 216.256 74.8884C216.709 75.7151 217.016 76.5818 217.176 77.4884ZM235.072 99.4884C230.912 99.4884 227.419 98.1284 224.592 95.4084C221.765 92.6618 220.352 89.1151 220.352 84.7684C220.352 80.4484 221.779 76.9018 224.632 74.1284C227.485 71.3284 230.939 69.9284 234.992 69.9284C237.019 69.9284 238.845 70.2351 240.472 70.8484C242.125 71.4351 243.459 72.2218 244.472 73.2084C245.485 74.1951 246.299 75.2084 246.912 76.2484C247.525 77.2884 247.952 78.3684 248.192 79.4884L242.232 81.3684C242.099 80.8084 241.885 80.2618 241.592 79.7284C241.299 79.1684 240.885 78.6084 240.352 78.0484C239.819 77.4618 239.085 76.9951 238.152 76.6484C237.219 76.2751 236.165 76.0884 234.992 76.0884C232.859 76.0884 230.979 76.8484 229.352 78.3684C227.725 79.8618 226.912 81.9951 226.912 84.7684C226.912 87.3284 227.712 89.3684 229.312 90.8884C230.912 92.4084 232.832 93.1684 235.072 93.1684C237.259 93.1684 238.952 92.6218 240.152 91.5284C241.352 90.4351 242.139 89.2084 242.512 87.8484L248.552 89.5684C248.285 90.6618 247.845 91.7418 247.232 92.8084C246.645 93.8751 245.832 94.9284 244.792 95.9684C243.779 97.0084 242.419 97.8618 240.712 98.5284C239.032 99.1684 237.152 99.4884 235.072 99.4884ZM259.29 98.8884H252.89V70.5284H259.29V98.8884ZM286.909 76.5684H278.149V98.8884H271.829V76.5684H263.109V70.5284H286.909V76.5684ZM297.142 98.8884H290.742V70.5284H297.142V98.8884ZM120.992 134.888L118.952 129.128H107.992L105.952 134.888H99.312L109.992 106.528H117.312L127.872 134.888H120.992ZM113.552 113.568L110.072 123.368H116.952L113.552 113.568ZM149.927 134.888H131.367V106.528H137.687V128.848H149.927V134.888ZM190.067 134.888H184.947L184.547 132.008C183.854 132.995 182.827 133.822 181.467 134.488C180.107 135.155 178.48 135.488 176.587 135.488C172.534 135.488 169.12 134.128 166.347 131.408C163.6 128.662 162.227 125.102 162.227 120.728C162.227 116.382 163.654 112.835 166.507 110.088C169.387 107.315 172.88 105.928 176.987 105.928C180.667 105.928 183.587 106.795 185.747 108.528C187.907 110.262 189.36 112.315 190.107 114.688L184.027 116.808C183.734 115.608 183 114.488 181.827 113.448C180.68 112.382 179.067 111.848 176.987 111.848C174.8 111.848 172.854 112.608 171.147 114.128C169.467 115.622 168.627 117.822 168.627 120.728C168.627 123.555 169.44 125.768 171.067 127.368C172.694 128.942 174.72 129.728 177.147 129.728C179.227 129.728 180.854 129.235 182.027 128.248C183.2 127.235 183.907 126.182 184.147 125.088H175.627V119.728H190.067V134.888ZM201.79 134.888H195.39V106.528H201.79V134.888ZM215.289 114.328C213.663 115.795 212.849 117.915 212.849 120.688C212.849 123.462 213.663 125.582 215.289 127.048C216.943 128.515 218.863 129.248 221.049 129.248C223.236 129.248 225.143 128.515 226.769 127.048C228.396 125.582 229.209 123.462 229.209 120.688C229.209 117.915 228.396 115.795 226.769 114.328C225.143 112.835 223.236 112.088 221.049 112.088C218.863 112.088 216.943 112.835 215.289 114.328ZM206.289 120.728C206.289 116.328 207.716 112.768 210.569 110.048C213.449 107.302 216.943 105.928 221.049 105.928C225.156 105.928 228.636 107.302 231.489 110.048C234.343 112.795 235.769 116.355 235.769 120.728C235.769 125.102 234.343 128.662 231.489 131.408C228.636 134.128 225.156 135.488 221.049 135.488C216.943 135.488 213.449 134.128 210.569 131.408C207.716 128.662 206.289 125.102 206.289 120.728ZM253.353 135.488C249.193 135.488 245.7 134.128 242.873 131.408C240.047 128.662 238.633 125.115 238.633 120.768C238.633 116.448 240.06 112.902 242.913 110.128C245.767 107.328 249.22 105.928 253.273 105.928C255.3 105.928 257.127 106.235 258.753 106.848C260.407 107.435 261.74 108.222 262.753 109.208C263.767 110.195 264.58 111.208 265.193 112.248C265.807 113.288 266.233 114.368 266.473 115.488L260.513 117.368C260.38 116.808 260.167 116.262 259.873 115.728C259.58 115.168 259.167 114.608 258.633 114.048C258.1 113.462 257.367 112.995 256.433 112.648C255.5 112.275 254.447 112.088 253.273 112.088C251.14 112.088 249.26 112.848 247.633 114.368C246.007 115.862 245.193 117.995 245.193 120.768C245.193 123.328 245.993 125.368 247.593 126.888C249.193 128.408 251.113 129.168 253.353 129.168C255.54 129.168 257.233 128.622 258.433 127.528C259.633 126.435 260.42 125.208 260.793 123.848L266.833 125.568C266.567 126.662 266.127 127.742 265.513 128.808C264.927 129.875 264.113 130.928 263.073 131.968C262.06 133.008 260.7 133.862 258.993 134.528C257.313 135.168 255.433 135.488 253.353 135.488ZM278.297 114.328C276.671 115.795 275.857 117.915 275.857 120.688C275.857 123.462 276.671 125.582 278.297 127.048C279.951 128.515 281.871 129.248 284.057 129.248C286.244 129.248 288.151 128.515 289.777 127.048C291.404 125.582 292.217 123.462 292.217 120.688C292.217 117.915 291.404 115.795 289.777 114.328C288.151 112.835 286.244 112.088 284.057 112.088C281.871 112.088 279.951 112.835 278.297 114.328ZM269.297 120.728C269.297 116.328 270.724 112.768 273.577 110.048C276.457 107.302 279.951 105.928 284.057 105.928C288.164 105.928 291.644 107.302 294.497 110.048C297.351 112.795 298.777 116.355 298.777 120.728C298.777 125.102 297.351 128.662 294.497 131.408C291.644 134.128 288.164 135.488 284.057 135.488C279.951 135.488 276.457 134.128 273.577 131.408C270.724 128.662 269.297 125.102 269.297 120.728Z" fill="white"/>
<path d="M145.251 96.6884L147.256 98.9197L147.258 98.9183L145.251 96.6884ZM129.131 96.6884L127.11 98.9057L127.125 98.9191L127.139 98.9322L129.131 96.6884ZM125.971 70.5284V67.5284H122.971V70.5284H125.971ZM132.291 70.5284H135.291V67.5284H132.291V70.5284ZM133.571 91.9684L131.417 94.0569L131.433 94.0734L131.449 94.0897L133.571 91.9684ZM140.811 91.9684L138.689 89.8471L138.673 89.8634L138.657 89.88L140.811 91.9684ZM142.131 70.5284V67.5284H139.131V70.5284H142.131ZM148.451 70.5284H151.451V67.5284H148.451V70.5284ZM143.245 94.4571C141.771 95.7823 139.841 96.5284 137.211 96.5284V102.528C141.087 102.528 144.517 101.381 147.256 98.9197L143.245 94.4571ZM137.211 96.5284C134.581 96.5284 132.629 95.7823 131.122 94.4447L127.139 98.9322C129.899 101.381 133.334 102.528 137.211 102.528V96.5284ZM131.152 94.4711C129.796 93.2357 128.971 91.4338 128.971 88.6484H122.971C122.971 92.743 124.252 96.3011 127.11 98.9057L131.152 94.4711ZM128.971 88.6484V70.5284H122.971V88.6484H128.971ZM125.971 73.5284H132.291V67.5284H125.971V73.5284ZM129.291 70.5284V88.1284H135.291V70.5284H129.291ZM129.291 88.1284C129.291 90.294 129.846 92.4366 131.417 94.0569L135.724 89.88C135.589 89.7403 135.291 89.3229 135.291 88.1284H129.291ZM131.449 94.0897C133.022 95.6621 135.073 96.2884 137.211 96.2884V90.2884C136.255 90.2884 135.88 90.0348 135.692 89.8471L131.449 94.0897ZM137.211 96.2884C139.344 96.2884 141.407 95.6633 142.964 94.0569L138.657 89.88C138.508 90.0336 138.171 90.2884 137.211 90.2884V96.2884ZM142.932 94.0897C144.549 92.4727 145.131 90.3177 145.131 88.1284H139.131C139.131 89.2992 138.832 89.7042 138.689 89.8471L142.932 94.0897ZM145.131 88.1284V70.5284H139.131V88.1284H145.131ZM142.131 73.5284H148.451V67.5284H142.131V73.5284ZM145.451 70.5284V88.6484H151.451V70.5284H145.451ZM145.451 88.6484C145.451 91.4219 144.62 93.2199 143.244 94.4585L147.258 98.9183C150.148 96.317 151.451 92.755 151.451 88.6484H145.451ZM179.015 98.8884V101.888H182.015V98.8884H179.015ZM172.335 98.8884L169.793 100.481L170.674 101.888H172.335V98.8884ZM160.655 80.2484L163.197 78.6555L157.655 69.8108V80.2484H160.655ZM160.655 98.8884V101.888H163.655V98.8884H160.655ZM154.375 98.8884H151.375V101.888H154.375V98.8884ZM154.375 70.5284V67.5284H151.375V70.5284H154.375ZM162.055 70.5284L164.608 68.9528L163.729 67.5284H162.055V70.5284ZM172.695 87.7684L170.142 89.344L175.695 98.3415V87.7684H172.695ZM172.695 70.5284V67.5284H169.695V70.5284H172.695ZM179.015 70.5284H182.015V67.5284H179.015V70.5284ZM179.015 95.8884H172.335V101.888H179.015V95.8884ZM174.877 97.2955L163.197 78.6555L158.113 81.8414L169.793 100.481L174.877 97.2955ZM157.655 80.2484V98.8884H163.655V80.2484H157.655ZM160.655 95.8884H154.375V101.888H160.655V95.8884ZM157.375 98.8884V70.5284H151.375V98.8884H157.375ZM154.375 73.5284H162.055V67.5284H154.375V73.5284ZM159.502 72.104L170.142 89.344L175.248 86.1928L164.608 68.9528L159.502 72.104ZM175.695 87.7684V70.5284H169.695V87.7684H175.695ZM172.695 73.5284H179.015V67.5284H172.695V73.5284ZM176.015 70.5284V98.8884H182.015V70.5284H176.015ZM191.517 98.8884V101.888H194.517V98.8884H191.517ZM185.117 98.8884H182.117V101.888H185.117V98.8884ZM185.117 70.5284V67.5284H182.117V70.5284H185.117ZM191.517 70.5284H194.517V67.5284H191.517V70.5284ZM191.517 95.8884H185.117V101.888H191.517V95.8884ZM188.117 98.8884V70.5284H182.117V98.8884H188.117ZM185.117 73.5284H191.517V67.5284H185.117V73.5284ZM188.517 70.5284V98.8884H194.517V70.5284H188.517ZM217.176 77.4884L217.989 80.376L220.602 79.6401L220.13 76.9671L217.176 77.4884ZM211.496 79.0884L208.53 79.5378L209.039 82.8973L212.309 81.976L211.496 79.0884ZM210.176 76.6484L212.297 74.5271L212.297 74.5271L210.176 76.6484ZM203.976 76.4484L205.871 78.7741L205.896 78.7534L205.921 78.7322L203.976 76.4484ZM205.696 81.2884L206.255 78.3408L206.244 78.3389L205.696 81.2884ZM209.496 82.0084L208.938 84.956L208.946 84.9575L208.954 84.9591L209.496 82.0084ZM215.536 85.0884L213.304 87.0932L213.322 87.1131L213.34 87.1327L215.536 85.0884ZM214.856 96.8084L216.915 98.9903L216.923 98.9827L216.931 98.975L214.856 96.8084ZM198.896 96.7284L196.82 98.8938L196.835 98.9083L196.85 98.9226L198.896 96.7284ZM195.616 90.4084L194.912 87.4922L192.365 88.107L192.632 90.7137L195.616 90.4084ZM201.416 89.0084L204.403 88.7267L204.078 85.2798L200.712 86.0922L201.416 89.0084ZM203.056 92.5284L200.965 94.6794L200.995 94.7088L201.026 94.7374L203.056 92.5284ZM210.216 93.0884L212.002 95.4991L212.03 95.4781L212.058 95.4565L210.216 93.0884ZM210.496 89.1284L208.43 91.3034L208.459 91.3313L208.489 91.3583L210.496 89.1284ZM208.256 88.0884L208.829 85.1436L208.816 85.1411L208.803 85.1388L208.256 88.0884ZM204.376 87.3684L203.819 90.3163L203.829 90.3181L204.376 87.3684ZM198.696 84.4484L196.478 86.4684L196.488 86.4791L196.498 86.4898L198.696 84.4484ZM199.656 72.5284L197.691 70.2614L199.656 72.5284ZM211.296 70.6484L210.262 73.4644L210.296 73.477L210.33 73.4887L211.296 70.6484ZM214.456 72.4884L212.335 74.6097L212.335 74.6097L214.456 72.4884ZM216.256 74.8884L213.59 76.2644L213.607 76.2979L213.626 76.3309L216.256 74.8884ZM216.363 74.6008L210.683 76.2008L212.309 81.976L217.989 80.376L216.363 74.6008ZM214.462 78.639C214.216 77.0142 213.41 75.6397 212.297 74.5271L208.055 78.7697C208.435 79.1505 208.509 79.4027 208.53 79.5378L214.462 78.639ZM212.297 74.5271C210.781 73.0105 208.741 72.5284 206.776 72.5284V78.5284C207.3 78.5284 207.634 78.5939 207.827 78.6578C208.007 78.7169 208.054 78.7692 208.055 78.7697L212.297 74.5271ZM206.776 72.5284C205.074 72.5284 203.403 72.9961 202.031 74.1647L205.921 78.7322C205.99 78.6741 206.185 78.5284 206.776 78.5284V72.5284ZM202.081 74.1227C200.759 75.1996 199.896 76.7211 199.896 78.5684H205.896C205.896 78.5812 205.894 78.6127 205.884 78.6566C205.874 78.7011 205.858 78.7438 205.839 78.7802C205.8 78.857 205.78 78.8484 205.871 78.7741L202.081 74.1227ZM199.896 78.5684C199.896 79.9995 200.381 81.4079 201.506 82.5003C202.55 83.5146 203.887 84.0037 205.148 84.238L206.244 78.3389C205.958 78.2858 205.786 78.2251 205.697 78.1852C205.611 78.1469 205.627 78.1394 205.686 78.1966C205.753 78.2611 205.82 78.3567 205.863 78.4655C205.903 78.567 205.896 78.6151 205.896 78.5684H199.896ZM205.138 84.236L208.938 84.956L210.055 79.0609L206.255 78.3409L205.138 84.236ZM208.954 84.9591C211.085 85.3505 212.437 86.1281 213.304 87.0932L217.768 83.0836C215.808 80.9021 213.134 79.6264 210.038 79.0578L208.954 84.9591ZM213.34 87.1327C214.273 88.134 214.696 89.2204 214.696 90.5284H220.696C220.696 87.6765 219.679 85.1362 217.732 83.0442L213.34 87.1327ZM214.696 90.5284C214.696 91.9937 214.152 93.329 212.781 94.6418L216.931 98.975C219.347 96.6612 220.696 93.8098 220.696 90.5284H214.696ZM212.797 94.6265C211.582 95.7734 209.835 96.4884 207.216 96.4884V102.488C210.997 102.488 214.344 101.417 216.915 98.9903L212.797 94.6265ZM207.216 96.4884C204.15 96.4884 202.199 95.7067 200.942 94.5343L196.85 98.9226C199.539 101.43 203.136 102.488 207.216 102.488V96.4884ZM200.972 94.5631C199.461 93.1142 198.758 91.641 198.6 90.1032L192.632 90.7137C192.954 93.8692 194.437 96.6093 196.82 98.8938L200.972 94.5631ZM196.32 93.3247L202.12 91.9247L200.712 86.0922L194.912 87.4922L196.32 93.3247ZM198.429 89.2902C198.625 91.3668 199.461 93.2177 200.965 94.6794L205.147 90.3774C204.731 89.9725 204.474 89.4767 204.403 88.7267L198.429 89.2902ZM201.026 94.7374C202.745 96.3165 204.987 96.8884 207.296 96.8884V90.8884C205.925 90.8884 205.341 90.5537 205.086 90.3194L201.026 94.7374ZM207.296 96.8884C208.933 96.8884 210.605 96.5339 212.002 95.4991L208.43 90.6778C208.387 90.7097 208.113 90.8884 207.296 90.8884V96.8884ZM212.058 95.4565C213.478 94.3523 214.296 92.7729 214.296 90.9284H208.296C208.296 90.9429 208.295 90.9312 208.302 90.8999C208.309 90.8676 208.322 90.8278 208.343 90.7868C208.363 90.746 208.384 90.718 208.396 90.7038C208.407 90.6905 208.404 90.6974 208.374 90.7204L212.058 95.4565ZM214.296 90.9284C214.296 89.3613 213.671 87.9497 212.503 86.8985L208.489 91.3583C208.472 91.3429 208.408 91.2764 208.355 91.1568C208.302 91.0376 208.296 90.9473 208.296 90.9284H214.296ZM212.562 86.9534C211.499 85.9432 210.169 85.4042 208.829 85.1436L207.683 91.0333C208.263 91.1459 208.427 91.3004 208.43 91.3034L212.562 86.9534ZM208.803 85.1388L204.923 84.4188L203.829 90.3181L207.709 91.0381L208.803 85.1388ZM204.933 84.4206C203.034 84.062 201.764 83.3431 200.894 82.4071L196.498 86.4898C198.402 88.5404 200.918 89.7682 203.819 90.3163L204.933 84.4206ZM200.914 82.4284C200.08 81.5131 199.656 80.4432 199.656 79.0484H193.656C193.656 81.867 194.592 84.3971 196.478 86.4684L200.914 82.4284ZM199.656 79.0484C199.656 77.3178 200.269 75.9673 201.621 74.7955L197.691 70.2614C195.043 72.5562 193.656 75.5524 193.656 79.0484H199.656ZM201.621 74.7955C203.048 73.559 204.727 72.9284 206.816 72.9284V66.9284C203.359 66.9284 200.265 68.0312 197.691 70.2614L201.621 74.7955ZM206.816 72.9284C208.214 72.9284 209.347 73.1284 210.262 73.4644L212.331 67.8324C210.632 67.2085 208.778 66.9284 206.816 66.9284V72.9284ZM210.33 73.4887C211.349 73.8353 211.966 74.2411 212.335 74.6097L216.577 70.3671C215.399 69.1891 213.909 68.3683 212.262 67.8081L210.33 73.4887ZM212.335 74.6097C212.927 75.2016 213.328 75.7561 213.59 76.2644L218.922 73.5125C218.331 72.3674 217.532 71.3219 216.577 70.3671L212.335 74.6097ZM213.626 76.3309C213.925 76.8773 214.12 77.4336 214.222 78.0098L220.13 76.9671C219.912 75.73 219.494 74.5529 218.886 73.4459L213.626 76.3309ZM224.592 95.4084L222.501 97.56L222.507 97.5651L222.512 97.5701L224.592 95.4084ZM224.632 74.1284L226.723 76.2797L226.728 76.2747L226.733 76.2697L224.632 74.1284ZM240.472 70.8484L239.414 73.6555L239.441 73.6659L239.469 73.6757L240.472 70.8484ZM244.472 73.2084L246.565 71.059L246.565 71.059L244.472 73.2084ZM246.912 76.2484L249.496 74.7245L249.496 74.7245L246.912 76.2484ZM248.192 79.4884L249.094 82.3495L251.697 81.5285L251.125 78.8598L248.192 79.4884ZM242.232 81.3684L239.314 82.0633L240.06 85.1992L243.134 84.2295L242.232 81.3684ZM241.592 79.7284L238.934 81.1204L238.949 81.1475L238.963 81.1742L241.592 79.7284ZM240.352 78.0484L238.132 80.0664L238.156 80.0922L238.18 80.1174L240.352 78.0484ZM238.152 76.6484L237.038 79.4339L237.072 79.4477L237.107 79.4607L238.152 76.6484ZM229.352 78.3684L231.381 80.5784L231.391 80.5694L231.4 80.5604L229.352 78.3684ZM229.312 90.8884L231.378 88.7134L231.378 88.7134L229.312 90.8884ZM240.152 91.5284L238.132 89.3108L238.132 89.3108L240.152 91.5284ZM242.512 87.8484L243.334 84.9631L240.421 84.1336L239.619 87.0543L242.512 87.8484ZM248.552 89.5684L251.467 90.2793L252.151 87.474L249.374 86.6831L248.552 89.5684ZM247.232 92.8084L244.631 91.313L244.617 91.3377L244.603 91.3627L247.232 92.8084ZM244.792 95.9684L242.671 93.8471L242.657 93.8609L242.643 93.8748L244.792 95.9684ZM240.712 98.5284L241.78 101.332L241.792 101.327L241.804 101.323L240.712 98.5284ZM235.072 96.4884C231.636 96.4884 228.904 95.394 226.672 93.2467L222.512 97.5701C225.934 100.863 230.188 102.488 235.072 102.488V96.4884ZM226.683 93.2569C224.5 91.1361 223.352 88.3964 223.352 84.7684H217.352C217.352 89.8337 219.031 94.1874 222.501 97.56L226.683 93.2569ZM223.352 84.7684C223.352 81.1819 224.504 78.4367 226.723 76.2797L222.541 71.9772C219.054 75.3668 217.352 79.7149 217.352 84.7684H223.352ZM226.733 76.2697C229.017 74.0286 231.712 72.9284 234.992 72.9284V66.9284C230.165 66.9284 225.954 68.6283 222.531 71.9872L226.733 76.2697ZM234.992 72.9284C236.716 72.9284 238.176 73.189 239.414 73.6555L241.53 68.0413C239.514 67.2812 237.321 66.9284 234.992 66.9284V72.9284ZM239.469 73.6757C240.81 74.1515 241.741 74.7366 242.379 75.3578L246.565 71.059C245.176 69.707 243.441 68.7186 241.475 68.0211L239.469 73.6757ZM242.379 75.3578C243.233 76.1896 243.871 76.997 244.328 77.7724L249.496 74.7245C248.727 73.4199 247.737 72.2005 246.565 71.059L242.379 75.3578ZM244.328 77.7724C244.786 78.5498 245.09 79.329 245.259 80.117L251.125 78.8598C250.814 77.4078 250.264 76.0271 249.496 74.7245L244.328 77.7724ZM247.29 76.6274L241.33 78.5074L243.134 84.2295L249.094 82.3495L247.29 76.6274ZM245.15 80.6736C244.951 79.8368 244.636 79.0386 244.221 78.2827L238.963 81.1742C239.134 81.4849 239.246 81.7801 239.314 82.0633L245.15 80.6736ZM244.249 78.3364C243.802 77.4815 243.209 76.6982 242.524 75.9795L238.18 80.1174C238.562 80.5186 238.796 80.8554 238.934 81.1204L244.249 78.3364ZM242.572 76.0304C241.644 75.0096 240.467 74.308 239.197 73.8362L237.107 79.4607C237.704 79.6821 237.993 79.9139 238.132 80.0664L242.572 76.0304ZM239.266 73.863C237.924 73.3263 236.484 73.0884 234.992 73.0884V79.0884C235.847 79.0884 236.513 79.2239 237.038 79.4339L239.266 73.863ZM234.992 73.0884C232.062 73.0884 229.459 74.1622 227.304 76.1765L231.4 80.5604C232.498 79.5346 233.655 79.0884 234.992 79.0884V73.0884ZM227.323 76.1585C224.926 78.3588 223.912 81.3848 223.912 84.7684H229.912C229.912 82.6053 230.524 81.3648 231.381 80.5784L227.323 76.1585ZM223.912 84.7684C223.912 88.0073 224.953 90.8853 227.246 93.0634L231.378 88.7134C230.471 87.8516 229.912 86.6496 229.912 84.7684H223.912ZM227.246 93.0634C229.413 95.1219 232.076 96.1684 235.072 96.1684V90.1684C233.588 90.1684 232.411 89.695 231.378 88.7134L227.246 93.0634ZM235.072 96.1684C237.743 96.1684 240.252 95.4957 242.172 93.746L238.132 89.3108C237.652 89.7479 236.774 90.1684 235.072 90.1684V96.1684ZM242.172 93.746C243.727 92.3294 244.86 90.6289 245.405 88.6426L239.619 87.0543C239.418 87.788 238.977 88.5408 238.132 89.3108L242.172 93.746ZM241.69 90.7337L247.73 92.4537L249.374 86.6831L243.334 84.9631L241.69 90.7337ZM245.637 88.8576C245.444 89.6515 245.117 90.469 244.631 91.313L249.833 94.3038C250.574 93.0145 251.127 91.672 251.467 90.2793L245.637 88.8576ZM244.603 91.3627C244.178 92.1361 243.551 92.9671 242.671 93.8471L246.913 98.0897C248.113 96.8897 249.113 95.6141 249.861 94.2542L244.603 91.3627ZM242.643 93.8748C241.996 94.5395 241.03 95.1835 239.62 95.7341L241.804 101.323C243.808 100.54 245.562 99.4774 246.941 98.062L242.643 93.8748ZM239.644 95.725C238.354 96.2163 236.843 96.4884 235.072 96.4884V102.488C237.461 102.488 239.71 102.121 241.78 101.332L239.644 95.725ZM259.29 98.8884V101.888H262.29V98.8884H259.29ZM252.89 98.8884H249.89V101.888H252.89V98.8884ZM252.89 70.5284V67.5284H249.89V70.5284H252.89ZM259.29 70.5284H262.29V67.5284H259.29V70.5284ZM259.29 95.8884H252.89V101.888H259.29V95.8884ZM255.89 98.8884V70.5284H249.89V98.8884H255.89ZM252.89 73.5284H259.29V67.5284H252.89V73.5284ZM256.29 70.5284V98.8884H262.29V70.5284H256.29ZM286.909 76.5684V79.5684H289.909V76.5684H286.909ZM278.149 76.5684V73.5684H275.149V76.5684H278.149ZM278.149 98.8884V101.888H281.149V98.8884H278.149ZM271.829 98.8884H268.829V101.888H271.829V98.8884ZM271.829 76.5684H274.829V73.5684H271.829V76.5684ZM263.109 76.5684H260.109V79.5684H263.109V76.5684ZM263.109 70.5284V67.5284H260.109V70.5284H263.109ZM286.909 70.5284H289.909V67.5284H286.909V70.5284ZM286.909 73.5684H278.149V79.5684H286.909V73.5684ZM275.149 76.5684V98.8884H281.149V76.5684H275.149ZM278.149 95.8884H271.829V101.888H278.149V95.8884ZM274.829 98.8884V76.5684H268.829V98.8884H274.829ZM271.829 73.5684H263.109V79.5684H271.829V73.5684ZM266.109 76.5684V70.5284H260.109V76.5684H266.109ZM263.109 73.5284H286.909V67.5284H263.109V73.5284ZM283.909 70.5284V76.5684H289.909V70.5284H283.909ZM297.142 98.8884V101.888H300.142V98.8884H297.142ZM290.742 98.8884H287.742V101.888H290.742V98.8884ZM290.742 70.5284V67.5284H287.742V70.5284H290.742ZM297.142 70.5284H300.142V67.5284H297.142V70.5284ZM297.142 95.8884H290.742V101.888H297.142V95.8884ZM293.742 98.8884V70.5284H287.742V98.8884H293.742ZM290.742 73.5284H297.142V67.5284H290.742V73.5284ZM294.142 70.5284V98.8884H300.142V70.5284H294.142ZM120.992 134.888L118.164 135.89L118.872 137.888H120.992V134.888ZM118.952 129.128L121.78 128.127L121.072 126.128H118.952V129.128ZM107.992 129.128V126.128H105.872L105.164 128.127L107.992 129.128ZM105.952 134.888V137.888H108.072L108.78 135.89L105.952 134.888ZM99.312 134.888L96.5045 133.831L94.9766 137.888H99.312V134.888ZM109.992 106.528V103.528H107.916L107.184 105.471L109.992 106.528ZM117.312 106.528L120.123 105.482L119.396 103.528H117.312V106.528ZM127.872 134.888V137.888H132.19L130.683 133.842L127.872 134.888ZM113.552 113.568L116.386 112.585L113.585 104.511L110.725 112.565L113.552 113.568ZM110.072 123.368L107.245 122.365L105.823 126.368H110.072V123.368ZM116.952 123.368V126.368H121.168L119.786 122.385L116.952 123.368ZM123.82 133.887L121.78 128.127L116.124 130.13L118.164 135.89L123.82 133.887ZM118.952 126.128H107.992V132.128H118.952V126.128ZM105.164 128.127L103.124 133.887L108.78 135.89L110.82 130.13L105.164 128.127ZM105.952 131.888H99.312V137.888H105.952V131.888ZM102.12 135.946L112.8 107.586L107.184 105.471L96.5045 133.831L102.12 135.946ZM109.992 109.528H117.312V103.528H109.992V109.528ZM114.501 107.575L125.061 135.935L130.683 133.842L120.123 105.482L114.501 107.575ZM127.872 131.888H120.992V137.888H127.872V131.888ZM110.725 112.565L107.245 122.365L112.899 124.372L116.379 114.572L110.725 112.565ZM110.072 126.368H116.952V120.368H110.072V126.368ZM119.786 122.385L116.386 112.585L110.718 114.552L114.118 124.352L119.786 122.385ZM149.927 134.888V137.888H152.927V134.888H149.927ZM131.367 134.888H128.367V137.888H131.367V134.888ZM131.367 106.528V103.528H128.367V106.528H131.367ZM137.687 106.528H140.687V103.528H137.687V106.528ZM137.687 128.848H134.687V131.848H137.687V128.848ZM149.927 128.848H152.927V125.848H149.927V128.848ZM149.927 131.888H131.367V137.888H149.927V131.888ZM134.367 134.888V106.528H128.367V134.888H134.367ZM131.367 109.528H137.687V103.528H131.367V109.528ZM134.687 106.528V128.848H140.687V106.528H134.687ZM137.687 131.848H149.927V125.848H137.687V131.848ZM146.927 128.848V134.888H152.927V128.848H146.927ZM190.067 134.888V137.888H193.067V134.888H190.067ZM184.947 134.888L181.976 135.301L182.335 137.888H184.947V134.888ZM184.547 132.008L187.518 131.596L186.471 124.053L182.092 130.284L184.547 132.008ZM181.467 134.488L180.147 131.795L180.147 131.795L181.467 134.488ZM166.347 131.408L164.226 133.53L164.236 133.54L164.246 133.55L166.347 131.408ZM166.507 110.088L168.588 112.25L168.588 112.249L166.507 110.088ZM185.747 108.528L183.869 110.868L183.869 110.868L185.747 108.528ZM190.107 114.688L191.095 117.521L193.842 116.563L192.969 113.788L190.107 114.688ZM184.027 116.808L181.113 117.521L181.897 120.728L185.015 119.641L184.027 116.808ZM181.827 113.448L179.784 115.645L179.81 115.67L179.837 115.693L181.827 113.448ZM171.147 114.128L173.14 116.371L173.142 116.369L171.147 114.128ZM171.067 127.368L168.963 129.507L168.972 129.516L168.981 129.525L171.067 127.368ZM182.027 128.248L183.958 130.545L183.973 130.532L183.988 130.519L182.027 128.248ZM184.147 125.088L187.077 125.732L187.877 122.088H184.147V125.088ZM175.627 125.088H172.627V128.088H175.627V125.088ZM175.627 119.728V116.728H172.627V119.728H175.627ZM190.067 119.728H193.067V116.728H190.067V119.728ZM190.067 131.888H184.947V137.888H190.067V131.888ZM187.918 134.476L187.518 131.596L181.576 132.421L181.976 135.301L187.918 134.476ZM182.092 130.284C181.755 130.764 181.167 131.294 180.147 131.795L182.787 137.182C184.487 136.349 185.953 135.226 187.002 133.733L182.092 130.284ZM180.147 131.795C179.287 132.216 178.134 132.488 176.587 132.488V138.488C178.826 138.488 180.927 138.094 182.787 137.182L180.147 131.795ZM176.587 132.488C173.281 132.488 170.634 131.411 168.448 129.267L164.246 133.55C167.607 136.846 171.786 138.488 176.587 138.488V132.488ZM168.468 129.287C166.357 127.176 165.227 124.415 165.227 120.728H159.227C159.227 125.788 160.844 130.148 164.226 133.53L168.468 129.287ZM165.227 120.728C165.227 117.109 166.382 114.373 168.588 112.25L164.426 107.927C160.925 111.298 159.227 115.654 159.227 120.728H165.227ZM168.588 112.249C170.892 110.03 173.633 108.928 176.987 108.928V102.928C172.128 102.928 167.882 104.6 164.426 107.927L168.588 112.249ZM176.987 108.928C180.209 108.928 182.394 109.684 183.869 110.868L187.625 106.189C184.78 103.906 181.125 102.928 176.987 102.928V108.928ZM183.869 110.868C185.62 112.273 186.697 113.845 187.245 115.589L192.969 113.788C192.024 110.785 190.193 108.25 187.625 106.189L183.869 110.868ZM189.119 111.856L183.039 113.976L185.015 119.641L191.095 117.521L189.119 111.856ZM186.941 116.096C186.468 114.161 185.324 112.539 183.817 111.203L179.837 115.693C180.677 116.438 180.999 117.056 181.113 117.521L186.941 116.096ZM183.87 111.252C182.007 109.518 179.571 108.848 176.987 108.848V114.848C178.563 114.848 179.354 115.245 179.784 115.645L183.87 111.252ZM176.987 108.848C174.029 108.848 171.381 109.903 169.152 111.888L173.142 116.369C174.327 115.314 175.572 114.848 176.987 114.848V108.848ZM169.154 111.886C166.658 114.105 165.627 117.232 165.627 120.728H171.627C171.627 118.411 172.276 117.138 173.14 116.371L169.154 111.886ZM165.627 120.728C165.627 124.155 166.633 127.215 168.963 129.507L173.171 125.23C172.248 124.322 171.627 122.955 171.627 120.728H165.627ZM168.981 129.525C171.21 131.681 174.004 132.728 177.147 132.728V126.728C175.437 126.728 174.177 126.203 173.153 125.212L168.981 129.525ZM177.147 132.728C179.681 132.728 182.078 132.125 183.958 130.545L180.096 125.952C179.629 126.345 178.773 126.728 177.147 126.728V132.728ZM183.988 130.519C185.467 129.242 186.654 127.661 187.077 125.732L181.217 124.445C181.16 124.703 180.934 125.228 180.066 125.978L183.988 130.519ZM184.147 122.088H175.627V128.088H184.147V122.088ZM178.627 125.088V119.728H172.627V125.088H178.627ZM175.627 122.728H190.067V116.728H175.627V122.728ZM187.067 119.728V134.888H193.067V119.728H187.067ZM201.79 134.888V137.888H204.79V134.888H201.79ZM195.39 134.888H192.39V137.888H195.39V134.888ZM195.39 106.528V103.528H192.39V106.528H195.39ZM201.79 106.528H204.79V103.528H201.79V106.528ZM201.79 131.888H195.39V137.888H201.79V131.888ZM198.39 134.888V106.528H192.39V134.888H198.39ZM195.39 109.528H201.79V103.528H195.39V109.528ZM198.79 106.528V134.888H204.79V106.528H198.79ZM215.289 114.328L217.298 116.556L217.3 116.555L215.289 114.328ZM215.289 127.048L213.281 129.276L213.29 129.285L213.299 129.293L215.289 127.048ZM226.769 127.048L228.778 129.276L228.778 129.276L226.769 127.048ZM226.769 114.328L224.741 116.538L224.751 116.547L224.761 116.556L226.769 114.328ZM210.569 110.048L212.639 112.22L212.64 112.219L210.569 110.048ZM231.489 110.048L233.57 107.887L231.489 110.048ZM231.489 131.408L233.559 133.58L233.565 133.575L233.57 133.57L231.489 131.408ZM210.569 131.408L208.489 133.57L208.499 133.58L208.51 133.589L210.569 131.408ZM213.281 112.1C210.863 114.28 209.849 117.307 209.849 120.688H215.849C215.849 118.523 216.462 117.31 217.298 116.556L213.281 112.1ZM209.849 120.688C209.849 124.069 210.863 127.097 213.281 129.276L217.298 124.82C216.462 124.067 215.849 122.854 215.849 120.688H209.849ZM213.299 129.293C215.494 131.24 218.12 132.248 221.049 132.248V126.248C219.605 126.248 218.391 125.79 217.28 124.804L213.299 129.293ZM221.049 132.248C223.98 132.248 226.602 131.239 228.778 129.276L224.761 124.82C223.684 125.791 222.493 126.248 221.049 126.248V132.248ZM228.778 129.276C231.196 127.097 232.209 124.069 232.209 120.688H226.209C226.209 122.854 225.597 124.067 224.761 124.82L228.778 129.276ZM232.209 120.688C232.209 117.307 231.196 114.28 228.778 112.1L224.761 116.556C225.597 117.31 226.209 118.523 226.209 120.688H232.209ZM228.798 112.118C226.624 110.123 223.996 109.088 221.049 109.088V115.088C222.477 115.088 223.661 115.548 224.741 116.538L228.798 112.118ZM221.049 109.088C218.105 109.088 215.472 110.121 213.279 112.102L217.3 116.555C218.414 115.549 219.621 115.088 221.049 115.088V109.088ZM209.289 120.728C209.289 117.044 210.452 114.305 212.639 112.22L208.5 107.877C204.98 111.232 203.289 115.613 203.289 120.728H209.289ZM212.64 112.219C214.943 110.023 217.687 108.928 221.049 108.928V102.928C216.199 102.928 211.956 104.58 208.499 107.877L212.64 112.219ZM221.049 108.928C224.412 108.928 227.137 110.023 229.409 112.21L233.57 107.887C230.135 104.581 225.9 102.928 221.049 102.928V108.928ZM229.409 112.21C231.61 114.329 232.769 117.077 232.769 120.728H238.769C238.769 115.633 237.075 111.261 233.57 107.887L229.409 112.21ZM232.769 120.728C232.769 124.38 231.61 127.128 229.409 129.247L233.57 133.57C237.075 130.196 238.769 125.823 238.769 120.728H232.769ZM229.42 129.237C227.149 131.401 224.421 132.488 221.049 132.488V138.488C225.891 138.488 230.123 136.856 233.559 133.58L229.42 129.237ZM221.049 132.488C217.678 132.488 214.93 131.4 212.629 129.227L208.51 133.589C211.969 136.856 216.208 138.488 221.049 138.488V132.488ZM212.65 129.247C210.449 127.128 209.289 124.38 209.289 120.728H203.289C203.289 125.823 204.984 130.196 208.489 133.57L212.65 129.247ZM242.873 131.408L240.783 133.56L240.788 133.565L240.793 133.57L242.873 131.408ZM242.913 110.128L245.004 112.28L245.009 112.275L245.014 112.27L242.913 110.128ZM258.753 106.848L257.695 109.656L257.722 109.666L257.75 109.676L258.753 106.848ZM262.753 109.208L264.846 107.059L264.846 107.059L262.753 109.208ZM265.193 112.248L267.777 110.724L267.777 110.724L265.193 112.248ZM266.473 115.488L267.376 118.349L269.978 117.528L269.407 114.86L266.473 115.488ZM260.513 117.368L257.595 118.063L258.341 121.199L261.416 120.229L260.513 117.368ZM259.873 115.728L257.216 117.12L257.23 117.147L257.245 117.174L259.873 115.728ZM258.633 114.048L256.413 116.066L256.437 116.092L256.461 116.117L258.633 114.048ZM256.433 112.648L255.319 115.434L255.354 115.448L255.389 115.461L256.433 112.648ZM247.633 114.368L249.662 116.578L249.672 116.569L249.681 116.56L247.633 114.368ZM247.593 126.888L249.659 124.713L249.659 124.713L247.593 126.888ZM258.433 127.528L256.413 125.311L256.413 125.311L258.433 127.528ZM260.793 123.848L261.615 120.963L258.702 120.134L257.9 123.054L260.793 123.848ZM266.833 125.568L269.748 126.279L270.432 123.474L267.655 122.683L266.833 125.568ZM265.513 128.808L262.913 127.313L262.898 127.338L262.885 127.363L265.513 128.808ZM263.073 131.968L260.952 129.847L260.938 129.861L260.925 129.875L263.073 131.968ZM258.993 134.528L260.061 137.332L260.073 137.327L260.085 137.323L258.993 134.528ZM253.353 132.488C249.917 132.488 247.185 131.394 244.953 129.247L240.793 133.57C244.215 136.863 248.469 138.488 253.353 138.488V132.488ZM244.964 129.257C242.781 127.136 241.633 124.396 241.633 120.768H235.633C235.633 125.834 237.312 130.187 240.783 133.56L244.964 129.257ZM241.633 120.768C241.633 117.182 242.785 114.437 245.004 112.28L240.822 107.977C237.335 111.367 235.633 115.715 235.633 120.768H241.633ZM245.014 112.27C247.298 110.029 249.994 108.928 253.273 108.928V102.928C248.446 102.928 244.235 104.628 240.812 107.987L245.014 112.27ZM253.273 108.928C254.997 108.928 256.457 109.189 257.695 109.656L259.812 104.041C257.796 103.281 255.603 102.928 253.273 102.928V108.928ZM257.75 109.676C259.091 110.152 260.022 110.737 260.66 111.358L264.846 107.059C263.457 105.707 261.722 104.719 259.756 104.021L257.75 109.676ZM260.66 111.358C261.515 112.19 262.152 112.997 262.609 113.772L267.777 110.724C267.008 109.42 266.018 108.201 264.846 107.059L260.66 111.358ZM262.609 113.772C263.068 114.55 263.371 115.329 263.54 116.117L269.407 114.86C269.096 113.408 268.546 112.027 267.777 110.724L262.609 113.772ZM265.571 112.627L259.611 114.507L261.416 120.229L267.376 118.349L265.571 112.627ZM263.432 116.674C263.232 115.837 262.918 115.039 262.502 114.283L257.245 117.174C257.415 117.485 257.527 117.78 257.595 118.063L263.432 116.674ZM262.531 114.336C262.083 113.481 261.49 112.698 260.806 111.979L256.461 116.117C256.843 116.519 257.077 116.855 257.216 117.12L262.531 114.336ZM260.853 112.03C259.925 111.01 258.748 110.308 257.478 109.836L255.389 115.461C255.985 115.682 256.275 115.914 256.413 116.066L260.853 112.03ZM257.547 109.863C256.206 109.326 254.765 109.088 253.273 109.088V115.088C254.128 115.088 254.794 115.224 255.319 115.434L257.547 109.863ZM253.273 109.088C250.344 109.088 247.741 110.162 245.585 112.176L249.681 116.56C250.779 115.535 251.936 115.088 253.273 115.088V109.088ZM245.604 112.158C243.208 114.359 242.193 117.385 242.193 120.768H248.193C248.193 118.605 248.805 117.365 249.662 116.578L245.604 112.158ZM242.193 120.768C242.193 124.007 243.234 126.885 245.527 129.063L249.659 124.713C248.752 123.852 248.193 122.65 248.193 120.768H242.193ZM245.527 129.063C247.694 131.122 250.357 132.168 253.353 132.168V126.168C251.869 126.168 250.693 125.695 249.659 124.713L245.527 129.063ZM253.353 132.168C256.024 132.168 258.533 131.496 260.454 129.746L256.413 125.311C255.933 125.748 255.056 126.168 253.353 126.168V132.168ZM260.454 129.746C262.009 128.329 263.141 126.629 263.686 124.643L257.9 123.054C257.699 123.788 257.258 124.541 256.413 125.311L260.454 129.746ZM259.972 126.734L266.012 128.454L267.655 122.683L261.615 120.963L259.972 126.734ZM263.919 124.858C263.725 125.652 263.398 126.469 262.913 127.313L268.114 130.304C268.855 129.014 269.408 127.672 269.748 126.279L263.919 124.858ZM262.885 127.363C262.459 128.136 261.832 128.967 260.952 129.847L265.195 134.09C266.395 132.89 267.394 131.614 268.142 130.254L262.885 127.363ZM260.925 129.875C260.277 130.539 259.311 131.184 257.902 131.734L260.085 137.323C262.089 136.54 263.843 135.477 265.222 134.062L260.925 129.875ZM257.925 131.725C256.635 132.216 255.125 132.488 253.353 132.488V138.488C255.742 138.488 257.991 138.121 260.061 137.332L257.925 131.725ZM278.297 114.328L280.306 116.556L280.308 116.555L278.297 114.328ZM278.297 127.048L276.288 129.276L276.297 129.285L276.306 129.293L278.297 127.048ZM289.777 127.048L291.786 129.276L291.786 129.276L289.777 127.048ZM289.777 114.328L287.748 116.538L287.758 116.547L287.768 116.556L289.777 114.328ZM273.577 110.048L275.647 112.22L275.648 112.219L273.577 110.048ZM294.497 110.048L296.578 107.887L294.497 110.048ZM294.497 131.408L296.567 133.58L296.573 133.575L296.578 133.57L294.497 131.408ZM273.577 131.408L271.497 133.57L271.507 133.58L271.517 133.589L273.577 131.408ZM276.288 112.1C273.871 114.28 272.857 117.307 272.857 120.688H278.857C278.857 118.523 279.47 117.31 280.306 116.556L276.288 112.1ZM272.857 120.688C272.857 124.069 273.871 127.097 276.288 129.276L280.306 124.82C279.47 124.067 278.857 122.854 278.857 120.688H272.857ZM276.306 129.293C278.502 131.24 281.128 132.248 284.057 132.248V126.248C282.613 126.248 281.399 125.79 280.288 124.804L276.306 129.293ZM284.057 132.248C286.987 132.248 289.609 131.239 291.786 129.276L287.768 124.82C286.692 125.791 285.501 126.248 284.057 126.248V132.248ZM291.786 129.276C294.204 127.097 295.217 124.069 295.217 120.688H289.217C289.217 122.854 288.604 124.067 287.768 124.82L291.786 129.276ZM295.217 120.688C295.217 117.307 294.204 114.28 291.786 112.1L287.768 116.556C288.604 117.31 289.217 118.523 289.217 120.688H295.217ZM291.806 112.118C289.632 110.123 287.003 109.088 284.057 109.088V115.088C285.484 115.088 286.669 115.548 287.748 116.538L291.806 112.118ZM284.057 109.088C281.112 109.088 278.48 110.121 276.286 112.102L280.308 116.555C281.422 115.549 282.629 115.088 284.057 115.088V109.088ZM272.297 120.728C272.297 117.044 273.46 114.305 275.647 112.22L271.507 107.877C267.988 111.232 266.297 115.613 266.297 120.728H272.297ZM275.648 112.219C277.95 110.023 280.694 108.928 284.057 108.928V102.928C279.207 102.928 274.964 104.58 271.507 107.877L275.648 112.219ZM284.057 108.928C287.42 108.928 290.145 110.023 292.417 112.21L296.578 107.887C293.143 104.581 288.908 102.928 284.057 102.928V108.928ZM292.417 112.21C294.618 114.329 295.777 117.077 295.777 120.728H301.777C301.777 115.633 300.083 111.261 296.578 107.887L292.417 112.21ZM295.777 120.728C295.777 124.38 294.618 127.128 292.417 129.247L296.578 133.57C300.083 130.196 301.777 125.823 301.777 120.728H295.777ZM292.427 129.237C290.157 131.401 287.429 132.488 284.057 132.488V138.488C288.899 138.488 293.131 136.856 296.567 133.58L292.427 129.237ZM284.057 132.488C280.686 132.488 277.938 131.4 275.637 129.227L271.517 133.589C274.977 136.856 279.216 138.488 284.057 138.488V132.488ZM275.658 129.247C273.456 127.128 272.297 124.38 272.297 120.728H266.297C266.297 125.823 267.992 130.196 271.497 133.57L275.658 129.247Z" fill="black" mask="url(#path-3-outside-1_16_25)"/>
<path fill-rule="evenodd" clip-rule="evenodd" d="M3 66.415V51.0788L21.9237 61.9431L28.5338 50.4018L62.6755 70.003L42.8452 104.627L8.70347 85.0257L15.3136 73.4844L3 66.415ZM81.7243 155.563L84.1425 151.341L72.762 144.807L85.9822 121.724C91.4174 112.234 88.1843 99.9843 78.8265 94.6118L61.7557 84.8112L55.1455 96.3525L72.2164 106.153C75.4394 108.004 76.4736 111.922 74.6016 115.191L61.3814 138.273L50.0008 131.74L36.3563 155.563H51.479L54.7713 149.815L64.784 155.563H81.7243ZM44.6848 75.0106L33.3042 68.4769L26.6941 80.0182L38.0747 86.5519L44.6848 75.0106Z" fill="white"/>
<path d="M3 66.415H0.5V67.8625L1.75527 68.5831L3 66.415ZM3 51.0788L4.24473 48.9107L0.5 46.7608V51.0788H3ZM21.9237 61.9431L20.6789 64.1112L22.8493 65.3573L24.0931 63.1856L21.9237 61.9431ZM28.5338 50.4018L29.7785 48.2337L27.6082 46.9877L26.3644 49.1593L28.5338 50.4018ZM62.6755 70.003L64.8449 71.2455L66.0861 69.0784L63.9202 67.8349L62.6755 70.003ZM42.8452 104.627L41.6004 106.795L43.7708 108.041L45.0145 105.869L42.8452 104.627ZM8.70347 85.0257L6.53409 83.7833L5.2929 85.9504L7.45874 87.1938L8.70347 85.0257ZM15.3136 73.4844L17.483 74.7269L18.7242 72.5598L16.5583 71.3163L15.3136 73.4844ZM81.7243 155.563V158.063H83.1735L83.8937 156.805L81.7243 155.563ZM84.1425 151.341L86.3119 152.583L87.5531 150.416L85.3873 149.173L84.1425 151.341ZM72.762 144.807L70.5926 143.565L69.3514 145.732L71.5172 146.975L72.762 144.807ZM85.9822 121.724L88.1516 122.967L85.9822 121.724ZM78.8265 94.6118L77.5818 96.7799L78.8265 94.6118ZM61.7557 84.8112L63.0004 82.6431L60.83 81.3971L59.5863 83.5687L61.7557 84.8112ZM55.1455 96.3525L52.9762 95.11L51.735 97.2772L53.9008 98.5206L55.1455 96.3525ZM72.2164 106.153L73.4611 103.985L72.2164 106.153ZM74.6016 115.191L72.4322 113.948V113.948L74.6016 115.191ZM61.3814 138.273L60.1367 140.441L62.307 141.687L63.5508 139.516L61.3814 138.273ZM50.0008 131.74L51.2456 129.571L49.0752 128.325L47.8315 130.497L50.0008 131.74ZM36.3563 155.563L34.1869 154.321L32.0435 158.063H36.3563V155.563ZM51.479 155.563V158.063H52.9281L53.6484 156.805L51.479 155.563ZM54.7713 149.815L56.016 147.646L53.8457 146.4L52.6019 148.572L54.7713 149.815ZM64.784 155.563L63.5393 157.731L64.1174 158.063H64.784V155.563ZM33.3042 68.4769L34.549 66.3088L32.3786 65.0627L31.1349 67.2344L33.3042 68.4769ZM44.6848 75.0106L46.8542 76.2531L48.0954 74.086L45.9295 72.8425L44.6848 75.0106ZM26.6941 80.0182L24.5248 78.7757L23.2836 80.9428L25.4494 82.1863L26.6941 80.0182ZM38.0747 86.5519L36.83 88.72L39.0003 89.966L40.2441 87.7944L38.0747 86.5519ZM5.5 66.415V51.0788H0.5V66.415H5.5ZM23.1684 59.775L4.24473 48.9107L1.75527 53.2469L20.6789 64.1112L23.1684 59.775ZM26.3644 49.1593L19.7543 60.7007L24.0931 63.1856L30.7032 51.6443L26.3644 49.1593ZM63.9202 67.8349L29.7785 48.2337L27.2891 52.5699L61.4307 72.1711L63.9202 67.8349ZM45.0145 105.869L64.8449 71.2455L60.5061 68.7606L40.6758 103.384L45.0145 105.869ZM7.45874 87.1938L41.6004 106.795L44.0899 102.459L9.94821 82.8576L7.45874 87.1938ZM13.1442 72.242L6.53409 83.7833L10.8729 86.2682L17.483 74.7269L13.1442 72.242ZM1.75527 68.5831L14.0688 75.6525L16.5583 71.3163L4.24473 64.2469L1.75527 68.5831ZM83.8937 156.805L86.3119 152.583L81.9731 150.098L79.5549 154.321L83.8937 156.805ZM85.3873 149.173L74.0067 142.639L71.5172 146.975L82.8978 153.509L85.3873 149.173ZM74.9314 146.049L88.1516 122.967L83.8128 120.482L70.5926 143.565L74.9314 146.049ZM88.1516 122.967C94.2568 112.307 90.6529 98.5188 80.0712 92.4437L77.5818 96.7799C85.7158 101.45 88.5781 112.162 83.8128 120.482L88.1516 122.967ZM80.0712 92.4437L63.0004 82.6431L60.5109 86.9793L77.5818 96.7799L80.0712 92.4437ZM59.5863 83.5687L52.9762 95.11L57.3149 97.595L63.925 86.0537L59.5863 83.5687ZM53.9008 98.5206L70.9717 108.321L73.4611 103.985L56.3903 94.1844L53.9008 98.5206ZM70.9717 108.321C72.9708 109.469 73.6343 111.849 72.4322 113.948L76.771 116.433C79.3129 111.995 77.908 106.538 73.4611 103.985L70.9717 108.321ZM72.4322 113.948L59.212 137.031L63.5508 139.516L76.771 116.433L72.4322 113.948ZM62.6261 136.105L51.2456 129.571L48.7561 133.908L60.1367 140.441L62.6261 136.105ZM47.8315 130.497L34.1869 154.321L38.5257 156.805L52.1702 132.982L47.8315 130.497ZM51.479 153.063H36.3563V158.063H51.479V153.063ZM53.6484 156.805L56.9407 151.057L52.6019 148.572L49.3096 154.321L53.6484 156.805ZM53.5266 151.983L63.5393 157.731L66.0287 153.395L56.016 147.646L53.5266 151.983ZM81.7243 153.063H64.784V158.063H81.7243V153.063ZM32.0595 70.645L43.4401 77.1787L45.9295 72.8425L34.549 66.3088L32.0595 70.645ZM28.8635 81.2607L35.4736 69.7194L31.1349 67.2344L24.5248 78.7757L28.8635 81.2607ZM39.3194 84.3838L27.9389 77.8501L25.4494 82.1863L36.83 88.72L39.3194 84.3838ZM42.5154 73.7681L35.9053 85.3094L40.2441 87.7944L46.8542 76.2531L42.5154 73.7681Z" fill="black"/>
</svg>
