<svg width="250" height="76" viewBox="0 0 250 76" fill="none" xmlns="http://www.w3.org/2000/svg">
<rect y="1.90571" width="250" height="73.8189" rx="12.5" fill="#202020" fill-opacity="0.2"/>
<rect x="2.5" y="3.22461" width="245" height="68.8189" rx="10" fill="#FC5050" stroke="black" stroke-width="5"/>
<mask id="path-3-outside-1_14_74" maskUnits="userSpaceOnUse" x="58" y="21" width="135" height="35" fill="black">
<rect fill="white" x="58" y="21" width="135" height="35"/>
<path d="M79.08 53H61.08V24.64H79.04V30.6H67.4V36H77.96V41.56H67.4V47H79.08V53ZM108.24 53H101.56L89.8803 34.36V53H83.6003V24.64H91.2803L101.92 41.88V24.64H108.24V53ZM135.023 30.68H126.263V53H119.943V30.68H111.223V24.64H135.023V30.68ZM151.695 53L146.615 42.44H144.375V53H138.055V24.64H149.295C152.042 24.64 154.255 25.48 155.935 27.16C157.642 28.84 158.495 30.96 158.495 33.52C158.495 35.44 158.002 37.1067 157.015 38.52C156.028 39.9067 154.655 40.9067 152.895 41.52L158.655 53H151.695ZM144.375 37H148.095C149.375 37 150.362 36.6933 151.055 36.08C151.748 35.44 152.095 34.6 152.095 33.56C152.095 32.4933 151.748 31.6533 151.055 31.04C150.362 30.4267 149.375 30.12 148.095 30.12H144.375V37ZM181.333 53L179.293 47.24H168.333L166.293 53H159.653L170.333 24.64H177.653L188.213 53H181.333ZM173.893 31.68L170.413 41.48H177.293L173.893 31.68Z"/>
</mask>
<path d="M79.08 53H61.08V24.64H79.04V30.6H67.4V36H77.96V41.56H67.4V47H79.08V53ZM108.24 53H101.56L89.8803 34.36V53H83.6003V24.64H91.2803L101.92 41.88V24.64H108.24V53ZM135.023 30.68H126.263V53H119.943V30.68H111.223V24.64H135.023V30.68ZM151.695 53L146.615 42.44H144.375V53H138.055V24.64H149.295C152.042 24.64 154.255 25.48 155.935 27.16C157.642 28.84 158.495 30.96 158.495 33.52C158.495 35.44 158.002 37.1067 157.015 38.52C156.028 39.9067 154.655 40.9067 152.895 41.52L158.655 53H151.695ZM144.375 37H148.095C149.375 37 150.362 36.6933 151.055 36.08C151.748 35.44 152.095 34.6 152.095 33.56C152.095 32.4933 151.748 31.6533 151.055 31.04C150.362 30.4267 149.375 30.12 148.095 30.12H144.375V37ZM181.333 53L179.293 47.24H168.333L166.293 53H159.653L170.333 24.64H177.653L188.213 53H181.333ZM173.893 31.68L170.413 41.48H177.293L173.893 31.68Z" fill="white"/>
<path d="M79.08 53V56H82.08V53H79.08ZM61.08 53H58.08V56H61.08V53ZM61.08 24.64V21.64H58.08V24.64H61.08ZM79.04 24.64H82.04V21.64H79.04V24.64ZM79.04 30.6V33.6H82.04V30.6H79.04ZM67.4 30.6V27.6H64.4V30.6H67.4ZM67.4 36H64.4V39H67.4V36ZM77.96 36H80.96V33H77.96V36ZM77.96 41.56V44.56H80.96V41.56H77.96ZM67.4 41.56V38.56H64.4V41.56H67.4ZM67.4 47H64.4V50H67.4V47ZM79.08 47H82.08V44H79.08V47ZM79.08 50H61.08V56H79.08V50ZM64.08 53V24.64H58.08V53H64.08ZM61.08 27.64H79.04V21.64H61.08V27.64ZM76.04 24.64V30.6H82.04V24.64H76.04ZM79.04 27.6H67.4V33.6H79.04V27.6ZM64.4 30.6V36H70.4V30.6H64.4ZM67.4 39H77.96V33H67.4V39ZM74.96 36V41.56H80.96V36H74.96ZM77.96 38.56H67.4V44.56H77.96V38.56ZM64.4 41.56V47H70.4V41.56H64.4ZM67.4 50H79.08V44H67.4V50ZM76.08 47V53H82.08V47H76.08ZM108.24 53V56H111.24V53H108.24ZM101.56 53L99.0182 54.5929L99.8998 56H101.56V53ZM89.8803 34.36L92.4225 32.7671L86.8803 23.9224V34.36H89.8803ZM89.8803 53V56H92.8803V53H89.8803ZM83.6003 53H80.6003V56H83.6003V53ZM83.6003 24.64V21.64H80.6003V24.64H83.6003ZM91.2803 24.64L93.8333 23.0644L92.9542 21.64H91.2803V24.64ZM101.92 41.88L99.3674 43.4556L104.92 52.453V41.88H101.92ZM101.92 24.64V21.64H98.9203V24.64H101.92ZM108.24 24.64H111.24V21.64H108.24V24.64ZM108.24 50H101.56V56H108.24V50ZM104.102 51.4071L92.4225 32.7671L87.3382 35.9529L99.0182 54.5929L104.102 51.4071ZM86.8803 34.36V53H92.8803V34.36H86.8803ZM89.8803 50H83.6003V56H89.8803V50ZM86.6003 53V24.64H80.6003V53H86.6003ZM83.6003 27.64H91.2803V21.64H83.6003V27.64ZM88.7274 26.2156L99.3674 43.4556L104.473 40.3044L93.8333 23.0644L88.7274 26.2156ZM104.92 41.88V24.64H98.9203V41.88H104.92ZM101.92 27.64H108.24V21.64H101.92V27.64ZM105.24 24.64V53H111.24V24.64H105.24ZM135.023 30.68V33.68H138.023V30.68H135.023ZM126.263 30.68V27.68H123.263V30.68H126.263ZM126.263 53V56H129.263V53H126.263ZM119.943 53H116.943V56H119.943V53ZM119.943 30.68H122.943V27.68H119.943V30.68ZM111.223 30.68H108.223V33.68H111.223V30.68ZM111.223 24.64V21.64H108.223V24.64H111.223ZM135.023 24.64H138.023V21.64H135.023V24.64ZM135.023 27.68H126.263V33.68H135.023V27.68ZM123.263 30.68V53H129.263V30.68H123.263ZM126.263 50H119.943V56H126.263V50ZM122.943 53V30.68H116.943V53H122.943ZM119.943 27.68H111.223V33.68H119.943V27.68ZM114.223 30.68V24.64H108.223V30.68H114.223ZM111.223 27.64H135.023V21.64H111.223V27.64ZM132.023 24.64V30.68H138.023V24.64H132.023ZM151.695 53L148.992 54.3005L149.809 56H151.695V53ZM146.615 42.44L149.318 41.1395L148.501 39.44H146.615V42.44ZM144.375 42.44V39.44H141.375V42.44H144.375ZM144.375 53V56H147.375V53H144.375ZM138.055 53H135.055V56H138.055V53ZM138.055 24.64V21.64H135.055V24.64H138.055ZM155.935 27.16L153.814 29.2813L153.822 29.2897L153.83 29.298L155.935 27.16ZM157.015 38.52L159.459 40.2593L159.467 40.2483L159.475 40.2373L157.015 38.52ZM152.895 41.52L151.908 38.6871L148.681 39.8115L150.214 42.8654L152.895 41.52ZM158.655 53V56H163.517L161.336 51.6546L158.655 53ZM144.375 37H141.375V40H144.375V37ZM151.055 36.08L153.043 38.327L153.067 38.3059L153.09 38.2844L151.055 36.08ZM151.055 31.04L149.067 33.287L149.067 33.287L151.055 31.04ZM144.375 30.12V27.12H141.375V30.12H144.375ZM154.398 51.6995L149.318 41.1395L143.912 43.7405L148.992 54.3005L154.398 51.6995ZM146.615 39.44H144.375V45.44H146.615V39.44ZM141.375 42.44V53H147.375V42.44H141.375ZM144.375 50H138.055V56H144.375V50ZM141.055 53V24.64H135.055V53H141.055ZM138.055 27.64H149.295V21.64H138.055V27.64ZM149.295 27.64C151.38 27.64 152.785 28.2524 153.814 29.2813L158.056 25.0387C155.725 22.7076 152.703 21.64 149.295 21.64V27.64ZM153.83 29.298C154.922 30.3723 155.495 31.7023 155.495 33.52H161.495C161.495 30.2177 160.362 27.3077 158.04 25.022L153.83 29.298ZM155.495 33.52C155.495 34.8987 155.151 35.9497 154.555 36.8027L159.475 40.2373C160.853 38.2636 161.495 35.9812 161.495 33.52H155.495ZM154.571 36.7807C153.979 37.6122 153.139 38.258 151.908 38.6871L153.882 44.3529C156.171 43.5553 158.078 42.2011 159.459 40.2593L154.571 36.7807ZM150.214 42.8654L155.974 54.3454L161.336 51.6546L155.576 40.1746L150.214 42.8654ZM158.655 50H151.695V56H158.655V50ZM144.375 40H148.095V34H144.375V40ZM148.095 40C149.827 40 151.622 39.5838 153.043 38.327L149.067 33.833C149.067 33.8332 149.06 33.8398 149.039 33.8512C149.017 33.863 148.975 33.8832 148.905 33.9052C148.759 33.9505 148.502 34 148.095 34V40ZM153.09 38.2844C154.465 37.015 155.095 35.3421 155.095 33.56H149.095C149.095 33.7436 149.065 33.8171 149.062 33.8255C149.059 33.8319 149.058 33.8346 149.055 33.8377C149.053 33.841 149.044 33.8539 149.02 33.8756L153.09 38.2844ZM155.095 33.56C155.095 31.7786 154.481 30.0651 153.043 28.793L149.067 33.287C149.078 33.2962 149.076 33.2967 149.07 33.2883C149.064 33.2798 149.061 33.2734 149.062 33.2745C149.063 33.2763 149.07 33.2955 149.078 33.3392C149.086 33.3837 149.095 33.4555 149.095 33.56H155.095ZM153.043 28.793C151.622 27.5362 149.827 27.12 148.095 27.12V33.12C148.502 33.12 148.759 33.1695 148.905 33.2148C148.975 33.2368 149.017 33.257 149.039 33.2688C149.06 33.2802 149.067 33.2868 149.067 33.287L153.043 28.793ZM148.095 27.12H144.375V33.12H148.095V27.12ZM141.375 30.12V37H147.375V30.12H141.375ZM181.333 53L178.505 54.0015L179.213 56H181.333V53ZM179.293 47.24L182.121 46.2385L181.413 44.24H179.293V47.24ZM168.333 47.24V44.24H166.213L165.505 46.2385L168.333 47.24ZM166.293 53V56H168.413L169.121 54.0015L166.293 53ZM159.653 53L156.846 51.9427L155.318 56H159.653V53ZM170.333 24.64V21.64H168.257L167.526 23.5827L170.333 24.64ZM177.653 24.64L180.465 23.5931L179.737 21.64H177.653V24.64ZM188.213 53V56H192.531L191.025 51.9532L188.213 53ZM173.893 31.68L176.727 30.6967L173.926 22.6222L171.066 30.6761L173.893 31.68ZM170.413 41.48L167.586 40.4761L166.164 44.48H170.413V41.48ZM177.293 41.48V44.48H181.509L180.127 40.4967L177.293 41.48ZM184.161 51.9985L182.121 46.2385L176.465 48.2415L178.505 54.0015L184.161 51.9985ZM179.293 44.24H168.333V50.24H179.293V44.24ZM165.505 46.2385L163.465 51.9985L169.121 54.0015L171.161 48.2415L165.505 46.2385ZM166.293 50H159.653V56H166.293V50ZM162.461 54.0573L173.141 25.6973L167.526 23.5827L156.846 51.9427L162.461 54.0573ZM170.333 27.64H177.653V21.64H170.333V27.64ZM174.842 25.6868L185.402 54.0468L191.025 51.9532L180.465 23.5931L174.842 25.6868ZM188.213 50H181.333V56H188.213V50ZM171.066 30.6761L167.586 40.4761L173.24 42.4839L176.72 32.6839L171.066 30.6761ZM170.413 44.48H177.293V38.48H170.413V44.48ZM180.127 40.4967L176.727 30.6967L171.059 32.6633L174.459 42.4633L180.127 40.4967Z" fill="black" mask="url(#path-3-outside-1_14_74)"/>
</svg>
