<svg width="45" height="45" viewBox="0 0 45 45" fill="none" xmlns="http://www.w3.org/2000/svg">
<path d="M7.56409 33.4711C8.7685 33.4711 9.74487 32.4947 9.74487 31.2903C9.74487 30.0859 8.7685 29.1095 7.56409 29.1095C6.35967 29.1095 5.3833 30.0859 5.3833 31.2903C5.3833 32.4947 6.35967 33.4711 7.56409 33.4711Z" fill="url(#paint0_radial_22_339)"/>
<path d="M37.4524 33.4876C38.6568 33.4876 39.6332 32.5112 39.6332 31.3068C39.6332 30.1024 38.6568 29.126 37.4524 29.126C36.248 29.126 35.2716 30.1024 35.2716 31.3068C35.2716 32.5112 36.248 33.4876 37.4524 33.4876Z" fill="url(#paint1_radial_22_339)"/>
<path d="M37.4524 33.4876C38.6568 33.4876 39.6332 32.5112 39.6332 31.3068C39.6332 30.1024 38.6568 29.126 37.4524 29.126C36.248 29.126 35.2716 30.1024 35.2716 31.3068C35.2716 32.5112 36.248 33.4876 37.4524 33.4876Z" fill="url(#paint2_radial_22_339)"/>
<path d="M12.6672 16.9916C11.8235 18.2572 11.2097 19.9799 10.9973 20.639L14.2933 23.012L16.8091 19.826C16.5125 19.3683 15.8071 18.3483 15.4028 17.821C14.9985 17.2936 14.3885 16.6492 14.1394 16.3928L12.6672 16.9916Z" fill="url(#paint3_radial_22_339)"/>
<path d="M12.6672 16.9916C11.8235 18.2572 11.2097 19.9799 10.9973 20.639L14.2933 23.012L16.8091 19.826C16.5125 19.3683 15.8071 18.3483 15.4028 17.821C14.9985 17.2936 14.3885 16.6492 14.1394 16.3928L12.6672 16.9916Z" fill="url(#paint4_radial_22_339)"/>
<path d="M32.3327 16.9916C33.1765 18.2572 33.7902 19.9799 34.0027 20.639L30.7067 23.012L28.1909 19.826C28.4875 19.3683 29.1929 18.3483 29.5972 17.821C30.0015 17.2936 30.6115 16.6492 30.8605 16.3928L32.3327 16.9916Z" fill="url(#paint5_radial_22_339)"/>
<path d="M32.3327 16.9916C33.1765 18.2572 33.7902 19.9799 34.0027 20.639L30.7067 23.012L28.1909 19.826C28.4875 19.3683 29.1929 18.3483 29.5972 17.821C30.0015 17.2936 30.6115 16.6492 30.8605 16.3928L32.3327 16.9916Z" fill="url(#paint6_radial_22_339)"/>
<path d="M32.3327 16.9916C33.1765 18.2572 33.7902 19.9799 34.0027 20.639L30.7067 23.012L28.1909 19.826C28.4875 19.3683 29.1929 18.3483 29.5972 17.821C30.0015 17.2936 30.6115 16.6492 30.8605 16.3928L32.3327 16.9916Z" fill="url(#paint7_radial_22_339)"/>
<path d="M4.39453 17.0904L8.76267 38.4074C8.97716 39.4542 9.89833 40.2057 10.9669 40.2057H34.0331C35.1017 40.2057 36.0228 39.4542 36.2374 38.4074L40.6055 17.0904L39.211 16.4092C37.123 17.9253 32.7535 21.0345 31.6247 21.7157C30.7246 22.2588 29.8979 21.3736 29.7267 21.1224C28.1552 18.8153 25.7586 15.4574 24.8621 14.2779C23.9435 13.0694 22.9058 12.4725 22.5 12.4212C22.0942 12.4725 21.0565 13.0694 20.1379 14.2779C19.2414 15.4574 16.8448 18.8153 15.2733 21.1224C15.1021 21.3736 14.2754 22.2588 13.3753 21.7157C12.2465 21.0345 7.87693 17.9253 5.78897 16.4092L4.39453 17.0904Z" fill="url(#paint8_linear_22_339)"/>
<path d="M4.39453 17.0904L8.76267 38.4074C8.97716 39.4542 9.89833 40.2057 10.9669 40.2057H34.0331C35.1017 40.2057 36.0228 39.4542 36.2374 38.4074L40.6055 17.0904L39.211 16.4092C37.123 17.9253 32.7535 21.0345 31.6247 21.7157C30.7246 22.2588 29.8979 21.3736 29.7267 21.1224C28.1552 18.8153 25.7586 15.4574 24.8621 14.2779C23.9435 13.0694 22.9058 12.4725 22.5 12.4212C22.0942 12.4725 21.0565 13.0694 20.1379 14.2779C19.2414 15.4574 16.8448 18.8153 15.2733 21.1224C15.1021 21.3736 14.2754 22.2588 13.3753 21.7157C12.2465 21.0345 7.87693 17.9253 5.78897 16.4092L4.39453 17.0904Z" fill="url(#paint9_radial_22_339)"/>
<path d="M4.39453 17.0904L8.76267 38.4074C8.97716 39.4542 9.89833 40.2057 10.9669 40.2057H34.0331C35.1017 40.2057 36.0228 39.4542 36.2374 38.4074L40.6055 17.0904L39.211 16.4092C37.123 17.9253 32.7535 21.0345 31.6247 21.7157C30.7246 22.2588 29.8979 21.3736 29.7267 21.1224C28.1552 18.8153 25.7586 15.4574 24.8621 14.2779C23.9435 13.0694 22.9058 12.4725 22.5 12.4212C22.0942 12.4725 21.0565 13.0694 20.1379 14.2779C19.2414 15.4574 16.8448 18.8153 15.2733 21.1224C15.1021 21.3736 14.2754 22.2588 13.3753 21.7157C12.2465 21.0345 7.87693 17.9253 5.78897 16.4092L4.39453 17.0904Z" fill="url(#paint10_linear_22_339)"/>
<path d="M4.39453 17.0904L8.76267 38.4074C8.97716 39.4542 9.89833 40.2057 10.9669 40.2057H34.0331C35.1017 40.2057 36.0228 39.4542 36.2374 38.4074L40.6055 17.0904L39.211 16.4092C37.123 17.9253 32.7535 21.0345 31.6247 21.7157C30.7246 22.2588 29.8979 21.3736 29.7267 21.1224C28.1552 18.8153 25.7586 15.4574 24.8621 14.2779C23.9435 13.0694 22.9058 12.4725 22.5 12.4212C22.0942 12.4725 21.0565 13.0694 20.1379 14.2779C19.2414 15.4574 16.8448 18.8153 15.2733 21.1224C15.1021 21.3736 14.2754 22.2588 13.3753 21.7157C12.2465 21.0345 7.87693 17.9253 5.78897 16.4092L4.39453 17.0904Z" fill="url(#paint11_linear_22_339)"/>
<path d="M4.39453 17.0904L8.76267 38.4074C8.97716 39.4542 9.89833 40.2057 10.9669 40.2057H34.0331C35.1017 40.2057 36.0228 39.4542 36.2374 38.4074L40.6055 17.0904L39.211 16.4092C37.123 17.9253 32.7535 21.0345 31.6247 21.7157C30.7246 22.2588 29.8979 21.3736 29.7267 21.1224C28.1552 18.8153 25.7586 15.4574 24.8621 14.2779C23.9435 13.0694 22.9058 12.4725 22.5 12.4212C22.0942 12.4725 21.0565 13.0694 20.1379 14.2779C19.2414 15.4574 16.8448 18.8153 15.2733 21.1224C15.1021 21.3736 14.2754 22.2588 13.3753 21.7157C12.2465 21.0345 7.87693 17.9253 5.78897 16.4092L4.39453 17.0904Z" fill="url(#paint12_linear_22_339)"/>
<path d="M4.39453 17.0904L8.76267 38.4074C8.97716 39.4542 9.89833 40.2057 10.9669 40.2057H34.0331C35.1017 40.2057 36.0228 39.4542 36.2374 38.4074L40.6055 17.0904L39.211 16.4092C37.123 17.9253 32.7535 21.0345 31.6247 21.7157C30.7246 22.2588 29.8979 21.3736 29.7267 21.1224C28.1552 18.8153 25.7586 15.4574 24.8621 14.2779C23.9435 13.0694 22.9058 12.4725 22.5 12.4212C22.0942 12.4725 21.0565 13.0694 20.1379 14.2779C19.2414 15.4574 16.8448 18.8153 15.2733 21.1224C15.1021 21.3736 14.2754 22.2588 13.3753 21.7157C12.2465 21.0345 7.87693 17.9253 5.78897 16.4092L4.39453 17.0904Z" fill="url(#paint13_radial_22_339)"/>
<path d="M4.39453 17.0904L8.76267 38.4074C8.97716 39.4542 9.89833 40.2057 10.9669 40.2057H34.0331C35.1017 40.2057 36.0228 39.4542 36.2374 38.4074L40.6055 17.0904L39.211 16.4092C37.123 17.9253 32.7535 21.0345 31.6247 21.7157C30.7246 22.2588 29.8979 21.3736 29.7267 21.1224C28.1552 18.8153 25.7586 15.4574 24.8621 14.2779C23.9435 13.0694 22.9058 12.4725 22.5 12.4212C22.0942 12.4725 21.0565 13.0694 20.1379 14.2779C19.2414 15.4574 16.8448 18.8153 15.2733 21.1224C15.1021 21.3736 14.2754 22.2588 13.3753 21.7157C12.2465 21.0345 7.87693 17.9253 5.78897 16.4092L4.39453 17.0904Z" fill="url(#paint14_radial_22_339)"/>
<path d="M4.39453 17.0904L8.76267 38.4074C8.97716 39.4542 9.89833 40.2057 10.9669 40.2057H34.0331C35.1017 40.2057 36.0228 39.4542 36.2374 38.4074L40.6055 17.0904L39.211 16.4092C37.123 17.9253 32.7535 21.0345 31.6247 21.7157C30.7246 22.2588 29.8979 21.3736 29.7267 21.1224C28.1552 18.8153 25.7586 15.4574 24.8621 14.2779C23.9435 13.0694 22.9058 12.4725 22.5 12.4212C22.0942 12.4725 21.0565 13.0694 20.1379 14.2779C19.2414 15.4574 16.8448 18.8153 15.2733 21.1224C15.1021 21.3736 14.2754 22.2588 13.3753 21.7157C12.2465 21.0345 7.87693 17.9253 5.78897 16.4092L4.39453 17.0904Z" fill="url(#paint15_radial_22_339)"/>
<path d="M33.4396 31.9818C33.0668 33.127 31.8684 33.7011 30.7231 33.3283C29.8608 32.9767 29.4879 31.9906 29.8608 30.8454C30.2336 29.7001 31.4077 29.043 32.1184 29.2743C33.2637 29.6471 33.8125 30.8365 33.4396 31.9818Z" fill="url(#paint16_radial_22_339)"/>
<path d="M33.4396 31.9818C33.0668 33.127 31.8684 33.7011 30.7231 33.3283C29.8608 32.9767 29.4879 31.9906 29.8608 30.8454C30.2336 29.7001 31.4077 29.043 32.1184 29.2743C33.2637 29.6471 33.8125 30.8365 33.4396 31.9818Z" fill="url(#paint17_radial_22_339)"/>
<path d="M11.6677 31.9818C12.0405 33.127 13.2389 33.7011 14.3842 33.3283C15.2467 32.9767 15.6195 31.9906 15.2467 30.8454C14.8737 29.7001 13.6997 29.043 12.9889 29.2743C11.8437 29.6471 11.2949 30.8365 11.6677 31.9818Z" fill="url(#paint18_radial_22_339)"/>
<path d="M11.6677 31.9818C12.0405 33.127 13.2389 33.7011 14.3842 33.3283C15.2467 32.9767 15.6195 31.9906 15.2467 30.8454C14.8737 29.7001 13.6997 29.043 12.9889 29.2743C11.8437 29.6471 11.2949 30.8365 11.6677 31.9818Z" fill="url(#paint19_radial_22_339)"/>
<path d="M6.92139 16.7691C6.92139 17.8491 6.04586 18.7246 4.96583 18.7246C3.8858 18.7246 3.01025 17.8491 3.01025 16.7691C3.01025 15.6891 3.8858 14.8136 4.96583 14.8136C6.04586 14.8136 6.92139 15.6891 6.92139 16.7691Z" fill="url(#paint20_radial_22_339)"/>
<path d="M6.92139 16.7691C6.92139 17.8491 6.04586 18.7246 4.96583 18.7246C3.8858 18.7246 3.01025 17.8491 3.01025 16.7691C3.01025 15.6891 3.8858 14.8136 4.96583 14.8136C6.04586 14.8136 6.92139 15.6891 6.92139 16.7691Z" fill="url(#paint21_radial_22_339)"/>
<path d="M6.92139 16.7691C6.92139 17.8491 6.04586 18.7246 4.96583 18.7246C3.8858 18.7246 3.01025 17.8491 3.01025 16.7691C3.01025 15.6891 3.8858 14.8136 4.96583 14.8136C6.04586 14.8136 6.92139 15.6891 6.92139 16.7691Z" fill="url(#paint22_radial_22_339)"/>
<path d="M6.92139 16.7691C6.92139 17.8491 6.04586 18.7246 4.96583 18.7246C3.8858 18.7246 3.01025 17.8491 3.01025 16.7691C3.01025 15.6891 3.8858 14.8136 4.96583 14.8136C6.04586 14.8136 6.92139 15.6891 6.92139 16.7691Z" fill="url(#paint23_radial_22_339)"/>
<path d="M14.4572 17.1277C15.0362 16.7882 15.4249 16.1594 15.4249 15.4398C15.4249 14.3596 14.5492 13.4842 13.4692 13.4842C12.3892 13.4842 11.5137 14.3596 11.5137 15.4398C11.5137 16.188 11.934 16.8382 12.5513 17.1669C12.6738 17.1183 12.8973 17.0702 13.1396 17.1399C13.441 17.2267 13.936 17.3361 14.4572 17.1277Z" fill="url(#paint24_radial_22_339)"/>
<path d="M14.4572 17.1277C15.0362 16.7882 15.4249 16.1594 15.4249 15.4398C15.4249 14.3596 14.5492 13.4842 13.4692 13.4842C12.3892 13.4842 11.5137 14.3596 11.5137 15.4398C11.5137 16.188 11.934 16.8382 12.5513 17.1669C12.6738 17.1183 12.8973 17.0702 13.1396 17.1399C13.441 17.2267 13.936 17.3361 14.4572 17.1277Z" fill="url(#paint25_radial_22_339)"/>
<path d="M14.4572 17.1277C15.0362 16.7882 15.4249 16.1594 15.4249 15.4398C15.4249 14.3596 14.5492 13.4842 13.4692 13.4842C12.3892 13.4842 11.5137 14.3596 11.5137 15.4398C11.5137 16.188 11.934 16.8382 12.5513 17.1669C12.6738 17.1183 12.8973 17.0702 13.1396 17.1399C13.441 17.2267 13.936 17.3361 14.4572 17.1277Z" fill="url(#paint26_radial_22_339)"/>
<path d="M14.4572 17.1277C15.0362 16.7882 15.4249 16.1594 15.4249 15.4398C15.4249 14.3596 14.5492 13.4842 13.4692 13.4842C12.3892 13.4842 11.5137 14.3596 11.5137 15.4398C11.5137 16.188 11.934 16.8382 12.5513 17.1669C12.6738 17.1183 12.8973 17.0702 13.1396 17.1399C13.441 17.2267 13.936 17.3361 14.4572 17.1277Z" fill="url(#paint27_radial_22_339)"/>
<path d="M30.5427 17.1277C29.9638 16.7882 29.5751 16.1594 29.5751 15.4398C29.5751 14.3596 30.4507 13.4842 31.5307 13.4842C32.6107 13.4842 33.4863 14.3596 33.4863 15.4398C33.4863 16.188 33.0659 16.8382 32.4486 17.1669C32.3261 17.1183 32.1027 17.0702 31.8604 17.1399C31.5589 17.2267 31.064 17.3361 30.5427 17.1277Z" fill="url(#paint28_radial_22_339)"/>
<path d="M30.5427 17.1277C29.9638 16.7882 29.5751 16.1594 29.5751 15.4398C29.5751 14.3596 30.4507 13.4842 31.5307 13.4842C32.6107 13.4842 33.4863 14.3596 33.4863 15.4398C33.4863 16.188 33.0659 16.8382 32.4486 17.1669C32.3261 17.1183 32.1027 17.0702 31.8604 17.1399C31.5589 17.2267 31.064 17.3361 30.5427 17.1277Z" fill="url(#paint29_radial_22_339)"/>
<path d="M22.5538 34.8663C24.4705 34.8663 26.0242 33.3125 26.0242 31.3958C26.0242 29.4791 24.4705 27.9253 22.5538 27.9253C20.637 27.9253 19.0833 29.4791 19.0833 31.3958C19.0833 33.3125 20.637 34.8663 22.5538 34.8663Z" fill="url(#paint30_radial_22_339)"/>
<path d="M22.7966 13.1557C23.0384 13.1264 23.658 13.2523 24.2029 13.9906C24.7478 14.7289 28.0628 19.4545 29.6521 21.725C29.9598 22.201 30.8695 22.9511 32.0472 22.1425C33.225 21.3339 37.013 18.5919 38.4412 17.6397" stroke="url(#paint31_linear_22_339)" stroke-width="0.15"/>
<path d="M22.7966 13.1557C23.0384 13.1264 23.658 13.2523 24.2029 13.9906C24.7478 14.7289 28.0628 19.4545 29.6521 21.725C29.9598 22.201 30.8695 22.9511 32.0472 22.1425C33.225 21.3339 37.013 18.5919 38.4412 17.6397" stroke="url(#paint32_radial_22_339)" stroke-width="0.15"/>
<path d="M22.4945 13.2837C23.8931 13.2837 25.0269 12.1499 25.0269 10.7513C25.0269 9.35275 23.8931 8.21898 22.4945 8.21898C21.0959 8.21898 19.9622 9.35275 19.9622 10.7513C19.9622 12.1499 21.0959 13.2837 22.4945 13.2837Z" fill="url(#paint33_radial_22_339)"/>
<path d="M22.4945 13.2837C23.8931 13.2837 25.0269 12.1499 25.0269 10.7513C25.0269 9.35275 23.8931 8.21898 22.4945 8.21898C21.0959 8.21898 19.9622 9.35275 19.9622 10.7513C19.9622 12.1499 21.0959 13.2837 22.4945 13.2837Z" fill="url(#paint34_radial_22_339)"/>
<path d="M22.4945 13.2837C23.8931 13.2837 25.0269 12.1499 25.0269 10.7513C25.0269 9.35275 23.8931 8.21898 22.4945 8.21898C21.0959 8.21898 19.9622 9.35275 19.9622 10.7513C19.9622 12.1499 21.0959 13.2837 22.4945 13.2837Z" fill="url(#paint35_radial_22_339)"/>
<path d="M22.4945 13.2837C23.8931 13.2837 25.0269 12.1499 25.0269 10.7513C25.0269 9.35275 23.8931 8.21898 22.4945 8.21898C21.0959 8.21898 19.9622 9.35275 19.9622 10.7513C19.9622 12.1499 21.0959 13.2837 22.4945 13.2837Z" fill="url(#paint36_radial_22_339)"/>
<path d="M42.0777 16.7691C42.0777 17.8491 41.2022 18.7246 40.122 18.7246C39.042 18.7246 38.1665 17.8491 38.1665 16.7691C38.1665 15.6891 39.042 14.8136 40.122 14.8136C41.2022 14.8136 42.0777 15.6891 42.0777 16.7691Z" fill="url(#paint37_radial_22_339)"/>
<path d="M42.0777 16.7691C42.0777 17.8491 41.2022 18.7246 40.122 18.7246C39.042 18.7246 38.1665 17.8491 38.1665 16.7691C38.1665 15.6891 39.042 14.8136 40.122 14.8136C41.2022 14.8136 42.0777 15.6891 42.0777 16.7691Z" fill="url(#paint38_radial_22_339)"/>
<path d="M42.0777 16.7691C42.0777 17.8491 41.2022 18.7246 40.122 18.7246C39.042 18.7246 38.1665 17.8491 38.1665 16.7691C38.1665 15.6891 39.042 14.8136 40.122 14.8136C41.2022 14.8136 42.0777 15.6891 42.0777 16.7691Z" fill="url(#paint39_radial_22_339)"/>
<path d="M42.0777 16.7691C42.0777 17.8491 41.2022 18.7246 40.122 18.7246C39.042 18.7246 38.1665 17.8491 38.1665 16.7691C38.1665 15.6891 39.042 14.8136 40.122 14.8136C41.2022 14.8136 42.0777 15.6891 42.0777 16.7691Z" fill="url(#paint40_radial_22_339)"/>
<defs>
<radialGradient id="paint0_radial_22_339" cx="0" cy="0" r="1" gradientUnits="userSpaceOnUse" gradientTransform="translate(7.56408 32.691) rotate(-103.54) scale(2.4635 3.03286)">
<stop stop-color="#395DE0"/>
<stop offset="1" stop-color="#2C68A3"/>
</radialGradient>
<radialGradient id="paint1_radial_22_339" cx="0" cy="0" r="1" gradientUnits="userSpaceOnUse" gradientTransform="translate(38.8037 29.505) rotate(108.743) scale(4.20556 4.20556)">
<stop offset="0.248616" stop-color="#3DB3F3"/>
<stop offset="1" stop-color="#5B73F4"/>
</radialGradient>
<radialGradient id="paint2_radial_22_339" cx="0" cy="0" r="1" gradientUnits="userSpaceOnUse" gradientTransform="translate(39.5068 30.4498) rotate(161.162) scale(1.97339 1.25117)">
<stop offset="0.257996" stop-color="#5FBEFF"/>
<stop offset="1" stop-color="#5FBEFF" stop-opacity="0"/>
</radialGradient>
<radialGradient id="paint3_radial_22_339" cx="0" cy="0" r="1" gradientUnits="userSpaceOnUse" gradientTransform="translate(12.1729 19.0679) rotate(15.9454) scale(4.47898 11.1793)">
<stop stop-color="#FBC96E"/>
<stop offset="1" stop-color="#FAC567"/>
</radialGradient>
<radialGradient id="paint4_radial_22_339" cx="0" cy="0" r="1" gradientUnits="userSpaceOnUse" gradientTransform="translate(14.8095 20.0347) rotate(-156.753) scale(3.39583 10.2131)">
<stop offset="0.765376" stop-color="#D89F3A" stop-opacity="0"/>
<stop offset="0.91124" stop-color="#DAA139"/>
</radialGradient>
<radialGradient id="paint5_radial_22_339" cx="0" cy="0" r="1" gradientUnits="userSpaceOnUse" gradientTransform="translate(33.5742 21.7925) rotate(-125.455) scale(3.56065 3.65179)">
<stop offset="0.254227" stop-color="#BF812A"/>
<stop offset="1" stop-color="#CE9333"/>
</radialGradient>
<radialGradient id="paint6_radial_22_339" cx="0" cy="0" r="1" gradientUnits="userSpaceOnUse" gradientTransform="translate(30.8276 20.0568) rotate(-23.0913) scale(3.08135 8.0274)">
<stop offset="0.734364" stop-color="#E9BB61" stop-opacity="0"/>
<stop offset="0.929116" stop-color="#E9BB61"/>
</radialGradient>
<radialGradient id="paint7_radial_22_339" cx="0" cy="0" r="1" gradientUnits="userSpaceOnUse" gradientTransform="translate(32.6514 20.9357) rotate(-142.922) scale(4.8472 8.17744)">
<stop offset="0.772711" stop-color="#C18739" stop-opacity="0"/>
<stop offset="0.948485" stop-color="#C18739"/>
</radialGradient>
<linearGradient id="paint8_linear_22_339" x1="32.633" y1="28.9405" x2="7.79105" y2="34.7345" gradientUnits="userSpaceOnUse">
<stop stop-color="#FFBC5D"/>
<stop offset="0.303505" stop-color="#FCAD6A"/>
<stop offset="1" stop-color="#CB7547"/>
</linearGradient>
<radialGradient id="paint9_radial_22_339" cx="0" cy="0" r="1" gradientUnits="userSpaceOnUse" gradientTransform="translate(17.0615 44.8016) rotate(-69.4212) scale(15.4724 30.1143)">
<stop stop-color="#F67B4E"/>
<stop offset="1" stop-color="#F67B4E" stop-opacity="0"/>
</radialGradient>
<linearGradient id="paint10_linear_22_339" x1="7.42676" y1="34.1412" x2="11.25" y2="33.3502" gradientUnits="userSpaceOnUse">
<stop stop-color="#C2794C"/>
<stop offset="1" stop-color="#E07648" stop-opacity="0"/>
</linearGradient>
<linearGradient id="paint11_linear_22_339" x1="37.4414" y1="36.6022" x2="30.9375" y2="35.108" gradientUnits="userSpaceOnUse">
<stop offset="0.128534" stop-color="#FFBB5B"/>
<stop offset="1" stop-color="#FFBB5B" stop-opacity="0"/>
</linearGradient>
<linearGradient id="paint12_linear_22_339" x1="24.5215" y1="40.6011" x2="24.5215" y2="38.9312" gradientUnits="userSpaceOnUse">
<stop offset="0.184212" stop-color="#FF6F8C"/>
<stop offset="1" stop-color="#FF7A6A" stop-opacity="0"/>
</linearGradient>
<radialGradient id="paint13_radial_22_339" cx="0" cy="0" r="1" gradientUnits="userSpaceOnUse" gradientTransform="translate(39.4629 17.442) rotate(113.385) scale(3.54298 2.93685)">
<stop offset="0.377231" stop-color="#DD9049"/>
<stop offset="1" stop-color="#F8BF60" stop-opacity="0"/>
</radialGradient>
<radialGradient id="paint14_radial_22_339" cx="0" cy="0" r="1" gradientUnits="userSpaceOnUse" gradientTransform="translate(5.69092 17.6397) rotate(64.2171) scale(2.87942 1.57497)">
<stop offset="0.195602" stop-color="#D7783D"/>
<stop offset="1" stop-color="#D7783D" stop-opacity="0"/>
</radialGradient>
<radialGradient id="paint15_radial_22_339" cx="0" cy="0" r="1" gradientUnits="userSpaceOnUse" gradientTransform="translate(22.5 12.4212) rotate(76.0568) scale(1.64138 3.5944)">
<stop offset="0.382465" stop-color="#D48C33"/>
<stop offset="1" stop-color="#FEB16A" stop-opacity="0"/>
</radialGradient>
<radialGradient id="paint16_radial_22_339" cx="0" cy="0" r="1" gradientUnits="userSpaceOnUse" gradientTransform="translate(30.9813 32.4274) rotate(-51.5819) scale(3.25313 2.09911)">
<stop stop-color="#FF196C"/>
<stop offset="1" stop-color="#FF1F4A"/>
</radialGradient>
<radialGradient id="paint17_radial_22_339" cx="0" cy="0" r="1" gradientUnits="userSpaceOnUse" gradientTransform="translate(33.2226 30.7135) rotate(149.744) scale(2.44204 1.54682)">
<stop offset="0.222789" stop-color="#FF5873"/>
<stop offset="1" stop-color="#FF5873" stop-opacity="0"/>
</radialGradient>
<radialGradient id="paint18_radial_22_339" cx="0" cy="0" r="1" gradientUnits="userSpaceOnUse" gradientTransform="translate(13.7989 32.5153) rotate(-104.281) scale(2.49407 2.38798)">
<stop stop-color="#F6196C"/>
<stop offset="1" stop-color="#E42047"/>
</radialGradient>
<radialGradient id="paint19_radial_22_339" cx="0" cy="0" r="1" gradientUnits="userSpaceOnUse" gradientTransform="translate(14.8317 30.9992) rotate(155.726) scale(1.22929 1.07676)">
<stop stop-color="#FE536F"/>
<stop offset="1" stop-color="#FE536F" stop-opacity="0"/>
</radialGradient>
<radialGradient id="paint20_radial_22_339" cx="0" cy="0" r="1" gradientUnits="userSpaceOnUse" gradientTransform="translate(6.54786 15.4329) rotate(135.198) scale(4.1806 4.34935)">
<stop offset="0.172433" stop-color="#E7C04E"/>
<stop offset="1" stop-color="#D9972A"/>
</radialGradient>
<radialGradient id="paint21_radial_22_339" cx="0" cy="0" r="1" gradientUnits="userSpaceOnUse" gradientTransform="translate(4.52637 18.98) rotate(-71.3305) scale(2.3338 2.52804)">
<stop offset="0.0645976" stop-color="#DF8089"/>
<stop offset="1" stop-color="#DF8089" stop-opacity="0"/>
</radialGradient>
<radialGradient id="paint22_radial_22_339" cx="0" cy="0" r="1" gradientUnits="userSpaceOnUse" gradientTransform="translate(6.70166 15.5243) rotate(141.017) scale(1.97868 1.02253)">
<stop stop-color="#FFDE71"/>
<stop offset="1" stop-color="#FFDE71" stop-opacity="0"/>
</radialGradient>
<radialGradient id="paint23_radial_22_339" cx="0" cy="0" r="1" gradientUnits="userSpaceOnUse" gradientTransform="translate(5.64697 16.8946) rotate(180) scale(2.63672 2.74039)">
<stop offset="0.487603" stop-color="#E1AD3D" stop-opacity="0"/>
<stop offset="1" stop-color="#B9894B"/>
</radialGradient>
<radialGradient id="paint24_radial_22_339" cx="0" cy="0" r="1" gradientUnits="userSpaceOnUse" gradientTransform="translate(15.0512 14.0802) rotate(136.302) scale(4.10283 4.26413)">
<stop offset="0.172433" stop-color="#E7C04E"/>
<stop offset="1" stop-color="#D9972A"/>
</radialGradient>
<radialGradient id="paint25_radial_22_339" cx="0" cy="0" r="1" gradientUnits="userSpaceOnUse" gradientTransform="translate(15.2051 14.1681) rotate(142.093) scale(1.9494 0.998622)">
<stop stop-color="#FFDE71"/>
<stop offset="1" stop-color="#FFDE71" stop-opacity="0"/>
</radialGradient>
<radialGradient id="paint26_radial_22_339" cx="0" cy="0" r="1" gradientUnits="userSpaceOnUse" gradientTransform="translate(13.4692 17.4859) rotate(-76.7989) scale(1.8281 2.43816)">
<stop stop-color="#E4A122"/>
<stop offset="1" stop-color="#E4A122" stop-opacity="0"/>
</radialGradient>
<radialGradient id="paint27_radial_22_339" cx="0" cy="0" r="1" gradientUnits="userSpaceOnUse" gradientTransform="translate(14.1504 15.4865) rotate(180) scale(2.63672)">
<stop offset="0.487603" stop-color="#E1AD3D" stop-opacity="0"/>
<stop offset="1" stop-color="#B9894B"/>
</radialGradient>
<radialGradient id="paint28_radial_22_339" cx="0" cy="0" r="1" gradientUnits="userSpaceOnUse" gradientTransform="translate(33.0029 14.7174) rotate(136.32) scale(3.37243 3.50502)">
<stop offset="0.172433" stop-color="#F0C950"/>
<stop offset="1" stop-color="#C8861F"/>
</radialGradient>
<radialGradient id="paint29_radial_22_339" cx="0" cy="0" r="1" gradientUnits="userSpaceOnUse" gradientTransform="translate(33.2886 14.3439) rotate(147.14) scale(1.88338 0.9648)">
<stop offset="0.183948" stop-color="#FFDE71"/>
<stop offset="1" stop-color="#FFDE71" stop-opacity="0"/>
</radialGradient>
<radialGradient id="paint30_radial_22_339" cx="0" cy="0" r="1" gradientUnits="userSpaceOnUse" gradientTransform="translate(24.0822 30.318) rotate(138.155) scale(3.95239)">
<stop stop-color="#5FBFFF"/>
<stop offset="1" stop-color="#3E94FF"/>
</radialGradient>
<linearGradient id="paint31_linear_22_339" x1="22.7966" y1="12.8717" x2="31.7176" y2="24.1217" gradientUnits="userSpaceOnUse">
<stop stop-color="#FFD678"/>
<stop offset="1" stop-color="#FFD678" stop-opacity="0"/>
</linearGradient>
<radialGradient id="paint32_radial_22_339" cx="0" cy="0" r="1" gradientUnits="userSpaceOnUse" gradientTransform="translate(31.7176 23.023) rotate(-34.6679) scale(9.13676 2.44718)">
<stop offset="0.289296" stop-color="#FFD175"/>
<stop offset="1" stop-color="#FFD175" stop-opacity="0"/>
</radialGradient>
<radialGradient id="paint33_radial_22_339" cx="0" cy="0" r="1" gradientUnits="userSpaceOnUse" gradientTransform="translate(24.5215 9.35606) rotate(125.606) scale(4.83076 4.10143)">
<stop offset="0.376296" stop-color="#F3D154"/>
<stop offset="1" stop-color="#CC9848"/>
</radialGradient>
<radialGradient id="paint34_radial_22_339" cx="0" cy="0" r="1" gradientUnits="userSpaceOnUse" gradientTransform="translate(22.0165 13.2837) rotate(-79.3128) scale(2.57705 3.06339)">
<stop stop-color="#E78F5E"/>
<stop offset="1" stop-color="#E78F5E" stop-opacity="0"/>
</radialGradient>
<radialGradient id="paint35_radial_22_339" cx="0" cy="0" r="1" gradientUnits="userSpaceOnUse" gradientTransform="translate(23.5547 11.5973) rotate(-146.725) scale(5.04606 6.03533)">
<stop offset="0.557117" stop-color="#E9C251" stop-opacity="0"/>
<stop offset="1" stop-color="#B49858"/>
</radialGradient>
<radialGradient id="paint36_radial_22_339" cx="0" cy="0" r="1" gradientUnits="userSpaceOnUse" gradientTransform="translate(25.4004 9.61973) rotate(156.06) scale(2.78873 2.14605)">
<stop stop-color="#FFED77"/>
<stop offset="1" stop-color="#FFED77" stop-opacity="0"/>
</radialGradient>
<radialGradient id="paint37_radial_22_339" cx="0" cy="0" r="1" gradientUnits="userSpaceOnUse" gradientTransform="translate(41.7042 15.4329) rotate(135.198) scale(4.1806 4.34935)">
<stop offset="0.172433" stop-color="#F8CB54"/>
<stop offset="1" stop-color="#EAA34B"/>
</radialGradient>
<radialGradient id="paint38_radial_22_339" cx="0" cy="0" r="1" gradientUnits="userSpaceOnUse" gradientTransform="translate(39.6826 18.98) rotate(-71.3305) scale(2.3338 3.15458)">
<stop offset="0.159577" stop-color="#F1907C"/>
<stop offset="1" stop-color="#F1907C" stop-opacity="0"/>
</radialGradient>
<radialGradient id="paint39_radial_22_339" cx="0" cy="0" r="1" gradientUnits="userSpaceOnUse" gradientTransform="translate(41.8579 15.5243) rotate(141.017) scale(1.97868 1.02253)">
<stop stop-color="#FFDE71"/>
<stop offset="1" stop-color="#FFDE71" stop-opacity="0"/>
</radialGradient>
<radialGradient id="paint40_radial_22_339" cx="0" cy="0" r="1" gradientUnits="userSpaceOnUse" gradientTransform="translate(40.8032 16.8946) rotate(180) scale(2.63672 2.74039)">
<stop offset="0.487603" stop-color="#E0A444" stop-opacity="0"/>
<stop offset="1" stop-color="#C6924D"/>
</radialGradient>
</defs>
</svg>
