<svg width="322" height="166" viewBox="0 0 322 166" fill="none" xmlns="http://www.w3.org/2000/svg">
<rect x="11.7012" y="17.5589" width="299.201" height="147.703" rx="20" fill="#D8D8D8"/>
<path d="M20.701 2.95438H301.902C311.567 2.95438 319.402 10.7894 319.402 20.4544V139.017C319.402 148.682 311.567 156.517 301.902 156.517H20.701C11.0361 156.517 3.20105 148.682 3.20105 139.017V20.4544C3.20105 10.7894 11.0361 2.95438 20.701 2.95438Z" fill="#5772FF" stroke="black" stroke-width="5"/>
<mask id="path-3-outside-1_17_75" maskUnits="userSpaceOnUse" x="156.701" y="107.725" width="152" height="36" fill="black">
<rect fill="white" x="156.701" y="107.725" width="152" height="36"/>
<path d="M169.141 119.165C167.514 120.631 166.701 122.751 166.701 125.525C166.701 128.298 167.514 130.418 169.141 131.885C170.794 133.351 172.714 134.085 174.901 134.085C177.088 134.085 178.994 133.351 180.621 131.885C182.248 130.418 183.061 128.298 183.061 125.525C183.061 122.751 182.248 120.631 180.621 119.165C178.994 117.671 177.088 116.925 174.901 116.925C172.714 116.925 170.794 117.671 169.141 119.165ZM160.141 125.565C160.141 121.165 161.568 117.605 164.421 114.885C167.301 112.138 170.794 110.765 174.901 110.765C179.008 110.765 182.488 112.138 185.341 114.885C188.194 117.631 189.621 121.191 189.621 125.565C189.621 129.938 188.194 133.498 185.341 136.245C182.488 138.965 179.008 140.325 174.901 140.325C170.794 140.325 167.301 138.965 164.421 136.245C161.568 133.498 160.141 129.938 160.141 125.565ZM217.965 139.725H211.285L199.605 121.085V139.725H193.325V111.365H201.005L211.645 128.605V111.365H217.965V139.725ZM241.827 139.725H223.267V111.365H229.587V133.685H241.827V139.725ZM251.523 139.725H245.123V111.365H251.523V139.725ZM281.502 139.725H274.822L263.142 121.085V139.725H256.862V111.365H264.542L275.182 128.605V111.365H281.502V139.725ZM304.805 139.725H286.805V111.365H304.765V117.325H293.125V122.725H303.685V128.285H293.125V133.725H304.805V139.725Z"/>
</mask>
<path d="M169.141 119.165C167.514 120.631 166.701 122.751 166.701 125.525C166.701 128.298 167.514 130.418 169.141 131.885C170.794 133.351 172.714 134.085 174.901 134.085C177.088 134.085 178.994 133.351 180.621 131.885C182.248 130.418 183.061 128.298 183.061 125.525C183.061 122.751 182.248 120.631 180.621 119.165C178.994 117.671 177.088 116.925 174.901 116.925C172.714 116.925 170.794 117.671 169.141 119.165ZM160.141 125.565C160.141 121.165 161.568 117.605 164.421 114.885C167.301 112.138 170.794 110.765 174.901 110.765C179.008 110.765 182.488 112.138 185.341 114.885C188.194 117.631 189.621 121.191 189.621 125.565C189.621 129.938 188.194 133.498 185.341 136.245C182.488 138.965 179.008 140.325 174.901 140.325C170.794 140.325 167.301 138.965 164.421 136.245C161.568 133.498 160.141 129.938 160.141 125.565ZM217.965 139.725H211.285L199.605 121.085V139.725H193.325V111.365H201.005L211.645 128.605V111.365H217.965V139.725ZM241.827 139.725H223.267V111.365H229.587V133.685H241.827V139.725ZM251.523 139.725H245.123V111.365H251.523V139.725ZM281.502 139.725H274.822L263.142 121.085V139.725H256.862V111.365H264.542L275.182 128.605V111.365H281.502V139.725ZM304.805 139.725H286.805V111.365H304.765V117.325H293.125V122.725H303.685V128.285H293.125V133.725H304.805V139.725Z" fill="#FEFEFE"/>
<path d="M169.141 119.165L171.15 121.393L171.152 121.391L169.141 119.165ZM169.141 131.885L167.132 134.113L167.141 134.121L167.15 134.129L169.141 131.885ZM180.621 131.885L182.63 134.113L182.63 134.113L180.621 131.885ZM180.621 119.165L178.592 121.375L178.602 121.384L178.612 121.393L180.621 119.165ZM164.421 114.885L166.491 117.056L166.492 117.056L164.421 114.885ZM185.341 114.885L187.422 112.723L185.341 114.885ZM185.341 136.245L187.411 138.416L187.416 138.411L187.422 138.406L185.341 136.245ZM164.421 136.245L162.341 138.406L162.351 138.416L162.361 138.426L164.421 136.245ZM167.132 116.937C164.715 119.116 163.701 122.144 163.701 125.525H169.701C169.701 123.359 170.314 122.147 171.15 121.393L167.132 116.937ZM163.701 125.525C163.701 128.906 164.715 131.933 167.132 134.113L171.15 129.657C170.314 128.903 169.701 127.69 169.701 125.525H163.701ZM167.15 134.129C169.346 136.077 171.972 137.085 174.901 137.085V131.085C173.457 131.085 172.243 130.626 171.132 129.64L167.15 134.129ZM174.901 137.085C177.831 137.085 180.453 136.075 182.63 134.113L178.612 129.657C177.536 130.627 176.344 131.085 174.901 131.085V137.085ZM182.63 134.113C185.047 131.933 186.061 128.906 186.061 125.525H180.061C180.061 127.69 179.448 128.903 178.612 129.657L182.63 134.113ZM186.061 125.525C186.061 122.144 185.047 119.116 182.63 116.937L178.612 121.393C179.448 122.147 180.061 123.359 180.061 125.525H186.061ZM182.65 116.955C180.476 114.959 177.847 113.925 174.901 113.925V119.925C176.328 119.925 177.513 120.384 178.592 121.375L182.65 116.955ZM174.901 113.925C171.956 113.925 169.323 114.957 167.13 116.938L171.152 121.391C172.265 120.385 173.473 119.925 174.901 119.925V113.925ZM163.141 125.565C163.141 121.88 164.304 119.141 166.491 117.056L162.351 112.713C158.832 116.068 157.141 120.449 157.141 125.565H163.141ZM166.492 117.056C168.794 114.86 171.538 113.765 174.901 113.765V107.765C170.051 107.765 165.808 109.416 162.351 112.714L166.492 117.056ZM174.901 113.765C178.264 113.765 180.989 114.859 183.261 117.046L187.422 112.723C183.987 109.417 179.752 107.765 174.901 107.765V113.765ZM183.261 117.046C185.462 119.165 186.621 121.913 186.621 125.565H192.621C192.621 120.47 190.927 116.097 187.422 112.723L183.261 117.046ZM186.621 125.565C186.621 129.216 185.462 131.964 183.261 134.083L187.422 138.406C190.927 135.032 192.621 130.66 192.621 125.565H186.621ZM183.271 134.073C181.001 136.237 178.273 137.325 174.901 137.325V143.325C179.743 143.325 183.975 141.692 187.411 138.416L183.271 134.073ZM174.901 137.325C171.529 137.325 168.782 136.237 166.481 134.064L162.361 138.426C165.82 141.693 170.06 143.325 174.901 143.325V137.325ZM166.502 134.083C164.3 131.964 163.141 129.216 163.141 125.565H157.141C157.141 130.66 158.835 135.032 162.341 138.406L166.502 134.083ZM217.965 139.725V142.725H220.965V139.725H217.965ZM211.285 139.725L208.743 141.318L209.624 142.725H211.285V139.725ZM199.605 121.085L202.147 119.492L196.605 110.647V121.085H199.605ZM199.605 139.725V142.725H202.605V139.725H199.605ZM193.325 139.725H190.325V142.725H193.325V139.725ZM193.325 111.365V108.365H190.325V111.365H193.325ZM201.005 111.365L203.558 109.789L202.679 108.365H201.005V111.365ZM211.645 128.605L209.092 130.18L214.645 139.178V128.605H211.645ZM211.645 111.365V108.365H208.645V111.365H211.645ZM217.965 111.365H220.965V108.365H217.965V111.365ZM217.965 136.725H211.285V142.725H217.965V136.725ZM213.827 138.132L202.147 119.492L197.063 122.678L208.743 141.318L213.827 138.132ZM196.605 121.085V139.725H202.605V121.085H196.605ZM199.605 136.725H193.325V142.725H199.605V136.725ZM196.325 139.725V111.365H190.325V139.725H196.325ZM193.325 114.365H201.005V108.365H193.325V114.365ZM198.452 112.94L209.092 130.18L214.198 127.029L203.558 109.789L198.452 112.94ZM214.645 128.605V111.365H208.645V128.605H214.645ZM211.645 114.365H217.965V108.365H211.645V114.365ZM214.965 111.365V139.725H220.965V111.365H214.965ZM241.827 139.725V142.725H244.827V139.725H241.827ZM223.267 139.725H220.267V142.725H223.267V139.725ZM223.267 111.365V108.365H220.267V111.365H223.267ZM229.587 111.365H232.587V108.365H229.587V111.365ZM229.587 133.685H226.587V136.685H229.587V133.685ZM241.827 133.685H244.827V130.685H241.827V133.685ZM241.827 136.725H223.267V142.725H241.827V136.725ZM226.267 139.725V111.365H220.267V139.725H226.267ZM223.267 114.365H229.587V108.365H223.267V114.365ZM226.587 111.365V133.685H232.587V111.365H226.587ZM229.587 136.685H241.827V130.685H229.587V136.685ZM238.827 133.685V139.725H244.827V133.685H238.827ZM251.523 139.725V142.725H254.523V139.725H251.523ZM245.123 139.725H242.123V142.725H245.123V139.725ZM245.123 111.365V108.365H242.123V111.365H245.123ZM251.523 111.365H254.523V108.365H251.523V111.365ZM251.523 136.725H245.123V142.725H251.523V136.725ZM248.123 139.725V111.365H242.123V139.725H248.123ZM245.123 114.365H251.523V108.365H245.123V114.365ZM248.523 111.365V139.725H254.523V111.365H248.523ZM281.502 139.725V142.725H284.502V139.725H281.502ZM274.822 139.725L272.28 141.318L273.162 142.725H274.822V139.725ZM263.142 121.085L265.685 119.492L260.142 110.647V121.085H263.142ZM263.142 139.725V142.725H266.142V139.725H263.142ZM256.862 139.725H253.862V142.725H256.862V139.725ZM256.862 111.365V108.365H253.862V111.365H256.862ZM264.542 111.365L267.095 109.789L266.216 108.365H264.542V111.365ZM275.182 128.605L272.629 130.18L278.182 139.178V128.605H275.182ZM275.182 111.365V108.365H272.182V111.365H275.182ZM281.502 111.365H284.502V108.365H281.502V111.365ZM281.502 136.725H274.822V142.725H281.502V136.725ZM277.365 138.132L265.685 119.492L260.6 122.678L272.28 141.318L277.365 138.132ZM260.142 121.085V139.725H266.142V121.085H260.142ZM263.142 136.725H256.862V142.725H263.142V136.725ZM259.862 139.725V111.365H253.862V139.725H259.862ZM256.862 114.365H264.542V108.365H256.862V114.365ZM261.989 112.94L272.629 130.18L277.735 127.029L267.095 109.789L261.989 112.94ZM278.182 128.605V111.365H272.182V128.605H278.182ZM275.182 114.365H281.502V108.365H275.182V114.365ZM278.502 111.365V139.725H284.502V111.365H278.502ZM304.805 139.725V142.725H307.805V139.725H304.805ZM286.805 139.725H283.805V142.725H286.805V139.725ZM286.805 111.365V108.365H283.805V111.365H286.805ZM304.765 111.365H307.765V108.365H304.765V111.365ZM304.765 117.325V120.325H307.765V117.325H304.765ZM293.125 117.325V114.325H290.125V117.325H293.125ZM293.125 122.725H290.125V125.725H293.125V122.725ZM303.685 122.725H306.685V119.725H303.685V122.725ZM303.685 128.285V131.285H306.685V128.285H303.685ZM293.125 128.285V125.285H290.125V128.285H293.125ZM293.125 133.725H290.125V136.725H293.125V133.725ZM304.805 133.725H307.805V130.725H304.805V133.725ZM304.805 136.725H286.805V142.725H304.805V136.725ZM289.805 139.725V111.365H283.805V139.725H289.805ZM286.805 114.365H304.765V108.365H286.805V114.365ZM301.765 111.365V117.325H307.765V111.365H301.765ZM304.765 114.325H293.125V120.325H304.765V114.325ZM290.125 117.325V122.725H296.125V117.325H290.125ZM293.125 125.725H303.685V119.725H293.125V125.725ZM300.685 122.725V128.285H306.685V122.725H300.685ZM303.685 125.285H293.125V131.285H303.685V125.285ZM290.125 128.285V133.725H296.125V128.285H290.125ZM293.125 136.725H304.805V130.725H293.125V136.725ZM301.805 133.725V139.725H307.805V133.725H301.805Z" fill="black" mask="url(#path-3-outside-1_17_75)"/>
<path fill-rule="evenodd" clip-rule="evenodd" d="M86.6819 3.72464H76.5523L72.4487 10.8894L59.969 3.72464H24.701C24.3689 3.72464 24.0386 3.73274 23.7104 3.74875C23.3528 4.25621 23.0159 4.78457 22.7016 5.33331L9.48141 28.4159L4.70105 25.6715V41.0077L14.2519 46.491L7.64176 58.0323L4.70105 56.344V71.6802L12.4122 76.1073L32.2425 41.4834L20.862 34.9497L34.0822 11.8671C35.9542 8.59852 39.8545 7.5129 43.0775 9.36327L65.8386 22.4307L59.2285 33.9721L93.3702 53.5733L113.201 18.9494L86.6819 3.72464ZM4.70105 125.357V110.021L12.9578 114.761L19.5679 103.22L53.7096 122.821L34.8646 155.725H30.8827L5.43593 141.115C4.95707 139.4 4.70105 137.592 4.70105 135.725V129.178L6.3477 126.302L4.70105 125.357ZM86.9596 155.725H57.5956L46.1797 149.171L52.7898 137.629L69.8606 147.43C73.0836 149.28 76.9839 148.195 78.8559 144.926L88.7711 127.614L100.152 134.148L90.2365 151.46C89.3208 153.059 88.2132 154.485 86.9596 155.725ZM95.2099 23.9569L83.8293 17.4232L77.2192 28.9645L88.5998 35.4982L95.2099 23.9569ZM105.671 45.2988L112.281 33.7575L129.352 43.5581C138.709 48.9306 141.943 61.1807 136.507 70.6707L123.287 93.7533L134.668 100.287L114.837 134.911L80.6956 115.31L100.526 80.6858L111.906 87.2196L125.127 64.137C126.999 60.8684 125.964 56.9498 122.741 55.0994L105.671 45.2988ZM116.677 105.295L105.296 98.7609L98.6863 110.302L110.067 116.836L116.677 105.295ZM35.7189 127.829L24.3384 121.295L17.7283 132.836L29.1088 139.37L35.7189 127.829Z" fill="white"/>
<path d="M76.5523 3.72464V1.22464H75.1031L74.3829 2.48216L76.5523 3.72464ZM86.6819 3.72464L87.9266 1.55654L87.3485 1.22464H86.6819V3.72464ZM72.4487 10.8894L71.204 13.0575L73.3744 14.3036L74.6181 12.1319L72.4487 10.8894ZM59.969 3.72464L61.2137 1.55654L60.6356 1.22464H59.969V3.72464ZM23.7104 3.74875L23.5886 1.25172L22.3698 1.31117L21.6669 2.30863L23.7104 3.74875ZM22.7016 5.33331L20.5322 4.09083L20.5322 4.09083L22.7016 5.33331ZM9.48141 28.4159L8.23668 30.584L10.407 31.83L11.6508 29.6584L9.48141 28.4159ZM4.70105 25.6715L5.94578 23.5034L2.20105 21.3535L2.20105 25.6715H4.70105ZM4.70105 41.0077H2.20105V42.4551L3.45632 43.1758L4.70105 41.0077ZM14.2519 46.491L16.4213 47.7334L17.6624 45.5663L15.4966 44.3229L14.2519 46.491ZM7.64176 58.0323L6.39703 60.2004L8.56738 61.4464L9.81115 59.2748L7.64176 58.0323ZM4.70105 56.344L5.94578 54.1759L2.20105 52.026V56.344H4.70105ZM4.70105 71.6802H2.20105V73.1277L3.45632 73.8483L4.70105 71.6802ZM12.4122 76.1073L11.1675 78.2754L13.3378 79.5214L14.5816 77.3498L12.4122 76.1073ZM32.2425 41.4834L34.4119 42.7259L35.6531 40.5587L33.4873 39.3153L32.2425 41.4834ZM20.862 34.9497L18.6926 33.7072L17.4514 35.8743L19.6172 37.1178L20.862 34.9497ZM34.0822 11.8671L31.9128 10.6246L34.0822 11.8671ZM43.0775 9.36327L44.3222 7.19517L44.3222 7.19517L43.0775 9.36327ZM65.8386 22.4307L68.008 23.6732L69.2492 21.5061L67.0834 20.2627L65.8386 22.4307ZM59.2285 33.9721L57.0591 32.7296L55.818 34.8967L57.9838 36.1401L59.2285 33.9721ZM93.3702 53.5733L92.1255 55.7414L94.2958 56.9874L95.5396 54.8157L93.3702 53.5733ZM113.201 18.9494L115.37 20.1918L116.611 18.0247L114.445 16.7813L113.201 18.9494ZM4.70105 125.357H2.20105V126.805L3.45631 127.525L4.70105 125.357ZM4.70105 110.021L5.94578 107.853L2.20105 105.703V110.021H4.70105ZM12.9578 114.761L11.7131 116.929L13.8834 118.175L15.1272 116.004L12.9578 114.761ZM19.5679 103.22L20.8126 101.052L18.6423 99.8058L17.3985 101.977L19.5679 103.22ZM53.7096 122.821L55.879 124.064L57.1202 121.896L54.9543 120.653L53.7096 122.821ZM34.8646 155.725V158.225H36.3138L37.034 156.967L34.8646 155.725ZM30.8827 155.725L29.638 157.893L30.2161 158.225H30.8827V155.725ZM5.43593 141.115L3.02804 141.788L3.30337 142.774L4.1912 143.283L5.43593 141.115ZM4.70105 129.178L2.53166 127.935L2.20105 128.512V129.178H4.70105ZM6.3477 126.302L8.51708 127.545L9.75828 125.378L7.59243 124.134L6.3477 126.302ZM86.9596 155.725V158.225H87.9873L88.7178 157.502L86.9596 155.725ZM57.5956 155.725L56.3509 157.893L56.929 158.225H57.5956V155.725ZM46.1797 149.171L44.0103 147.928L42.7691 150.095L44.9349 151.339L46.1797 149.171ZM52.7898 137.629L54.0345 135.461L51.8642 134.215L50.6204 136.387L52.7898 137.629ZM69.8606 147.43L68.6159 149.598L68.6159 149.598L69.8606 147.43ZM78.8559 144.926L76.6866 143.684L76.6866 143.684L78.8559 144.926ZM88.7711 127.614L90.0158 125.446L87.8455 124.2L86.6017 126.372L88.7711 127.614ZM100.152 134.148L102.321 135.39L103.562 133.223L101.396 131.98L100.152 134.148ZM90.2365 151.46L92.4059 152.702L92.4059 152.702L90.2365 151.46ZM83.8293 17.4232L85.074 15.2551L82.9037 14.0091L81.6599 16.1807L83.8293 17.4232ZM95.2099 23.9569L97.3793 25.1994L98.6204 23.0323L96.4546 21.7888L95.2099 23.9569ZM77.2192 28.9645L75.0498 27.722L73.8086 29.8891L75.9745 31.1326L77.2192 28.9645ZM88.5998 35.4982L87.355 37.6663L89.5254 38.9123L90.7691 36.7407L88.5998 35.4982ZM112.281 33.7575L113.525 31.5894L111.355 30.3434L110.111 32.515L112.281 33.7575ZM105.671 45.2988L103.501 44.0563L102.26 46.2235L104.426 47.4669L105.671 45.2988ZM129.352 43.5581L130.596 41.39L130.596 41.39L129.352 43.5581ZM136.507 70.6707L138.677 71.9132L138.677 71.9132L136.507 70.6707ZM123.287 93.7533L121.118 92.5108L119.876 94.678L122.042 95.9214L123.287 93.7533ZM134.668 100.287L136.837 101.53L138.078 99.3624L135.912 98.119L134.668 100.287ZM114.837 134.911L113.593 137.079L115.763 138.325L117.007 136.153L114.837 134.911ZM80.6956 115.31L78.5262 114.067L77.285 116.234L79.4509 117.478L80.6956 115.31ZM100.526 80.6858L101.771 78.5177L99.6003 77.2717L98.3565 79.4433L100.526 80.6858ZM111.906 87.2196L110.662 89.3877L112.832 90.6337L114.076 88.462L111.906 87.2196ZM125.127 64.137L122.957 62.8945L122.957 62.8945L125.127 64.137ZM122.741 55.0994L121.497 57.2675L121.497 57.2675L122.741 55.0994ZM105.296 98.7609L106.541 96.5928L104.371 95.3468L103.127 97.5184L105.296 98.7609ZM116.677 105.295L118.846 106.537L120.088 104.37L117.922 103.127L116.677 105.295ZM98.6863 110.302L96.5169 109.06L95.2757 111.227L97.4415 112.47L98.6863 110.302ZM110.067 116.836L108.822 119.004L110.992 120.25L112.236 118.078L110.067 116.836ZM24.3384 121.295L25.5831 119.127L23.4128 117.881L22.169 120.052L24.3384 121.295ZM35.7189 127.829L37.8883 129.071L39.1295 126.904L36.9637 125.661L35.7189 127.829ZM17.7283 132.836L15.5589 131.594L14.3177 133.761L16.4835 135.004L17.7283 132.836ZM29.1088 139.37L27.8641 141.538L30.0344 142.784L31.2782 140.612L29.1088 139.37ZM76.5523 6.22464H86.6819V1.22464H76.5523V6.22464ZM74.3829 2.48216L70.2794 9.64696L74.6181 12.1319L78.7217 4.96712L74.3829 2.48216ZM73.6935 8.72135L61.2137 1.55654L58.7242 5.89274L71.204 13.0575L73.6935 8.72135ZM24.701 6.22464H59.969V1.22464H24.701V6.22464ZM23.8322 6.24578C24.1199 6.23175 24.4095 6.22464 24.701 6.22464V1.22464C24.3282 1.22464 23.9574 1.23373 23.5886 1.25172L23.8322 6.24578ZM21.6669 2.30863C21.2644 2.87974 20.8855 3.47404 20.5322 4.09083L24.871 6.5758C25.1463 6.0951 25.4412 5.63268 25.7539 5.18887L21.6669 2.30863ZM20.5322 4.09083L7.31202 27.1734L11.6508 29.6584L24.871 6.5758L20.5322 4.09083ZM10.7261 26.2478L5.94578 23.5034L3.45632 27.8395L8.23668 30.584L10.7261 26.2478ZM7.20105 41.0077V25.6715H2.20105V41.0077H7.20105ZM3.45632 43.1758L13.0071 48.6591L15.4966 44.3229L5.94578 38.8396L3.45632 43.1758ZM12.0825 45.2485L5.47238 56.7898L9.81115 59.2748L16.4213 47.7334L12.0825 45.2485ZM8.8865 55.8642L5.94578 54.1759L3.45632 58.5121L6.39703 60.2004L8.8865 55.8642ZM7.20105 71.6802V56.344H2.20105V71.6802H7.20105ZM3.45632 73.8483L11.1675 78.2754L13.657 73.9392L5.94578 69.5121L3.45632 73.8483ZM14.5816 77.3498L34.4119 42.7259L30.0731 40.2409L10.2428 74.8648L14.5816 77.3498ZM33.4873 39.3153L22.1067 32.7816L19.6172 37.1178L30.9978 43.6515L33.4873 39.3153ZM23.0314 36.1921L36.2516 13.1095L31.9128 10.6246L18.6926 33.7072L23.0314 36.1921ZM36.2516 13.1095C37.4527 11.0124 39.8355 10.3847 41.8328 11.5314L44.3222 7.19517C39.8736 4.64112 34.4557 6.18464 31.9128 10.6246L36.2516 13.1095ZM41.8328 11.5314L64.5939 24.5988L67.0834 20.2627L44.3222 7.19517L41.8328 11.5314ZM63.6693 21.1883L57.0591 32.7296L61.3979 35.2145L68.008 23.6732L63.6693 21.1883ZM57.9838 36.1401L92.1255 55.7414L94.615 51.4052L60.4733 31.804L57.9838 36.1401ZM95.5396 54.8157L115.37 20.1918L111.031 17.7069L91.2008 52.3308L95.5396 54.8157ZM114.445 16.7813L87.9266 1.55654L85.4372 5.89274L111.956 21.1174L114.445 16.7813ZM7.20105 125.357V110.021H2.20105V125.357H7.20105ZM14.2025 112.593L5.94578 107.853L3.45632 112.189L11.7131 116.929L14.2025 112.593ZM17.3985 101.977L10.7884 113.519L15.1272 116.004L21.7373 104.462L17.3985 101.977ZM54.9543 120.653L20.8126 101.052L18.3232 105.388L52.4649 124.989L54.9543 120.653ZM37.034 156.967L55.879 124.064L51.5402 121.579L32.6952 154.482L37.034 156.967ZM34.8646 153.225H30.8827V158.225H34.8646V153.225ZM4.1912 143.283L29.638 157.893L32.1275 153.557L6.68067 138.947L4.1912 143.283ZM7.84383 140.443C7.4255 138.945 7.20105 137.363 7.20105 135.725H2.20105C2.20105 137.822 2.48865 139.856 3.02804 141.788L7.84383 140.443ZM7.20105 135.725V129.178H2.20105V135.725H7.20105ZM4.17831 125.06L2.53166 127.935L6.87044 130.42L8.51708 127.545L4.17831 125.06ZM3.45631 127.525L5.10296 128.471L7.59243 124.134L5.94579 123.189L3.45631 127.525ZM86.9596 153.225H57.5956V158.225H86.9596V153.225ZM44.9349 151.339L56.3509 157.893L58.8404 153.557L47.4244 147.002L44.9349 151.339ZM50.6204 136.387L44.0103 147.928L48.3491 150.413L54.9592 138.872L50.6204 136.387ZM71.1053 145.262L54.0345 135.461L51.545 139.797L68.6159 149.598L71.1053 145.262ZM76.6866 143.684C75.4855 145.781 73.1027 146.408 71.1053 145.262L68.6159 149.598C73.0646 152.152 78.4824 150.609 81.0253 146.169L76.6866 143.684ZM86.6017 126.372L76.6866 143.684L81.0253 146.169L90.9405 128.857L86.6017 126.372ZM101.396 131.98L90.0158 125.446L87.5264 129.782L98.9069 136.316L101.396 131.98ZM92.4059 152.702L102.321 135.39L97.9823 132.905L88.0671 150.217L92.4059 152.702ZM88.7178 157.502C90.1296 156.105 91.3762 154.5 92.4059 152.702L88.0671 150.217C87.2653 151.617 86.2968 152.864 85.2015 153.947L88.7178 157.502ZM82.5846 19.5913L93.9651 26.125L96.4546 21.7888L85.074 15.2551L82.5846 19.5913ZM79.3886 30.207L85.9987 18.6657L81.6599 16.1807L75.0498 27.722L79.3886 30.207ZM89.8445 33.3301L78.4639 26.7964L75.9745 31.1326L87.355 37.6663L89.8445 33.3301ZM93.0405 22.7144L86.4304 34.2557L90.7691 36.7407L97.3793 25.1994L93.0405 22.7144ZM110.111 32.515L103.501 44.0563L107.84 46.5413L114.45 35L110.111 32.515ZM130.596 41.39L113.525 31.5894L111.036 35.9256L128.107 45.7262L130.596 41.39ZM138.677 71.9132C144.782 61.2534 141.178 47.4651 130.596 41.39L128.107 45.7262C136.241 50.3961 139.103 61.1079 134.338 69.4282L138.677 71.9132ZM125.456 94.9958L138.677 71.9132L134.338 69.4282L121.118 92.5108L125.456 94.9958ZM135.912 98.119L124.532 91.5852L122.042 95.9214L133.423 102.455L135.912 98.119ZM117.007 136.153L136.837 101.53L132.498 99.0446L112.668 133.668L117.007 136.153ZM79.4509 117.478L113.593 137.079L116.082 132.743L81.9403 113.142L79.4509 117.478ZM98.3565 79.4433L78.5262 114.067L82.865 116.552L102.695 81.9283L98.3565 79.4433ZM113.151 85.0515L101.771 78.5177L99.2812 82.8539L110.662 89.3877L113.151 85.0515ZM122.957 62.8945L109.737 85.9771L114.076 88.462L127.296 65.3794L122.957 62.8945ZM121.497 57.2675C123.496 58.4153 124.159 60.7957 122.957 62.8945L127.296 65.3794C129.838 60.9412 128.433 55.4843 123.986 52.9313L121.497 57.2675ZM104.426 47.4669L121.497 57.2675L123.986 52.9313L106.915 43.1307L104.426 47.4669ZM104.052 100.929L115.432 107.463L117.922 103.127L106.541 96.5928L104.052 100.929ZM100.856 111.545L107.466 100.003L103.127 97.5184L96.5169 109.06L100.856 111.545ZM111.312 114.668L99.931 108.134L97.4415 112.47L108.822 119.004L111.312 114.668ZM114.508 104.052L107.897 115.593L112.236 118.078L118.846 106.537L114.508 104.052ZM23.0936 123.463L34.4742 129.997L36.9637 125.661L25.5831 119.127L23.0936 123.463ZM19.8976 134.079L26.5077 122.537L22.169 120.052L15.5589 131.594L19.8976 134.079ZM30.3536 137.202L18.973 130.668L16.4835 135.004L27.8641 141.538L30.3536 137.202ZM33.5495 126.586L26.9394 138.127L31.2782 140.612L37.8883 129.071L33.5495 126.586Z" fill="black"/>
</svg>
