<svg width="322" height="166" viewBox="0 0 322 166" fill="none" xmlns="http://www.w3.org/2000/svg">
<rect x="11.1005" y="17.7713" width="299.201" height="147.703" rx="20" fill="#D8D8D8"/>
<rect x="2.60052" y="3.16675" width="316.201" height="153.563" rx="17.5" fill="#BA822F" stroke="black" stroke-width="5"/>
<path fill-rule="evenodd" clip-rule="evenodd" d="M151.337 159.23L212.389 53.1955L287.156 96.2845L321.302 36.2328L321.302 139.23C321.302 150.276 312.347 159.23 301.302 159.23L151.337 159.23Z" fill="#FFBC58"/>
<path fill-rule="evenodd" clip-rule="evenodd" d="M214.437 0.666748L136.624 135.442L62.1585 92.353L20.6785 159.23H20.1005C9.05483 159.23 0.100525 150.275 0.100525 139.23V20.6667C0.100525 9.62105 9.05483 0.666748 20.1005 0.666748H214.437Z" fill="#FFBC58"/>
<rect x="2.60052" y="3.16679" width="316.201" height="153.563" rx="17.5" stroke="black" stroke-width="5"/>
<mask id="path-6-outside-1_17_56" maskUnits="userSpaceOnUse" x="12" y="18" width="114" height="36" fill="black">
<rect fill="white" x="12" y="18" width="114" height="36"/>
<path d="M37.6328 28.6L31.9528 30.2C31.8195 29.32 31.3795 28.5067 30.6328 27.76C29.8861 27.0133 28.7528 26.64 27.2328 26.64C26.0861 26.64 25.1528 26.9467 24.4328 27.56C23.7128 28.1467 23.3528 28.8533 23.3528 29.68C23.3528 31.1467 24.2861 32.0533 26.1528 32.4L29.9528 33.12C32.5661 33.6 34.5795 34.6267 35.9928 36.2C37.4328 37.7467 38.1528 39.56 38.1528 41.64C38.1528 44.0133 37.2061 46.1067 35.3128 47.92C33.4195 49.7067 30.8728 50.6 27.6728 50.6C24.0995 50.6 21.3261 49.68 19.3528 47.84C17.4061 45.9733 16.3128 43.8667 16.0728 41.52L21.8728 40.12C22.0061 41.5333 22.5528 42.7067 23.5128 43.64C24.4995 44.5467 25.9128 45 27.7528 45C28.9795 45 29.9528 44.7333 30.6728 44.2C31.3928 43.64 31.7528 42.92 31.7528 42.04C31.7528 41.32 31.4861 40.72 30.9528 40.24C30.4195 39.7333 29.6728 39.3867 28.7128 39.2L24.8328 38.48C22.4328 38.0267 20.5395 37.0533 19.1528 35.56C17.7928 34.0667 17.1128 32.2667 17.1128 30.16C17.1128 27.5467 18.1128 25.3733 20.1128 23.64C22.1128 21.9067 24.4995 21.04 27.2728 21.04C28.9528 21.04 30.4461 21.28 31.7528 21.76C33.0861 22.2133 34.1395 22.8267 34.9128 23.6C35.6861 24.3733 36.2861 25.1733 36.7128 26C37.1661 26.8267 37.4728 27.6933 37.6328 28.6ZM65.6878 50H59.3278V38.72H48.0078V50H41.6878V21.64H48.0078V32.76H59.3278V21.64H65.6878V50ZM78.365 29.44C76.7383 30.9067 75.925 33.0267 75.925 35.8C75.925 38.5733 76.7383 40.6933 78.365 42.16C80.0183 43.6267 81.9383 44.36 84.125 44.36C86.3117 44.36 88.2183 43.6267 89.845 42.16C91.4717 40.6933 92.285 38.5733 92.285 35.8C92.285 33.0267 91.4717 30.9067 89.845 29.44C88.2183 27.9467 86.3117 27.2 84.125 27.2C81.9383 27.2 80.0183 27.9467 78.365 29.44ZM69.365 35.84C69.365 31.44 70.7917 27.88 73.645 25.16C76.525 22.4133 80.0183 21.04 84.125 21.04C88.2317 21.04 91.7117 22.4133 94.565 25.16C97.4183 27.9067 98.845 31.4667 98.845 35.84C98.845 40.2133 97.4183 43.7733 94.565 46.52C91.7117 49.24 88.2317 50.6 84.125 50.6C80.0183 50.6 76.525 49.24 73.645 46.52C70.7917 43.7733 69.365 40.2133 69.365 35.84ZM108.909 34.36H112.589C113.789 34.36 114.762 34.04 115.509 33.4C116.255 32.7333 116.629 31.8533 116.629 30.76C116.629 29.64 116.255 28.76 115.509 28.12C114.789 27.4533 113.815 27.12 112.589 27.12H108.909V34.36ZM113.229 39.8H108.869V50H102.549V21.64H113.229C116.109 21.64 118.442 22.4933 120.229 24.2C122.042 25.9067 122.949 28.08 122.949 30.72C122.949 33.4133 122.042 35.6 120.229 37.28C118.442 38.96 116.109 39.8 113.229 39.8Z"/>
</mask>
<path d="M37.6328 28.6L31.9528 30.2C31.8195 29.32 31.3795 28.5067 30.6328 27.76C29.8861 27.0133 28.7528 26.64 27.2328 26.64C26.0861 26.64 25.1528 26.9467 24.4328 27.56C23.7128 28.1467 23.3528 28.8533 23.3528 29.68C23.3528 31.1467 24.2861 32.0533 26.1528 32.4L29.9528 33.12C32.5661 33.6 34.5795 34.6267 35.9928 36.2C37.4328 37.7467 38.1528 39.56 38.1528 41.64C38.1528 44.0133 37.2061 46.1067 35.3128 47.92C33.4195 49.7067 30.8728 50.6 27.6728 50.6C24.0995 50.6 21.3261 49.68 19.3528 47.84C17.4061 45.9733 16.3128 43.8667 16.0728 41.52L21.8728 40.12C22.0061 41.5333 22.5528 42.7067 23.5128 43.64C24.4995 44.5467 25.9128 45 27.7528 45C28.9795 45 29.9528 44.7333 30.6728 44.2C31.3928 43.64 31.7528 42.92 31.7528 42.04C31.7528 41.32 31.4861 40.72 30.9528 40.24C30.4195 39.7333 29.6728 39.3867 28.7128 39.2L24.8328 38.48C22.4328 38.0267 20.5395 37.0533 19.1528 35.56C17.7928 34.0667 17.1128 32.2667 17.1128 30.16C17.1128 27.5467 18.1128 25.3733 20.1128 23.64C22.1128 21.9067 24.4995 21.04 27.2728 21.04C28.9528 21.04 30.4461 21.28 31.7528 21.76C33.0861 22.2133 34.1395 22.8267 34.9128 23.6C35.6861 24.3733 36.2861 25.1733 36.7128 26C37.1661 26.8267 37.4728 27.6933 37.6328 28.6ZM65.6878 50H59.3278V38.72H48.0078V50H41.6878V21.64H48.0078V32.76H59.3278V21.64H65.6878V50ZM78.365 29.44C76.7383 30.9067 75.925 33.0267 75.925 35.8C75.925 38.5733 76.7383 40.6933 78.365 42.16C80.0183 43.6267 81.9383 44.36 84.125 44.36C86.3117 44.36 88.2183 43.6267 89.845 42.16C91.4717 40.6933 92.285 38.5733 92.285 35.8C92.285 33.0267 91.4717 30.9067 89.845 29.44C88.2183 27.9467 86.3117 27.2 84.125 27.2C81.9383 27.2 80.0183 27.9467 78.365 29.44ZM69.365 35.84C69.365 31.44 70.7917 27.88 73.645 25.16C76.525 22.4133 80.0183 21.04 84.125 21.04C88.2317 21.04 91.7117 22.4133 94.565 25.16C97.4183 27.9067 98.845 31.4667 98.845 35.84C98.845 40.2133 97.4183 43.7733 94.565 46.52C91.7117 49.24 88.2317 50.6 84.125 50.6C80.0183 50.6 76.525 49.24 73.645 46.52C70.7917 43.7733 69.365 40.2133 69.365 35.84ZM108.909 34.36H112.589C113.789 34.36 114.762 34.04 115.509 33.4C116.255 32.7333 116.629 31.8533 116.629 30.76C116.629 29.64 116.255 28.76 115.509 28.12C114.789 27.4533 113.815 27.12 112.589 27.12H108.909V34.36ZM113.229 39.8H108.869V50H102.549V21.64H113.229C116.109 21.64 118.442 22.4933 120.229 24.2C122.042 25.9067 122.949 28.08 122.949 30.72C122.949 33.4133 122.042 35.6 120.229 37.28C118.442 38.96 116.109 39.8 113.229 39.8Z" fill="#FEFEFE"/>
<path d="M37.6328 28.6L38.4462 31.4876L41.0589 30.7517L40.5872 28.0786L37.6328 28.6ZM31.9528 30.2L28.9867 30.6494L29.4957 34.0089L32.7662 33.0876L31.9528 30.2ZM30.6328 27.76L32.7541 25.6387L32.7541 25.6387L30.6328 27.76ZM24.4328 27.56L26.3278 29.8857L26.3533 29.865L26.3782 29.8437L24.4328 27.56ZM26.1528 32.4L26.7113 29.4524L26.7006 29.4504L26.1528 32.4ZM29.9528 33.12L29.3943 36.0676L29.4026 36.0691L29.4109 36.0706L29.9528 33.12ZM35.9928 36.2L33.7611 38.2048L33.7789 38.2247L33.7971 38.2443L35.9928 36.2ZM35.3128 47.92L37.3718 50.1019L37.3799 50.0943L37.3879 50.0866L35.3128 47.92ZM19.3528 47.84L17.2765 50.0053L17.2916 50.0199L17.3069 50.0342L19.3528 47.84ZM16.0728 41.52L15.3689 38.6038L12.8218 39.2186L13.0884 41.8252L16.0728 41.52ZM21.8728 40.12L24.8596 39.8382L24.5344 36.3914L21.1689 37.2038L21.8728 40.12ZM23.5128 43.64L21.4216 45.791L21.4519 45.8204L21.4829 45.849L23.5128 43.64ZM30.6728 44.2L32.4585 46.6107L32.4868 46.5897L32.5146 46.5681L30.6728 44.2ZM30.9528 40.24L28.8866 42.415L28.9159 42.4428L28.9459 42.4699L30.9528 40.24ZM28.7128 39.2L29.2854 36.2552L29.2728 36.2527L29.2602 36.2504L28.7128 39.2ZM24.8328 38.48L24.276 41.4279L24.2855 41.4296L24.8328 38.48ZM19.1528 35.56L16.9348 37.58L16.9446 37.5907L16.9544 37.6014L19.1528 35.56ZM20.1128 23.64L18.148 21.3729L20.1128 23.64ZM31.7528 21.76L30.7184 24.576L30.7526 24.5886L30.7871 24.6003L31.7528 21.76ZM34.9128 23.6L32.7915 25.7213L32.7915 25.7213L34.9128 23.6ZM36.7128 26L34.047 27.3759L34.0642 27.4094L34.0824 27.4425L36.7128 26ZM36.8194 25.7124L31.1394 27.3124L32.7662 33.0876L38.4462 31.4876L36.8194 25.7124ZM34.919 29.7506C34.6728 28.1258 33.8667 26.7513 32.7541 25.6387L28.5115 29.8813C28.8923 30.2621 28.9662 30.5142 28.9867 30.6494L34.919 29.7506ZM32.7541 25.6387C31.2375 24.1221 29.1973 23.64 27.2328 23.64V29.64C27.7569 29.64 28.0903 29.7055 28.2842 29.7694C28.4635 29.8285 28.511 29.8808 28.5115 29.8813L32.7541 25.6387ZM27.2328 23.64C25.5309 23.64 23.8593 24.1077 22.4874 25.2763L26.3782 29.8437C26.4464 29.7857 26.6414 29.64 27.2328 29.64V23.64ZM22.5378 25.2343C21.2162 26.3112 20.3528 27.8327 20.3528 29.68H26.3528C26.3528 29.6927 26.3512 29.7242 26.3409 29.7682C26.3305 29.8127 26.3145 29.8554 26.2959 29.8918C26.2568 29.9686 26.2367 29.96 26.3278 29.8857L22.5378 25.2343ZM20.3528 29.68C20.3528 31.1111 20.8379 32.5194 21.9625 33.6118C23.0066 34.6262 24.3433 35.1152 25.605 35.3496L26.7006 29.4504C26.4146 29.3973 26.2426 29.3367 26.1535 29.2968C26.0678 29.2584 26.0843 29.2509 26.1432 29.3082C26.2095 29.3726 26.2769 29.4683 26.3197 29.5771C26.3596 29.6785 26.3528 29.7267 26.3528 29.68H20.3528ZM25.5943 35.3476L29.3943 36.0676L30.5113 30.1724L26.7113 29.4524L25.5943 35.3476ZM29.4109 36.0706C31.5419 36.4621 32.8941 37.2397 33.7611 38.2048L38.2246 34.1952C36.2649 32.0137 33.5904 30.7379 30.4948 30.1694L29.4109 36.0706ZM33.7971 38.2443C34.7294 39.2456 35.1528 40.332 35.1528 41.64H41.1528C41.1528 38.788 40.1363 36.2478 38.1885 34.1557L33.7971 38.2443ZM35.1528 41.64C35.1528 43.1052 34.6086 44.4405 33.2378 45.7534L37.3879 50.0866C39.8037 47.7728 41.1528 44.9214 41.1528 41.64H35.1528ZM33.2538 45.7381C32.0385 46.8849 30.292 47.6 27.6728 47.6V53.6C31.4536 53.6 34.8004 52.5284 37.3718 50.1019L33.2538 45.7381ZM27.6728 47.6C24.6064 47.6 22.6561 46.8183 21.3987 45.6458L17.3069 50.0342C19.9962 52.5417 23.5925 53.6 27.6728 53.6V47.6ZM21.4292 45.6747C19.9182 44.2258 19.2145 42.7526 19.0572 41.2148L13.0884 41.8252C13.4111 44.9807 14.8941 47.7209 17.2765 50.0053L21.4292 45.6747ZM16.7767 44.4362L22.5767 43.0362L21.1689 37.2038L15.3689 38.6038L16.7767 44.4362ZM18.8861 40.4018C19.082 42.4784 19.9181 44.3292 21.4216 45.791L25.604 41.489C25.1876 41.0841 24.9303 40.5882 24.8596 39.8382L18.8861 40.4018ZM21.4829 45.849C23.2013 47.4281 25.4442 48 27.7528 48V42C26.3815 42 25.7976 41.6653 25.5427 41.431L21.4829 45.849ZM27.7528 48C29.3894 48 31.0616 47.6454 32.4585 46.6107L28.8871 41.7893C28.8441 41.8212 28.5696 42 27.7528 42V48ZM32.5146 46.5681C33.9343 45.4639 34.7528 43.8845 34.7528 42.04H28.7528C28.7528 42.0545 28.7515 42.0427 28.7585 42.0115C28.7657 41.9792 28.779 41.9394 28.7995 41.8984C28.8199 41.8576 28.8405 41.8296 28.8524 41.8154C28.8636 41.8021 28.8605 41.809 28.831 41.8319L32.5146 46.5681ZM34.7528 42.04C34.7528 40.4729 34.1277 39.0613 32.9597 38.0101L28.9459 42.4699C28.9288 42.4545 28.8645 42.3879 28.8114 42.2684C28.7584 42.1492 28.7528 42.0589 28.7528 42.04H34.7528ZM33.0191 38.065C31.9556 37.0547 30.6259 36.5158 29.2854 36.2552L28.1402 42.1448C28.7197 42.2575 28.8833 42.4119 28.8866 42.415L33.0191 38.065ZM29.2602 36.2504L25.3802 35.5304L24.2855 41.4296L28.1655 42.1496L29.2602 36.2504ZM25.3896 35.5321C23.4912 35.1735 22.2203 34.4547 21.3512 33.5186L16.9544 37.6014C18.8586 39.652 21.3744 40.8798 24.276 41.4279L25.3896 35.5321ZM21.3708 33.54C20.5372 32.6247 20.1128 31.5548 20.1128 30.16H14.1128C14.1128 32.9786 15.0484 35.5086 16.9348 37.58L21.3708 33.54ZM20.1128 30.16C20.1128 28.4294 20.7255 27.0789 22.0776 25.9071L18.148 21.3729C15.5002 23.6677 14.1128 26.664 14.1128 30.16H20.1128ZM22.0776 25.9071C23.5044 24.6705 25.1836 24.04 27.2728 24.04V18.04C23.8154 18.04 20.7213 19.1428 18.148 21.3729L22.0776 25.9071ZM27.2728 24.04C28.6708 24.04 29.8036 24.24 30.7184 24.576L32.7873 18.944C31.0887 18.32 29.2349 18.04 27.2728 18.04V24.04ZM30.7871 24.6003C31.8062 24.9468 32.4229 25.3527 32.7915 25.7213L37.0341 21.4787C35.8561 20.3006 34.3661 19.4798 32.7185 18.9197L30.7871 24.6003ZM32.7915 25.7213C33.3834 26.3132 33.7847 26.8677 34.047 27.3759L39.3787 24.6241C38.7876 23.4789 37.9889 22.4335 37.0341 21.4787L32.7915 25.7213ZM34.0824 27.4425C34.382 27.9889 34.5768 28.5451 34.6785 29.1214L40.5872 28.0786C40.3689 26.8415 39.9503 25.6645 39.3433 24.5575L34.0824 27.4425ZM65.6878 50V53H68.6878V50H65.6878ZM59.3278 50H56.3278V53H59.3278V50ZM59.3278 38.72H62.3278V35.72H59.3278V38.72ZM48.0078 38.72V35.72H45.0078V38.72H48.0078ZM48.0078 50V53H51.0078V50H48.0078ZM41.6878 50H38.6878V53H41.6878V50ZM41.6878 21.64V18.64H38.6878V21.64H41.6878ZM48.0078 21.64H51.0078V18.64H48.0078V21.64ZM48.0078 32.76H45.0078V35.76H48.0078V32.76ZM59.3278 32.76V35.76H62.3278V32.76H59.3278ZM59.3278 21.64V18.64H56.3278V21.64H59.3278ZM65.6878 21.64H68.6878V18.64H65.6878V21.64ZM65.6878 47H59.3278V53H65.6878V47ZM62.3278 50V38.72H56.3278V50H62.3278ZM59.3278 35.72H48.0078V41.72H59.3278V35.72ZM45.0078 38.72V50H51.0078V38.72H45.0078ZM48.0078 47H41.6878V53H48.0078V47ZM44.6878 50V21.64H38.6878V50H44.6878ZM41.6878 24.64H48.0078V18.64H41.6878V24.64ZM45.0078 21.64V32.76H51.0078V21.64H45.0078ZM48.0078 35.76H59.3278V29.76H48.0078V35.76ZM62.3278 32.76V21.64H56.3278V32.76H62.3278ZM59.3278 24.64H65.6878V18.64H59.3278V24.64ZM62.6878 21.64V50H68.6878V21.64H62.6878ZM78.365 29.44L80.3739 31.6681L80.3759 31.6663L78.365 29.44ZM78.365 42.16L76.3561 44.3881L76.3651 44.3962L76.3742 44.4042L78.365 42.16ZM89.845 42.16L91.8539 44.3881L91.8539 44.3881L89.845 42.16ZM89.845 29.44L87.8162 31.65L87.8261 31.6591L87.8361 31.6681L89.845 29.44ZM73.645 25.16L75.715 27.3314L75.7155 27.331L73.645 25.16ZM94.565 25.16L96.6455 22.9987L94.565 25.16ZM94.565 46.52L96.635 48.6914L96.6403 48.6864L96.6455 48.6813L94.565 46.52ZM73.645 46.52L71.5645 48.6813L71.5748 48.6912L71.5851 48.701L73.645 46.52ZM76.3561 27.2119C73.9388 29.3915 72.925 32.419 72.925 35.8H78.925C78.925 33.6343 79.5379 32.4219 80.3739 31.6681L76.3561 27.2119ZM72.925 35.8C72.925 39.181 73.9388 42.2085 76.3561 44.3881L80.3739 39.9319C79.5379 39.1781 78.925 37.9657 78.925 35.8H72.925ZM76.3742 44.4042C78.5699 46.352 81.196 47.36 84.125 47.36V41.36C82.6807 41.36 81.4668 40.9013 80.3558 39.9158L76.3742 44.4042ZM84.125 47.36C87.0551 47.36 89.6771 46.3507 91.8539 44.3881L87.8361 39.9319C86.7595 40.9026 85.5683 41.36 84.125 41.36V47.36ZM91.8539 44.3881C94.2712 42.2085 95.285 39.181 95.285 35.8H89.285C89.285 37.9657 88.6721 39.1781 87.8361 39.9319L91.8539 44.3881ZM95.285 35.8C95.285 32.419 94.2712 29.3915 91.8539 27.2119L87.8361 31.6681C88.6721 32.4219 89.285 33.6343 89.285 35.8H95.285ZM91.8738 27.23C89.6997 25.2341 87.0712 24.2 84.125 24.2V30.2C85.5522 30.2 86.737 30.6592 87.8162 31.65L91.8738 27.23ZM84.125 24.2C81.18 24.2 78.5473 25.2327 76.3541 27.2137L80.3759 31.6663C81.4893 30.6606 82.6966 30.2 84.125 30.2V24.2ZM72.365 35.84C72.365 32.1555 73.5276 29.4166 75.715 27.3314L71.575 22.9885C68.0558 26.3434 66.365 30.7245 66.365 35.84H72.365ZM75.7155 27.331C78.0181 25.135 80.7621 24.04 84.125 24.04V18.04C79.2746 18.04 75.0319 19.6917 71.5745 22.989L75.7155 27.331ZM84.125 24.04C87.4876 24.04 90.2126 25.1344 92.4845 27.3213L96.6455 22.9987C93.2108 19.6923 88.9758 18.04 84.125 18.04V24.04ZM92.4845 27.3213C94.686 29.4405 95.845 32.1883 95.845 35.84H101.845C101.845 30.745 100.151 26.3728 96.6455 22.9987L92.4845 27.3213ZM95.845 35.84C95.845 39.4917 94.686 42.2395 92.4845 44.3587L96.6455 48.6813C100.151 45.3072 101.845 40.935 101.845 35.84H95.845ZM92.495 44.3486C90.2249 46.5126 87.4965 47.6 84.125 47.6V53.6C88.9669 53.6 93.1985 51.9674 96.635 48.6914L92.495 44.3486ZM84.125 47.6C80.7532 47.6 78.0058 46.512 75.7049 44.339L71.5851 48.701C75.0442 51.968 79.2834 53.6 84.125 53.6V47.6ZM75.7255 44.3587C73.5241 42.2395 72.365 39.4917 72.365 35.84H66.365C66.365 40.935 68.0593 45.3072 71.5645 48.6813L75.7255 44.3587ZM108.909 34.36H105.909V37.36H108.909V34.36ZM115.509 33.4L117.461 35.6778L117.484 35.658L117.507 35.6378L115.509 33.4ZM115.509 28.12L113.471 30.3213L113.513 30.3603L113.556 30.3978L115.509 28.12ZM108.909 27.12V24.12H105.909V27.12H108.909ZM108.869 39.8V36.8H105.869V39.8H108.869ZM108.869 50V53H111.869V50H108.869ZM102.549 50H99.5488V53H102.549V50ZM102.549 21.64V18.64H99.5488V21.64H102.549ZM120.229 24.2L118.157 26.3693L118.165 26.377L118.173 26.3846L120.229 24.2ZM120.229 37.28L118.19 35.0793L118.182 35.0868L118.174 35.0944L120.229 37.28ZM108.909 37.36H112.589V31.36H108.909V37.36ZM112.589 37.36C114.341 37.36 116.058 36.8806 117.461 35.6778L113.556 31.1222C113.466 31.1994 113.237 31.36 112.589 31.36V37.36ZM117.507 35.6378C118.954 34.3456 119.629 32.6195 119.629 30.76H113.629C113.629 30.9616 113.595 31.0485 113.587 31.0683C113.581 31.0817 113.57 31.1093 113.511 31.1622L117.507 35.6378ZM119.629 30.76C119.629 28.8999 118.969 27.1349 117.461 25.8422L113.556 30.3978C113.568 30.4073 113.574 30.4142 113.578 30.4182C113.582 30.4222 113.583 30.4243 113.584 30.4246C113.584 30.4249 113.584 30.4249 113.584 30.4251C113.584 30.4253 113.585 30.4272 113.587 30.4316C113.592 30.443 113.629 30.5344 113.629 30.76H119.629ZM117.547 25.9187C116.143 24.6186 114.374 24.12 112.589 24.12V30.12C113.257 30.12 113.435 30.288 113.471 30.3213L117.547 25.9187ZM112.589 24.12H108.909V30.12H112.589V24.12ZM105.909 27.12V34.36H111.909V27.12H105.909ZM113.229 36.8H108.869V42.8H113.229V36.8ZM105.869 39.8V50H111.869V39.8H105.869ZM108.869 47H102.549V53H108.869V47ZM105.549 50V21.64H99.5488V50H105.549ZM102.549 24.64H113.229V18.64H102.549V24.64ZM113.229 24.64C115.474 24.64 117.02 25.2835 118.157 26.3693L122.301 22.0307C119.864 19.7031 116.744 18.64 113.229 18.64V24.64ZM118.173 26.3846C119.344 27.4872 119.949 28.8514 119.949 30.72H125.949C125.949 27.3086 124.74 24.3261 122.285 22.0154L118.173 26.3846ZM119.949 30.72C119.949 32.6614 119.332 34.0214 118.19 35.0793L122.268 39.4807C124.752 37.1786 125.949 34.1653 125.949 30.72H119.949ZM118.174 35.0944C117.039 36.1614 115.487 36.8 113.229 36.8V42.8C116.73 42.8 119.845 41.7586 122.284 39.4656L118.174 35.0944Z" fill="black" mask="url(#path-6-outside-1_17_56)"/>
<rect x="213.309" y="56.6146" width="81.1485" height="18.5045" transform="rotate(30 213.309 56.6146)" fill="#FFBC58" stroke="black" stroke-width="5"/>
<mask id="path-9-inside-2_17_56" fill="white">
<rect x="226.586" y="101.874" width="14.98" height="31.4496" rx="3" transform="rotate(30 226.586 101.874)"/>
</mask>
<rect x="226.586" y="101.874" width="14.98" height="31.4496" rx="3" transform="rotate(30 226.586 101.874)" fill="#BA822F" stroke="black" stroke-width="10" mask="url(#path-9-inside-2_17_56)"/>
<path d="M208.747 63.9803L200.876 59.436L191.573 75.5501L235.718 101.037L233.072 105.619" stroke="black" stroke-width="5"/>
<rect x="135.837" y="132.027" width="81.1485" height="18.5045" transform="rotate(-150 135.837 132.027)" fill="#FFBC58" stroke="black" stroke-width="5"/>
<mask id="path-12-inside-3_17_56" fill="white">
<rect x="122.56" y="86.7678" width="14.98" height="31.4496" rx="3" transform="rotate(-150 122.56 86.7678)"/>
</mask>
<rect x="122.56" y="86.7678" width="14.98" height="31.4496" rx="3" transform="rotate(-150 122.56 86.7678)" fill="#BA822F" stroke="black" stroke-width="10" mask="url(#path-12-inside-3_17_56)"/>
<path d="M140.399 124.662L148.27 129.206L157.573 113.092L113.428 87.6045L116.073 83.0227" stroke="black" stroke-width="5"/>
</svg>
