<svg width="322" height="165" viewBox="0 0 322 165" fill="none" xmlns="http://www.w3.org/2000/svg">
<rect x="11" y="17.1045" width="299.201" height="147.703" rx="20" fill="#D8D8D8"/>
<rect x="2.50003" y="2.5" width="316.201" height="153.563" rx="17.5" fill="#FF5454" stroke="black" stroke-width="5"/>
<mask id="path-3-outside-1_16_21" maskUnits="userSpaceOnUse" x="19.3947" y="69.0325" width="158" height="72" fill="black">
<rect fill="white" x="19.3947" y="69.0325" width="158" height="72"/>
<path d="M37.5547 101.632C33.3947 101.632 29.9014 100.272 27.0747 97.5525C24.248 94.8058 22.8347 91.2591 22.8347 86.9125C22.8347 82.5925 24.2614 79.0458 27.1147 76.2725C29.968 73.4725 33.4214 72.0725 37.4747 72.0725C39.5014 72.0725 41.328 72.3791 42.9547 72.9925C44.608 73.5791 45.9414 74.3658 46.9547 75.3525C47.968 76.3391 48.7814 77.3525 49.3947 78.3925C50.008 79.4325 50.4347 80.5125 50.6747 81.6325L44.7147 83.5125C44.5814 82.9525 44.368 82.4058 44.0747 81.8725C43.7814 81.3125 43.368 80.7525 42.8347 80.1925C42.3014 79.6058 41.568 79.1391 40.6347 78.7925C39.7014 78.4191 38.648 78.2325 37.4747 78.2325C35.3414 78.2325 33.4614 78.9925 31.8347 80.5125C30.208 82.0058 29.3947 84.1391 29.3947 86.9125C29.3947 89.4725 30.1947 91.5125 31.7947 93.0325C33.3947 94.5525 35.3147 95.3125 37.5547 95.3125C39.7414 95.3125 41.4347 94.7658 42.6347 93.6725C43.8347 92.5791 44.6214 91.3525 44.9947 89.9925L51.0347 91.7125C50.768 92.8058 50.328 93.8858 49.7147 94.9525C49.128 96.0191 48.3147 97.0725 47.2747 98.1125C46.2614 99.1525 44.9014 100.006 43.1947 100.672C41.5147 101.312 39.6347 101.632 37.5547 101.632ZM69.0131 101.032L63.9331 90.4725H61.6931V101.032H55.3731V72.6725H66.6131C69.3598 72.6725 71.5731 73.5125 73.2531 75.1925C74.9598 76.8725 75.8131 78.9925 75.8131 81.5525C75.8131 83.4725 75.3198 85.1391 74.3331 86.5525C73.3465 87.9391 71.9731 88.9391 70.2131 89.5525L75.9731 101.032H69.0131ZM61.6931 85.0325H65.4131C66.6931 85.0325 67.6798 84.7258 68.3731 84.1125C69.0665 83.4725 69.4131 82.6325 69.4131 81.5925C69.4131 80.5258 69.0665 79.6858 68.3731 79.0725C67.6798 78.4591 66.6931 78.1525 65.4131 78.1525H61.6931V85.0325ZM98.4903 101.032H80.4903V72.6725H98.4503V78.6325H86.8103V84.0325H97.3703V89.5925H86.8103V95.0325H98.4903V101.032ZM122.811 101.032L120.771 95.2725H109.811L107.771 101.032H101.131L111.811 72.6725H119.131L129.691 101.032H122.811ZM115.371 79.7125L111.891 89.5125H118.771L115.371 79.7125ZM152.048 78.7125H143.288V101.032H136.968V78.7125H128.248V72.6725H152.048V78.7125ZM173.881 101.032H155.881V72.6725H173.841V78.6325H162.201V84.0325H172.761V89.5925H162.201V95.0325H173.881V101.032ZM50.6747 137.032H45.5547L45.1547 134.152C44.4614 135.139 43.4347 135.966 42.0747 136.632C40.7147 137.299 39.088 137.632 37.1947 137.632C33.1414 137.632 29.728 136.272 26.9547 133.552C24.208 130.806 22.8347 127.246 22.8347 122.872C22.8347 118.526 24.2614 114.979 27.1147 112.232C29.9947 109.459 33.488 108.072 37.5947 108.072C41.2747 108.072 44.1947 108.939 46.3547 110.672C48.5147 112.406 49.968 114.459 50.7147 116.832L44.6347 118.952C44.3414 117.752 43.608 116.632 42.4347 115.592C41.288 114.526 39.6747 113.992 37.5947 113.992C35.408 113.992 33.4614 114.752 31.7547 116.272C30.0747 117.766 29.2347 119.966 29.2347 122.872C29.2347 125.699 30.048 127.912 31.6747 129.512C33.3014 131.086 35.328 131.872 37.7547 131.872C39.8347 131.872 41.4614 131.379 42.6347 130.392C43.808 129.379 44.5147 128.326 44.7547 127.232H36.2347V121.872H50.6747V137.032ZM74.9981 137.032L72.9581 131.272H61.9981L59.9581 137.032H53.3181L63.9981 108.672H71.3181L81.8781 137.032H74.9981ZM67.5581 115.712L64.0781 125.512H70.9581L67.5581 115.712ZM117.493 137.032H111.293V118.232L103.893 137.032H98.7731L91.3731 118.472V137.032H85.3731V108.672H93.6131L101.413 127.832L108.813 108.672H117.493V137.032ZM141.654 137.032H123.654V108.672H141.614V114.632H129.974V120.032H140.534V125.592H129.974V131.032H141.654V137.032Z"/>
</mask>
<path d="M37.5547 101.632C33.3947 101.632 29.9014 100.272 27.0747 97.5525C24.248 94.8058 22.8347 91.2591 22.8347 86.9125C22.8347 82.5925 24.2614 79.0458 27.1147 76.2725C29.968 73.4725 33.4214 72.0725 37.4747 72.0725C39.5014 72.0725 41.328 72.3791 42.9547 72.9925C44.608 73.5791 45.9414 74.3658 46.9547 75.3525C47.968 76.3391 48.7814 77.3525 49.3947 78.3925C50.008 79.4325 50.4347 80.5125 50.6747 81.6325L44.7147 83.5125C44.5814 82.9525 44.368 82.4058 44.0747 81.8725C43.7814 81.3125 43.368 80.7525 42.8347 80.1925C42.3014 79.6058 41.568 79.1391 40.6347 78.7925C39.7014 78.4191 38.648 78.2325 37.4747 78.2325C35.3414 78.2325 33.4614 78.9925 31.8347 80.5125C30.208 82.0058 29.3947 84.1391 29.3947 86.9125C29.3947 89.4725 30.1947 91.5125 31.7947 93.0325C33.3947 94.5525 35.3147 95.3125 37.5547 95.3125C39.7414 95.3125 41.4347 94.7658 42.6347 93.6725C43.8347 92.5791 44.6214 91.3525 44.9947 89.9925L51.0347 91.7125C50.768 92.8058 50.328 93.8858 49.7147 94.9525C49.128 96.0191 48.3147 97.0725 47.2747 98.1125C46.2614 99.1525 44.9014 100.006 43.1947 100.672C41.5147 101.312 39.6347 101.632 37.5547 101.632ZM69.0131 101.032L63.9331 90.4725H61.6931V101.032H55.3731V72.6725H66.6131C69.3598 72.6725 71.5731 73.5125 73.2531 75.1925C74.9598 76.8725 75.8131 78.9925 75.8131 81.5525C75.8131 83.4725 75.3198 85.1391 74.3331 86.5525C73.3465 87.9391 71.9731 88.9391 70.2131 89.5525L75.9731 101.032H69.0131ZM61.6931 85.0325H65.4131C66.6931 85.0325 67.6798 84.7258 68.3731 84.1125C69.0665 83.4725 69.4131 82.6325 69.4131 81.5925C69.4131 80.5258 69.0665 79.6858 68.3731 79.0725C67.6798 78.4591 66.6931 78.1525 65.4131 78.1525H61.6931V85.0325ZM98.4903 101.032H80.4903V72.6725H98.4503V78.6325H86.8103V84.0325H97.3703V89.5925H86.8103V95.0325H98.4903V101.032ZM122.811 101.032L120.771 95.2725H109.811L107.771 101.032H101.131L111.811 72.6725H119.131L129.691 101.032H122.811ZM115.371 79.7125L111.891 89.5125H118.771L115.371 79.7125ZM152.048 78.7125H143.288V101.032H136.968V78.7125H128.248V72.6725H152.048V78.7125ZM173.881 101.032H155.881V72.6725H173.841V78.6325H162.201V84.0325H172.761V89.5925H162.201V95.0325H173.881V101.032ZM50.6747 137.032H45.5547L45.1547 134.152C44.4614 135.139 43.4347 135.966 42.0747 136.632C40.7147 137.299 39.088 137.632 37.1947 137.632C33.1414 137.632 29.728 136.272 26.9547 133.552C24.208 130.806 22.8347 127.246 22.8347 122.872C22.8347 118.526 24.2614 114.979 27.1147 112.232C29.9947 109.459 33.488 108.072 37.5947 108.072C41.2747 108.072 44.1947 108.939 46.3547 110.672C48.5147 112.406 49.968 114.459 50.7147 116.832L44.6347 118.952C44.3414 117.752 43.608 116.632 42.4347 115.592C41.288 114.526 39.6747 113.992 37.5947 113.992C35.408 113.992 33.4614 114.752 31.7547 116.272C30.0747 117.766 29.2347 119.966 29.2347 122.872C29.2347 125.699 30.048 127.912 31.6747 129.512C33.3014 131.086 35.328 131.872 37.7547 131.872C39.8347 131.872 41.4614 131.379 42.6347 130.392C43.808 129.379 44.5147 128.326 44.7547 127.232H36.2347V121.872H50.6747V137.032ZM74.9981 137.032L72.9581 131.272H61.9981L59.9581 137.032H53.3181L63.9981 108.672H71.3181L81.8781 137.032H74.9981ZM67.5581 115.712L64.0781 125.512H70.9581L67.5581 115.712ZM117.493 137.032H111.293V118.232L103.893 137.032H98.7731L91.3731 118.472V137.032H85.3731V108.672H93.6131L101.413 127.832L108.813 108.672H117.493V137.032ZM141.654 137.032H123.654V108.672H141.614V114.632H129.974V120.032H140.534V125.592H129.974V131.032H141.654V137.032Z" fill="white"/>
<path d="M27.0747 97.5525L24.984 99.704L24.9893 99.7091L24.9945 99.7142L27.0747 97.5525ZM27.1147 76.2725L29.2056 78.4237L29.2108 78.4187L29.2159 78.4137L27.1147 76.2725ZM42.9547 72.9925L41.8963 75.7996L41.9238 75.8099L41.9515 75.8198L42.9547 72.9925ZM46.9547 75.3525L49.0475 73.2031L49.0475 73.2031L46.9547 75.3525ZM49.3947 78.3925L51.9788 76.8685L51.9788 76.8685L49.3947 78.3925ZM50.6747 81.6325L51.5772 84.4935L54.1799 83.6725L53.6081 81.0039L50.6747 81.6325ZM44.7147 83.5125L41.7963 84.2073L42.5429 87.3432L45.6172 86.3735L44.7147 83.5125ZM44.0747 81.8725L41.4172 83.2645L41.4313 83.2915L41.446 83.3182L44.0747 81.8725ZM42.8347 80.1925L40.6149 82.2105L40.6383 82.2362L40.6623 82.2614L42.8347 80.1925ZM40.6347 78.7925L39.5205 81.5779L39.5552 81.5918L39.5901 81.6047L40.6347 78.7925ZM31.8347 80.5125L33.8635 82.7224L33.8732 82.7135L33.8829 82.7044L31.8347 80.5125ZM31.7947 93.0325L33.8609 90.8575H33.8609L31.7947 93.0325ZM42.6347 93.6725L40.6142 91.4549L40.6142 91.4549L42.6347 93.6725ZM44.9947 89.9925L45.8163 87.1072L42.9035 86.2777L42.1017 89.1983L44.9947 89.9925ZM51.0347 91.7125L53.9492 92.4233L54.6335 89.618L51.8563 88.8272L51.0347 91.7125ZM49.7147 94.9525L47.114 93.4571L47.0998 93.4818L47.086 93.5067L49.7147 94.9525ZM47.2747 98.1125L45.1534 95.9911L45.1396 96.0049L45.126 96.0189L47.2747 98.1125ZM43.1947 100.672L44.2627 103.476L44.2745 103.471L44.2862 103.467L43.1947 100.672ZM37.5547 98.6325C34.1186 98.6325 31.3864 97.5381 29.1548 95.3908L24.9945 99.7142C28.4163 103.007 32.6707 104.632 37.5547 104.632V98.6325ZM29.1653 95.4009C26.9828 93.2801 25.8347 90.5405 25.8347 86.9125H19.8347C19.8347 91.9778 21.5132 96.3315 24.984 99.704L29.1653 95.4009ZM25.8347 86.9125C25.8347 83.326 26.9864 80.5807 29.2056 78.4237L25.0237 74.1212C21.5363 77.5109 19.8347 81.859 19.8347 86.9125H25.8347ZM29.2159 78.4137C31.4997 76.1726 34.1949 75.0725 37.4747 75.0725V69.0725C32.6478 69.0725 28.4364 70.7723 25.0135 74.1312L29.2159 78.4137ZM37.4747 75.0725C39.1987 75.0725 40.6589 75.333 41.8963 75.7996L44.0131 70.1854C41.9971 69.4252 39.804 69.0725 37.4747 69.0725V75.0725ZM41.9515 75.8198C43.2924 76.2956 44.2238 76.8806 44.8618 77.5019L49.0475 73.2031C47.6589 71.851 45.9236 70.8627 43.9579 70.1652L41.9515 75.8198ZM44.8618 77.5019C45.7161 78.3337 46.3533 79.141 46.8106 79.9164L51.9788 76.8685C51.2094 75.5639 50.2199 74.3446 49.0475 73.2031L44.8618 77.5019ZM46.8106 79.9164C47.269 80.6938 47.5724 81.4731 47.7413 82.2611L53.6081 81.0039C53.297 79.5519 52.747 78.1711 51.9788 76.8685L46.8106 79.9164ZM49.7722 78.7714L43.8122 80.6514L45.6172 86.3735L51.5772 84.4935L49.7722 78.7714ZM47.6331 82.8176C47.4339 81.9808 47.1191 81.1827 46.7033 80.4267L41.446 83.3182C41.6169 83.6289 41.7288 83.9241 41.7963 84.2073L47.6331 82.8176ZM46.7322 80.4804C46.2844 79.6255 45.6916 78.8423 45.0071 78.1235L40.6623 82.2614C41.0444 82.6627 41.2783 82.9994 41.4172 83.2645L46.7322 80.4804ZM45.0545 78.1745C44.1265 77.1537 42.9497 76.4521 41.6792 75.9802L39.5901 81.6047C40.1863 81.8262 40.4762 82.058 40.6149 82.2105L45.0545 78.1745ZM41.7489 76.007C40.4071 75.4703 38.9668 75.2325 37.4747 75.2325V81.2325C38.3292 81.2325 38.9956 81.3679 39.5205 81.5779L41.7489 76.007ZM37.4747 75.2325C34.5451 75.2325 31.9421 76.3062 29.7864 78.3205L33.8829 82.7044C34.9806 81.6787 36.1376 81.2325 37.4747 81.2325V75.2325ZM29.8059 78.3025C27.4091 80.5028 26.3947 83.5289 26.3947 86.9125H32.3947C32.3947 84.7494 33.0069 83.5088 33.8635 82.7224L29.8059 78.3025ZM26.3947 86.9125C26.3947 90.1513 27.4356 93.0293 29.7284 95.2075L33.8609 90.8575C32.9537 89.9956 32.3947 88.7936 32.3947 86.9125H26.3947ZM29.7284 95.2075C31.8952 97.2659 34.5585 98.3125 37.5547 98.3125V92.3125C36.0709 92.3125 34.8941 91.839 33.8609 90.8575L29.7284 95.2075ZM37.5547 98.3125C40.2255 98.3125 42.7348 97.6397 44.6552 95.8901L40.6142 91.4549C40.1346 91.8919 39.2572 92.3125 37.5547 92.3125V98.3125ZM44.6552 95.8901C46.21 94.4734 47.3424 92.7729 47.8877 90.7866L42.1017 89.1983C41.9003 89.932 41.4594 90.6848 40.6142 91.4549L44.6552 95.8901ZM44.173 92.8778L50.213 94.5978L51.8563 88.8272L45.8163 87.1072L44.173 92.8778ZM48.1201 91.0016C47.9265 91.7956 47.5993 92.6131 47.114 93.4571L52.3154 96.4479C53.0568 95.1585 53.6096 93.816 53.9492 92.4233L48.1201 91.0016ZM47.086 93.5067C46.6606 94.2802 46.0333 95.1112 45.1534 95.9911L49.396 100.234C50.596 99.0338 51.5954 97.7581 52.3433 96.3982L47.086 93.5067ZM45.126 96.0189C44.4784 96.6835 43.5124 97.3276 42.1031 97.8781L44.2862 103.467C46.2903 102.684 48.0443 101.621 49.4234 100.206L45.126 96.0189ZM42.1267 97.869C40.8368 98.3604 39.3261 98.6325 37.5547 98.6325V104.632C39.9432 104.632 42.1925 104.265 44.2627 103.476L42.1267 97.869ZM69.0131 101.032L66.3097 102.333L67.1272 104.032H69.0131V101.032ZM63.9331 90.4725L66.6366 89.1719L65.819 87.4725H63.9331V90.4725ZM61.6931 90.4725V87.4725H58.6931V90.4725H61.6931ZM61.6931 101.032V104.032H64.6931V101.032H61.6931ZM55.3731 101.032H52.3731V104.032H55.3731V101.032ZM55.3731 72.6725V69.6725H52.3731V72.6725H55.3731ZM73.2531 75.1925L71.1318 77.3138L71.1402 77.3221L71.1486 77.3304L73.2531 75.1925ZM74.3331 86.5525L76.7775 88.2917L76.7853 88.2808L76.793 88.2697L74.3331 86.5525ZM70.2131 89.5525L69.2259 86.7196L65.9994 87.8439L67.5317 90.8978L70.2131 89.5525ZM75.9731 101.032V104.032H80.8348L78.6545 99.6871L75.9731 101.032ZM61.6931 85.0325H58.6931V88.0325H61.6931V85.0325ZM68.3731 84.1125L70.3608 86.3595L70.3846 86.3384L70.408 86.3169L68.3731 84.1125ZM68.3731 79.0725L66.3854 81.3195L66.3854 81.3195L68.3731 79.0725ZM61.6931 78.1525V75.1525H58.6931V78.1525H61.6931ZM71.7166 99.7319L66.6366 89.1719L61.2297 91.773L66.3097 102.333L71.7166 99.7319ZM63.9331 87.4725H61.6931V93.4725H63.9331V87.4725ZM58.6931 90.4725V101.032H64.6931V90.4725H58.6931ZM61.6931 98.0325H55.3731V104.032H61.6931V98.0325ZM58.3731 101.032V72.6725H52.3731V101.032H58.3731ZM55.3731 75.6725H66.6131V69.6725H55.3731V75.6725ZM66.6131 75.6725C68.6986 75.6725 70.1028 76.2848 71.1318 77.3138L75.3744 73.0711C73.0434 70.7401 70.021 69.6725 66.6131 69.6725V75.6725ZM71.1486 77.3304C72.2399 78.4048 72.8131 79.7347 72.8131 81.5525H78.8131C78.8131 78.2502 77.6796 75.3402 75.3577 73.0545L71.1486 77.3304ZM72.8131 81.5525C72.8131 82.9312 72.4687 83.9822 71.8732 84.8352L76.793 88.2697C78.1708 86.2961 78.8131 84.0137 78.8131 81.5525H72.8131ZM71.8887 84.8132C71.2971 85.6447 70.4572 86.2905 69.2259 86.7196L71.2003 92.3854C73.489 91.5878 75.3958 90.2336 76.7775 88.2917L71.8887 84.8132ZM67.5317 90.8978L73.2917 102.378L78.6545 99.6871L72.8945 88.2071L67.5317 90.8978ZM75.9731 98.0325H69.0131V104.032H75.9731V98.0325ZM61.6931 88.0325H65.4131V82.0325H61.6931V88.0325ZM65.4131 88.0325C67.1447 88.0325 68.9401 87.6163 70.3608 86.3595L66.3854 81.8655C66.3851 81.8657 66.378 81.8723 66.3572 81.8837C66.3356 81.8955 66.2934 81.9157 66.2227 81.9377C66.0769 81.983 65.8202 82.0325 65.4131 82.0325V88.0325ZM70.408 86.3169C71.7832 85.0475 72.4131 83.3746 72.4131 81.5925H66.4131C66.4131 81.7761 66.3835 81.8496 66.38 81.858C66.3774 81.8644 66.3757 81.8671 66.3735 81.8701C66.3712 81.8735 66.3618 81.8863 66.3383 81.9081L70.408 86.3169ZM72.4131 81.5925C72.4131 79.8111 71.7989 78.0976 70.3608 76.8255L66.3854 81.3195C66.3958 81.3287 66.3944 81.3291 66.3884 81.3208C66.3823 81.3123 66.3796 81.3059 66.38 81.3069C66.3807 81.3087 66.3886 81.3279 66.3965 81.3716C66.4046 81.4162 66.4131 81.488 66.4131 81.5925H72.4131ZM70.3608 76.8255C68.9401 75.5686 67.1447 75.1525 65.4131 75.1525V81.1525C65.8202 81.1525 66.0769 81.202 66.2227 81.2473C66.2934 81.2693 66.3356 81.2894 66.3572 81.3013C66.378 81.3126 66.3851 81.3192 66.3854 81.3195L70.3608 76.8255ZM65.4131 75.1525H61.6931V81.1525H65.4131V75.1525ZM58.6931 78.1525V85.0325H64.6931V78.1525H58.6931ZM98.4903 101.032V104.032H101.49V101.032H98.4903ZM80.4903 101.032H77.4903V104.032H80.4903V101.032ZM80.4903 72.6725V69.6725H77.4903V72.6725H80.4903ZM98.4503 72.6725H101.45V69.6725H98.4503V72.6725ZM98.4503 78.6325V81.6325H101.45V78.6325H98.4503ZM86.8103 78.6325V75.6325H83.8103V78.6325H86.8103ZM86.8103 84.0325H83.8103V87.0325H86.8103V84.0325ZM97.3703 84.0325H100.37V81.0325H97.3703V84.0325ZM97.3703 89.5925V92.5925H100.37V89.5925H97.3703ZM86.8103 89.5925V86.5925H83.8103V89.5925H86.8103ZM86.8103 95.0325H83.8103V98.0325H86.8103V95.0325ZM98.4903 95.0325H101.49V92.0325H98.4903V95.0325ZM98.4903 98.0325H80.4903V104.032H98.4903V98.0325ZM83.4903 101.032V72.6725H77.4903V101.032H83.4903ZM80.4903 75.6725H98.4503V69.6725H80.4903V75.6725ZM95.4503 72.6725V78.6325H101.45V72.6725H95.4503ZM98.4503 75.6325H86.8103V81.6325H98.4503V75.6325ZM83.8103 78.6325V84.0325H89.8103V78.6325H83.8103ZM86.8103 87.0325H97.3703V81.0325H86.8103V87.0325ZM94.3703 84.0325V89.5925H100.37V84.0325H94.3703ZM97.3703 86.5925H86.8103V92.5925H97.3703V86.5925ZM83.8103 89.5925V95.0325H89.8103V89.5925H83.8103ZM86.8103 98.0325H98.4903V92.0325H86.8103V98.0325ZM95.4903 95.0325V101.032H101.49V95.0325H95.4903ZM122.811 101.032L119.983 102.034L120.691 104.032H122.811V101.032ZM120.771 95.2725L123.599 94.2709L122.891 92.2725H120.771V95.2725ZM109.811 95.2725V92.2725H107.691L106.983 94.2709L109.811 95.2725ZM107.771 101.032V104.032H109.891L110.599 102.034L107.771 101.032ZM101.131 101.032L98.3231 99.9752L96.7952 104.032H101.131V101.032ZM111.811 72.6725V69.6725H109.735L109.003 71.6152L111.811 72.6725ZM119.131 72.6725L121.942 71.6256L121.215 69.6725H119.131V72.6725ZM129.691 101.032V104.032H134.009L132.502 99.9856L129.691 101.032ZM115.371 79.7125L118.205 78.7292L115.404 70.6547L112.544 78.7086L115.371 79.7125ZM111.891 89.5125L109.064 88.5086L107.642 92.5125H111.891V89.5125ZM118.771 89.5125V92.5125H122.987L121.605 88.5292L118.771 89.5125ZM125.639 100.031L123.599 94.2709L117.943 96.274L119.983 102.034L125.639 100.031ZM120.771 92.2725H109.811V98.2725H120.771V92.2725ZM106.983 94.2709L104.943 100.031L110.599 102.034L112.639 96.274L106.983 94.2709ZM107.771 98.0325H101.131V104.032H107.771V98.0325ZM103.938 102.09L114.618 73.7297L109.003 71.6152L98.3231 99.9752L103.938 102.09ZM111.811 75.6725H119.131V69.6725H111.811V75.6725ZM116.319 73.7193L126.879 102.079L132.502 99.9856L121.942 71.6256L116.319 73.7193ZM129.691 98.0325H122.811V104.032H129.691V98.0325ZM112.544 78.7086L109.064 88.5086L114.718 90.5164L118.198 80.7164L112.544 78.7086ZM111.891 92.5125H118.771V86.5125H111.891V92.5125ZM121.605 88.5292L118.205 78.7292L112.536 80.6958L115.936 90.4958L121.605 88.5292ZM152.048 78.7125V81.7125H155.048V78.7125H152.048ZM143.288 78.7125V75.7125H140.288V78.7125H143.288ZM143.288 101.032V104.032H146.288V101.032H143.288ZM136.968 101.032H133.968V104.032H136.968V101.032ZM136.968 78.7125H139.968V75.7125H136.968V78.7125ZM128.248 78.7125H125.248V81.7125H128.248V78.7125ZM128.248 72.6725V69.6725H125.248V72.6725H128.248ZM152.048 72.6725H155.048V69.6725H152.048V72.6725ZM152.048 75.7125H143.288V81.7125H152.048V75.7125ZM140.288 78.7125V101.032H146.288V78.7125H140.288ZM143.288 98.0325H136.968V104.032H143.288V98.0325ZM139.968 101.032V78.7125H133.968V101.032H139.968ZM136.968 75.7125H128.248V81.7125H136.968V75.7125ZM131.248 78.7125V72.6725H125.248V78.7125H131.248ZM128.248 75.6725H152.048V69.6725H128.248V75.6725ZM149.048 72.6725V78.7125H155.048V72.6725H149.048ZM173.881 101.032V104.032H176.881V101.032H173.881ZM155.881 101.032H152.881V104.032H155.881V101.032ZM155.881 72.6725V69.6725H152.881V72.6725H155.881ZM173.841 72.6725H176.841V69.6725H173.841V72.6725ZM173.841 78.6325V81.6325H176.841V78.6325H173.841ZM162.201 78.6325V75.6325H159.201V78.6325H162.201ZM162.201 84.0325H159.201V87.0325H162.201V84.0325ZM172.761 84.0325H175.761V81.0325H172.761V84.0325ZM172.761 89.5925V92.5925H175.761V89.5925H172.761ZM162.201 89.5925V86.5925H159.201V89.5925H162.201ZM162.201 95.0325H159.201V98.0325H162.201V95.0325ZM173.881 95.0325H176.881V92.0325H173.881V95.0325ZM173.881 98.0325H155.881V104.032H173.881V98.0325ZM158.881 101.032V72.6725H152.881V101.032H158.881ZM155.881 75.6725H173.841V69.6725H155.881V75.6725ZM170.841 72.6725V78.6325H176.841V72.6725H170.841ZM173.841 75.6325H162.201V81.6325H173.841V75.6325ZM159.201 78.6325V84.0325H165.201V78.6325H159.201ZM162.201 87.0325H172.761V81.0325H162.201V87.0325ZM169.761 84.0325V89.5925H175.761V84.0325H169.761ZM172.761 86.5925H162.201V92.5925H172.761V86.5925ZM159.201 89.5925V95.0325H165.201V89.5925H159.201ZM162.201 98.0325H173.881V92.0325H162.201V98.0325ZM170.881 95.0325V101.032H176.881V95.0325H170.881ZM50.6747 137.032V140.032H53.6747V137.032H50.6747ZM45.5547 137.032L42.5832 137.445L42.9426 140.032H45.5547V137.032ZM45.1547 134.152L48.1262 133.74L47.0785 126.197L42.7001 132.428L45.1547 134.152ZM42.0747 136.632L40.7542 133.939L42.0747 136.632ZM26.9547 133.552L24.8334 135.674L24.8437 135.684L24.8541 135.694L26.9547 133.552ZM27.1147 112.232L29.1952 114.394L29.1956 114.393L27.1147 112.232ZM46.3547 110.672L44.4771 113.012L44.4771 113.012L46.3547 110.672ZM50.7147 116.832L51.7024 119.665L54.4495 118.707L53.5764 115.932L50.7147 116.832ZM44.6347 118.952L41.7205 119.665L42.5045 122.872L45.6224 121.785L44.6347 118.952ZM42.4347 115.592L40.3914 117.789L40.4178 117.814L40.4448 117.838L42.4347 115.592ZM31.7547 116.272L33.7478 118.515L33.7499 118.513L31.7547 116.272ZM31.6747 129.512L29.571 131.651L29.58 131.66L29.589 131.669L31.6747 129.512ZM42.6347 130.392L44.5655 132.689L44.5806 132.676L44.5955 132.663L42.6347 130.392ZM44.7547 127.232L47.6849 127.876L48.4847 124.232H44.7547V127.232ZM36.2347 127.232H33.2347V130.232H36.2347V127.232ZM36.2347 121.872V118.872H33.2347V121.872H36.2347ZM50.6747 121.872H53.6747V118.872H50.6747V121.872ZM50.6747 134.032H45.5547V140.032H50.6747V134.032ZM48.5262 136.62L48.1262 133.74L42.1832 134.565L42.5832 137.445L48.5262 136.62ZM42.7001 132.428C42.3624 132.908 41.7747 133.438 40.7542 133.939L43.3952 139.326C45.0947 138.493 46.5603 137.37 47.6093 135.877L42.7001 132.428ZM40.7542 133.939C39.895 134.36 38.7419 134.632 37.1947 134.632V140.632C39.4341 140.632 41.5344 140.238 43.3952 139.326L40.7542 133.939ZM37.1947 134.632C33.889 134.632 31.2413 133.555 29.0553 131.411L24.8541 135.694C28.2147 138.99 32.3937 140.632 37.1947 140.632V134.632ZM29.076 131.431C26.9648 129.32 25.8347 126.559 25.8347 122.872H19.8347C19.8347 127.932 21.4512 132.292 24.8334 135.674L29.076 131.431ZM25.8347 122.872C25.8347 119.253 26.9899 116.517 29.1952 114.394L25.0341 110.071C21.5328 113.442 19.8347 117.798 19.8347 122.872H25.8347ZM29.1956 114.393C31.5 112.174 34.2407 111.072 37.5947 111.072V105.072C32.7354 105.072 28.4894 106.744 25.0338 110.072L29.1956 114.393ZM37.5947 111.072C40.817 111.072 43.002 111.829 44.4771 113.012L48.2323 108.333C45.3874 106.05 41.7324 105.072 37.5947 105.072V111.072ZM44.4771 113.012C46.2282 114.417 47.3044 115.989 47.853 117.733L53.5764 115.932C52.6316 112.929 50.8012 110.394 48.2323 108.333L44.4771 113.012ZM49.727 114L43.647 116.12L45.6224 121.785L51.7024 119.665L49.727 114ZM47.5489 118.24C47.0759 116.305 45.9317 114.683 44.4246 113.347L40.4448 117.838C41.2843 118.582 41.6068 119.2 41.7205 119.665L47.5489 118.24ZM44.478 113.396C42.6143 111.662 40.1782 110.992 37.5947 110.992V116.992C39.1711 116.992 39.9617 117.389 40.3914 117.789L44.478 113.396ZM37.5947 110.992C34.6367 110.992 31.9883 112.047 29.7594 114.032L33.7499 118.513C34.9344 117.458 36.1793 116.992 37.5947 116.992V110.992ZM29.7616 114.03C27.2653 116.249 26.2347 119.376 26.2347 122.872H32.2347C32.2347 120.555 32.8841 119.282 33.7478 118.515L29.7616 114.03ZM26.2347 122.872C26.2347 126.299 27.2402 129.359 29.571 131.651L33.7784 127.374C32.8558 126.466 32.2347 125.099 32.2347 122.872H26.2347ZM29.589 131.669C31.8181 133.825 34.6116 134.872 37.7547 134.872V128.872C36.0444 128.872 34.7846 128.347 33.7604 127.356L29.589 131.669ZM37.7547 134.872C40.2887 134.872 42.6855 134.269 44.5655 132.689L40.7039 128.096C40.2372 128.489 39.3806 128.872 37.7547 128.872V134.872ZM44.5955 132.663C46.0743 131.386 47.2614 129.805 47.6849 127.876L41.8245 126.589C41.7679 126.847 41.5417 127.372 40.6738 128.122L44.5955 132.663ZM44.7547 124.232H36.2347V130.232H44.7547V124.232ZM39.2347 127.232V121.872H33.2347V127.232H39.2347ZM36.2347 124.872H50.6747V118.872H36.2347V124.872ZM47.6747 121.872V137.032H53.6747V121.872H47.6747ZM74.9981 137.032L72.1702 138.034L72.878 140.032H74.9981V137.032ZM72.9581 131.272L75.786 130.271L75.0782 128.272H72.9581V131.272ZM61.9981 131.272V128.272H59.878L59.1702 130.271L61.9981 131.272ZM59.9581 137.032V140.032H62.0782L62.786 138.034L59.9581 137.032ZM53.3181 137.032L50.5106 135.975L48.9827 140.032H53.3181V137.032ZM63.9981 108.672V105.672H61.9222L61.1906 107.615L63.9981 108.672ZM71.3181 108.672L74.1295 107.626L73.4023 105.672H71.3181V108.672ZM81.8781 137.032V140.032H86.1964L84.6895 135.986L81.8781 137.032ZM67.5581 115.712L70.3924 114.729L67.591 106.655L64.7311 114.709L67.5581 115.712ZM64.0781 125.512L61.2511 124.509L59.8293 128.512H64.0781V125.512ZM70.9581 125.512V128.512H75.1744L73.7924 124.529L70.9581 125.512ZM77.826 136.031L75.786 130.271L70.1302 132.274L72.1702 138.034L77.826 136.031ZM72.9581 128.272H61.9981V134.272H72.9581V128.272ZM59.1702 130.271L57.1302 136.031L62.786 138.034L64.826 132.274L59.1702 130.271ZM59.9581 134.032H53.3181V140.032H59.9581V134.032ZM56.1256 138.09L66.8056 109.73L61.1906 107.615L50.5106 135.975L56.1256 138.09ZM63.9981 111.672H71.3181V105.672H63.9981V111.672ZM68.5067 109.719L79.0667 138.079L84.6895 135.986L74.1295 107.626L68.5067 109.719ZM81.8781 134.032H74.9981V140.032H81.8781V134.032ZM64.7311 114.709L61.2511 124.509L66.9052 126.516L70.3852 116.716L64.7311 114.709ZM64.0781 128.512H70.9581V122.512H64.0781V128.512ZM73.7924 124.529L70.3924 114.729L64.7239 116.696L68.1239 126.496L73.7924 124.529ZM117.493 137.032V140.032H120.493V137.032H117.493ZM111.293 137.032H108.293V140.032H111.293V137.032ZM111.293 118.232H114.293L108.502 117.134L111.293 118.232ZM103.893 137.032V140.032H105.936L106.685 138.131L103.893 137.032ZM98.7731 137.032L95.9865 138.144L96.7396 140.032H98.7731V137.032ZM91.3731 118.472L94.1598 117.361L88.3731 118.472H91.3731ZM91.3731 137.032V140.032H94.3731V137.032H91.3731ZM85.3731 137.032H82.3731V140.032H85.3731V137.032ZM85.3731 108.672V105.672H82.3731V108.672H85.3731ZM93.6131 108.672L96.3917 107.541L95.6309 105.672H93.6131V108.672ZM101.413 127.832L98.6345 128.964L101.487 135.969L104.212 128.913L101.413 127.832ZM108.813 108.672V105.672H106.756L106.015 107.592L108.813 108.672ZM117.493 108.672H120.493V105.672H117.493V108.672ZM117.493 134.032H111.293V140.032H117.493V134.032ZM114.293 137.032V118.232H108.293V137.032H114.293ZM108.502 117.134L101.102 135.934L106.685 138.131L114.085 119.331L108.502 117.134ZM103.893 134.032H98.7731V140.032H103.893V134.032ZM101.56 135.921L94.1598 117.361L88.5864 119.584L95.9865 138.144L101.56 135.921ZM88.3731 118.472V137.032H94.3731V118.472H88.3731ZM91.3731 134.032H85.3731V140.032H91.3731V134.032ZM88.3731 137.032V108.672H82.3731V137.032H88.3731ZM85.3731 111.672H93.6131V105.672H85.3731V111.672ZM90.8345 109.804L98.6345 128.964L104.192 126.701L96.3917 107.541L90.8345 109.804ZM104.212 128.913L111.612 109.753L106.015 107.592L98.6146 126.752L104.212 128.913ZM108.813 111.672H117.493V105.672H108.813V111.672ZM114.493 108.672V137.032H120.493V108.672H114.493ZM141.654 137.032V140.032H144.654V137.032H141.654ZM123.654 137.032H120.654V140.032H123.654V137.032ZM123.654 108.672V105.672H120.654V108.672H123.654ZM141.614 108.672H144.614V105.672H141.614V108.672ZM141.614 114.632V117.632H144.614V114.632H141.614ZM129.974 114.632V111.632H126.974V114.632H129.974ZM129.974 120.032H126.974V123.032H129.974V120.032ZM140.534 120.032H143.534V117.032H140.534V120.032ZM140.534 125.592V128.592H143.534V125.592H140.534ZM129.974 125.592V122.592H126.974V125.592H129.974ZM129.974 131.032H126.974V134.032H129.974V131.032ZM141.654 131.032H144.654V128.032H141.654V131.032ZM141.654 134.032H123.654V140.032H141.654V134.032ZM126.654 137.032V108.672H120.654V137.032H126.654ZM123.654 111.672H141.614V105.672H123.654V111.672ZM138.614 108.672V114.632H144.614V108.672H138.614ZM141.614 111.632H129.974V117.632H141.614V111.632ZM126.974 114.632V120.032H132.974V114.632H126.974ZM129.974 123.032H140.534V117.032H129.974V123.032ZM137.534 120.032V125.592H143.534V120.032H137.534ZM140.534 122.592H129.974V128.592H140.534V122.592ZM126.974 125.592V131.032H132.974V125.592H126.974ZM129.974 134.032H141.654V128.032H129.974V134.032ZM138.654 131.032V137.032H144.654V131.032H138.654Z" fill="black" mask="url(#path-3-outside-1_16_21)"/>
<path fill-rule="evenodd" clip-rule="evenodd" d="M248.46 4H233.337L229.851 10.086L219.251 4H203.092L200.48 8.55978L234.622 28.161L248.46 4ZM317.67 83.5084V94.3921L312.446 103.514C307.011 113.004 294.818 116.397 285.46 111.025L268.389 101.224L274.999 89.6829L292.07 99.4836C295.293 101.334 299.193 100.248 301.065 96.9798L310.981 79.6678L317.67 83.5084ZM317.67 41.5835V75.8403L302.905 67.3634L317.67 41.5835ZM198.64 38.1761L208.556 20.8642L219.936 27.3979L210.021 44.7099C208.149 47.9784 209.183 51.897 212.406 53.7474L235.167 66.8149L241.777 55.2736L275.919 74.8748L256.089 109.499L221.947 89.8975L228.557 78.3562L205.796 65.2887C196.438 59.9162 193.205 47.6661 198.64 38.1761ZM257.928 79.8823L246.548 73.3486L239.938 84.8899L251.318 91.4236L257.928 79.8823Z" fill="white"/>
<path d="M233.337 4V1.5H231.888L231.167 2.75752L233.337 4ZM248.46 4L250.629 5.24248L252.772 1.5H248.46V4ZM229.851 10.086L228.607 12.254L230.777 13.5001L232.021 11.3284L229.851 10.086ZM219.251 4L220.495 1.8319L219.917 1.5H219.251V4ZM203.092 4V1.5H201.642L200.922 2.75752L203.092 4ZM200.48 8.55978L198.311 7.3173L197.069 9.48443L199.235 10.7279L200.48 8.55978ZM234.622 28.161L233.377 30.3291L235.547 31.5751L236.791 29.4035L234.622 28.161ZM317.67 83.5084H320.17V82.061L318.915 81.3403L317.67 83.5084ZM317.67 94.3921L319.84 95.6346L320.17 95.0573V94.3921H317.67ZM312.446 103.514L310.277 102.271L312.446 103.514ZM285.46 111.025L284.215 113.193L285.46 111.025ZM268.389 101.224L266.22 99.9818L264.979 102.149L267.144 103.392L268.389 101.224ZM274.999 89.6829L276.244 87.5148L274.074 86.2688L272.83 88.4405L274.999 89.6829ZM292.07 99.4836L290.825 101.652L292.07 99.4836ZM301.065 96.9798L298.896 95.7373L301.065 96.9798ZM310.981 79.6678L312.225 77.4997L310.055 76.2537L308.811 78.4253L310.981 79.6678ZM317.67 41.5835H320.17V32.1882L315.501 40.341L317.67 41.5835ZM317.67 75.8403L316.425 78.0084L320.17 80.1583V75.8403H317.67ZM302.905 67.3634L300.736 66.1209L299.494 68.2881L301.66 69.5315L302.905 67.3634ZM208.556 20.8642L209.8 18.6961L207.63 17.4501L206.386 19.6217L208.556 20.8642ZM198.64 38.1761L196.471 36.9336H196.471L198.64 38.1761ZM219.936 27.3979L222.105 28.6404L223.347 26.4733L221.181 25.2298L219.936 27.3979ZM210.021 44.7099L207.852 43.4674H207.852L210.021 44.7099ZM212.406 53.7474L213.651 51.5793H213.651L212.406 53.7474ZM235.167 66.8149L233.923 68.983L236.093 70.229L237.337 68.0574L235.167 66.8149ZM241.777 55.2736L243.022 53.1055L240.852 51.8594L239.608 54.0311L241.777 55.2736ZM275.919 74.8748L278.088 76.1173L279.33 73.9501L277.164 72.7067L275.919 74.8748ZM256.089 109.499L254.844 111.667L257.014 112.913L258.258 110.741L256.089 109.499ZM221.947 89.8975L219.778 88.655L218.536 90.8221L220.702 92.0656L221.947 89.8975ZM228.557 78.3562L230.727 79.5987L231.968 77.4315L229.802 76.1881L228.557 78.3562ZM205.796 65.2887L204.551 67.4568L205.796 65.2887ZM246.548 73.3486L247.793 71.1805L245.622 69.9345L244.378 72.1061L246.548 73.3486ZM257.928 79.8823L260.098 81.1248L261.339 78.9577L259.173 77.7142L257.928 79.8823ZM239.938 84.8899L237.768 83.6474L236.527 85.8146L238.693 87.058L239.938 84.8899ZM251.318 91.4236L250.074 93.5917L252.244 94.8378L253.488 92.6661L251.318 91.4236ZM233.337 6.5H248.46V1.5H233.337V6.5ZM231.167 2.75752L227.682 8.84347L232.021 11.3284L235.506 5.24248L231.167 2.75752ZM231.096 7.91786L220.495 1.8319L218.006 6.1681L228.607 12.254L231.096 7.91786ZM203.092 6.5H219.251V1.5H203.092V6.5ZM200.922 2.75752L198.311 7.3173L202.649 9.80226L205.261 5.24248L200.922 2.75752ZM199.235 10.7279L233.377 30.3291L235.866 25.9929L201.725 6.39169L199.235 10.7279ZM236.791 29.4035L250.629 5.24248L246.29 2.75752L232.452 26.9185L236.791 29.4035ZM315.17 83.5084V94.3921H320.17V83.5084H315.17ZM314.615 104.756L319.84 95.6346L315.501 93.1496L310.277 102.271L314.615 104.756ZM284.215 113.193C294.799 119.269 308.509 115.417 314.615 104.756L310.277 102.271C305.512 110.59 294.837 113.526 286.705 108.857L284.215 113.193ZM267.144 103.392L284.215 113.193L286.705 108.857L269.634 99.0562L267.144 103.392ZM272.83 88.4405L266.22 99.9818L270.559 102.467L277.169 90.9254L272.83 88.4405ZM293.315 97.3155L276.244 87.5148L273.755 91.851L290.825 101.652L293.315 97.3155ZM298.896 95.7373C297.695 97.8344 295.312 98.4622 293.315 97.3155L290.825 101.652C295.274 104.206 300.692 102.662 303.235 98.2223L298.896 95.7373ZM308.811 78.4253L298.896 95.7373L303.235 98.2223L313.15 80.9103L308.811 78.4253ZM318.915 81.3403L312.225 77.4997L309.736 81.8359L316.425 85.6765L318.915 81.3403ZM315.17 41.5835V75.8403H320.17V41.5835H315.17ZM301.66 69.5315L316.425 78.0084L318.915 73.6722L304.15 65.1953L301.66 69.5315ZM315.501 40.341L300.736 66.1209L305.074 68.6059L319.84 42.826L315.501 40.341ZM206.386 19.6217L196.471 36.9336L200.81 39.4186L210.725 22.1067L206.386 19.6217ZM221.181 25.2298L209.8 18.6961L207.311 23.0323L218.691 29.566L221.181 25.2298ZM212.19 45.9523L222.105 28.6404L217.767 26.1554L207.852 43.4674L212.19 45.9523ZM213.651 51.5793C211.652 50.4315 210.988 48.0512 212.19 45.9523L207.852 43.4674C205.31 47.9056 206.715 53.3625 211.161 55.9155L213.651 51.5793ZM236.412 64.6468L213.651 51.5793L211.161 55.9155L233.923 68.983L236.412 64.6468ZM239.608 54.0311L232.998 65.5724L237.337 68.0574L243.947 56.516L239.608 54.0311ZM277.164 72.7067L243.022 53.1055L240.533 57.4417L274.674 77.0429L277.164 72.7067ZM258.258 110.741L278.088 76.1173L273.75 73.6323L253.919 108.256L258.258 110.741ZM220.702 92.0656L254.844 111.667L257.333 107.331L223.192 87.7294L220.702 92.0656ZM226.388 77.1137L219.778 88.655L224.116 91.14L230.727 79.5987L226.388 77.1137ZM204.551 67.4568L227.312 80.5243L229.802 76.1881L207.041 63.1206L204.551 67.4568ZM196.471 36.9336C190.366 47.5934 193.97 61.3817 204.551 67.4568L207.041 63.1206C198.907 58.4508 196.044 47.7389 200.81 39.4186L196.471 36.9336ZM245.303 75.5167L256.684 82.0504L259.173 77.7142L247.793 71.1805L245.303 75.5167ZM242.107 86.1324L248.717 74.5911L244.378 72.1061L237.768 83.6474L242.107 86.1324ZM252.563 89.2555L241.182 82.7218L238.693 87.058L250.074 93.5917L252.563 89.2555ZM255.759 78.6399L249.149 90.1812L253.488 92.6661L260.098 81.1248L255.759 78.6399Z" fill="black"/>
</svg>
