<svg width="322" height="165" viewBox="0 0 322 165" fill="none" xmlns="http://www.w3.org/2000/svg">
<rect x="11" y="17.1865" width="299.201" height="147.703" rx="20" fill="#D8D8D8"/>
<rect x="2.5" y="2.58203" width="316.201" height="153.563" rx="17.5" fill="#5772FF" stroke="black" stroke-width="5"/>
<mask id="path-3-outside-1_16_25" maskUnits="userSpaceOnUse" x="175.201" y="66.8884" width="126" height="72" fill="black">
<rect fill="white" x="175.201" y="66.8884" width="126" height="72"/>
<path d="M202.642 90.1284V88.2484L208.642 87.2084V89.8084C208.642 91.0084 208.962 91.9284 209.602 92.5684C210.268 93.1818 211.095 93.4884 212.082 93.4884C213.095 93.4884 213.895 93.1551 214.482 92.4884C215.095 91.7951 215.402 90.9151 215.402 89.8484V70.5284H221.722V90.0084C221.722 92.6484 220.815 94.8884 219.002 96.7284C217.188 98.5684 214.895 99.4884 212.122 99.4884C209.295 99.4884 207.002 98.6351 205.242 96.9284C203.508 95.1951 202.642 92.9284 202.642 90.1284ZM235.016 78.3284C233.389 79.7951 232.576 81.9151 232.576 84.6884C232.576 87.4618 233.389 89.5818 235.016 91.0484C236.669 92.5151 238.589 93.2484 240.776 93.2484C242.963 93.2484 244.869 92.5151 246.496 91.0484C248.123 89.5818 248.936 87.4618 248.936 84.6884C248.936 81.9151 248.123 79.7951 246.496 78.3284C244.869 76.8351 242.963 76.0884 240.776 76.0884C238.589 76.0884 236.669 76.8351 235.016 78.3284ZM226.016 84.7284C226.016 80.3284 227.443 76.7684 230.296 74.0484C233.176 71.3018 236.669 69.9284 240.776 69.9284C244.883 69.9284 248.363 71.3018 251.216 74.0484C254.069 76.7951 255.496 80.3551 255.496 84.7284C255.496 89.1018 254.069 92.6618 251.216 95.4084C248.363 98.1284 244.883 99.4884 240.776 99.4884C236.669 99.4884 233.176 98.1284 230.296 95.4084C227.443 92.6618 226.016 89.1018 226.016 84.7284ZM266.4 98.8884H260V70.5284H266.4V98.8884ZM297.179 98.8884H290.499L278.819 80.2484V98.8884H272.539V70.5284H280.219L290.859 87.7684V70.5284H297.179V98.8884ZM206.981 134.888H201.861L201.461 132.008C200.768 132.995 199.741 133.822 198.381 134.488C197.021 135.155 195.394 135.488 193.501 135.488C189.448 135.488 186.034 134.128 183.261 131.408C180.514 128.662 179.141 125.102 179.141 120.728C179.141 116.382 180.568 112.835 183.421 110.088C186.301 107.315 189.794 105.928 193.901 105.928C197.581 105.928 200.501 106.795 202.661 108.528C204.821 110.262 206.274 112.315 207.021 114.688L200.941 116.808C200.648 115.608 199.914 114.488 198.741 113.448C197.594 112.382 195.981 111.848 193.901 111.848C191.714 111.848 189.768 112.608 188.061 114.128C186.381 115.622 185.541 117.822 185.541 120.728C185.541 123.555 186.354 125.768 187.981 127.368C189.608 128.942 191.634 129.728 194.061 129.728C196.141 129.728 197.768 129.235 198.941 128.248C200.114 127.235 200.821 126.182 201.061 125.088H192.541V119.728H206.981V134.888ZM231.304 134.888L229.264 129.128H218.304L216.264 134.888H209.624L220.304 106.528H227.624L238.184 134.888H231.304ZM223.864 113.568L220.384 123.368H227.264L223.864 113.568ZM273.799 134.888H267.599V116.088L260.199 134.888H255.079L247.679 116.328V134.888H241.679V106.528H249.919L257.719 125.688L265.119 106.528H273.799V134.888ZM297.961 134.888H279.961V106.528H297.921V112.488H286.281V117.888H296.841V123.448H286.281V128.888H297.961V134.888Z"/>
</mask>
<path d="M202.642 90.1284V88.2484L208.642 87.2084V89.8084C208.642 91.0084 208.962 91.9284 209.602 92.5684C210.268 93.1818 211.095 93.4884 212.082 93.4884C213.095 93.4884 213.895 93.1551 214.482 92.4884C215.095 91.7951 215.402 90.9151 215.402 89.8484V70.5284H221.722V90.0084C221.722 92.6484 220.815 94.8884 219.002 96.7284C217.188 98.5684 214.895 99.4884 212.122 99.4884C209.295 99.4884 207.002 98.6351 205.242 96.9284C203.508 95.1951 202.642 92.9284 202.642 90.1284ZM235.016 78.3284C233.389 79.7951 232.576 81.9151 232.576 84.6884C232.576 87.4618 233.389 89.5818 235.016 91.0484C236.669 92.5151 238.589 93.2484 240.776 93.2484C242.963 93.2484 244.869 92.5151 246.496 91.0484C248.123 89.5818 248.936 87.4618 248.936 84.6884C248.936 81.9151 248.123 79.7951 246.496 78.3284C244.869 76.8351 242.963 76.0884 240.776 76.0884C238.589 76.0884 236.669 76.8351 235.016 78.3284ZM226.016 84.7284C226.016 80.3284 227.443 76.7684 230.296 74.0484C233.176 71.3018 236.669 69.9284 240.776 69.9284C244.883 69.9284 248.363 71.3018 251.216 74.0484C254.069 76.7951 255.496 80.3551 255.496 84.7284C255.496 89.1018 254.069 92.6618 251.216 95.4084C248.363 98.1284 244.883 99.4884 240.776 99.4884C236.669 99.4884 233.176 98.1284 230.296 95.4084C227.443 92.6618 226.016 89.1018 226.016 84.7284ZM266.4 98.8884H260V70.5284H266.4V98.8884ZM297.179 98.8884H290.499L278.819 80.2484V98.8884H272.539V70.5284H280.219L290.859 87.7684V70.5284H297.179V98.8884ZM206.981 134.888H201.861L201.461 132.008C200.768 132.995 199.741 133.822 198.381 134.488C197.021 135.155 195.394 135.488 193.501 135.488C189.448 135.488 186.034 134.128 183.261 131.408C180.514 128.662 179.141 125.102 179.141 120.728C179.141 116.382 180.568 112.835 183.421 110.088C186.301 107.315 189.794 105.928 193.901 105.928C197.581 105.928 200.501 106.795 202.661 108.528C204.821 110.262 206.274 112.315 207.021 114.688L200.941 116.808C200.648 115.608 199.914 114.488 198.741 113.448C197.594 112.382 195.981 111.848 193.901 111.848C191.714 111.848 189.768 112.608 188.061 114.128C186.381 115.622 185.541 117.822 185.541 120.728C185.541 123.555 186.354 125.768 187.981 127.368C189.608 128.942 191.634 129.728 194.061 129.728C196.141 129.728 197.768 129.235 198.941 128.248C200.114 127.235 200.821 126.182 201.061 125.088H192.541V119.728H206.981V134.888ZM231.304 134.888L229.264 129.128H218.304L216.264 134.888H209.624L220.304 106.528H227.624L238.184 134.888H231.304ZM223.864 113.568L220.384 123.368H227.264L223.864 113.568ZM273.799 134.888H267.599V116.088L260.199 134.888H255.079L247.679 116.328V134.888H241.679V106.528H249.919L257.719 125.688L265.119 106.528H273.799V134.888ZM297.961 134.888H279.961V106.528H297.921V112.488H286.281V117.888H296.841V123.448H286.281V128.888H297.961V134.888Z" fill="white"/>
<path d="M202.642 88.2484L202.129 85.2925L199.642 85.7237V88.2484H202.642ZM208.642 87.2084H211.642V83.6437L208.129 84.2525L208.642 87.2084ZM209.602 92.5684L207.48 94.6897L207.525 94.7339L207.571 94.7762L209.602 92.5684ZM214.482 92.4884L212.235 90.5007L212.23 90.5065L214.482 92.4884ZM215.402 70.5284V67.5284H212.402V70.5284H215.402ZM221.722 70.5284H224.722V67.5284H221.722V70.5284ZM205.242 96.9284L203.12 99.0497L203.137 99.0661L203.153 99.0821L205.242 96.9284ZM205.642 90.1284V88.2484H199.642V90.1284H205.642ZM203.154 91.2044L209.154 90.1644L208.129 84.2525L202.129 85.2925L203.154 91.2044ZM205.642 87.2084V89.8084H211.642V87.2084H205.642ZM205.642 89.8084C205.642 91.5357 206.113 93.3222 207.48 94.6897L211.723 90.4471C211.747 90.4711 211.738 90.4786 211.715 90.4129C211.688 90.3335 211.642 90.1478 211.642 89.8084H205.642ZM207.571 94.7762C208.842 95.9464 210.416 96.4884 212.082 96.4884V90.4884C211.774 90.4884 211.694 90.4172 211.633 90.3606L207.571 94.7762ZM212.082 96.4884C213.822 96.4884 215.494 95.8791 216.734 94.4703L212.23 90.5065C212.225 90.5112 212.231 90.504 212.247 90.4927C212.263 90.4811 212.278 90.4732 212.288 90.4692C212.31 90.46 212.258 90.4884 212.082 90.4884V96.4884ZM216.729 94.4761C217.9 93.1515 218.402 91.5287 218.402 89.8484H212.402C212.402 90.3015 212.29 90.4387 212.235 90.5007L216.729 94.4761ZM218.402 89.8484V70.5284H212.402V89.8484H218.402ZM215.402 73.5284H221.722V67.5284H215.402V73.5284ZM218.722 70.5284V90.0084H224.722V70.5284H218.722ZM218.722 90.0084C218.722 91.8797 218.112 93.3576 216.865 94.6226L221.138 98.8342C223.518 96.4193 224.722 93.4172 224.722 90.0084H218.722ZM216.865 94.6226C215.66 95.8455 214.157 96.4884 212.122 96.4884V102.488C215.633 102.488 218.717 101.291 221.138 98.8342L216.865 94.6226ZM212.122 96.4884C209.946 96.4884 208.444 95.8552 207.33 94.7747L203.153 99.0821C205.559 101.415 208.644 102.488 212.122 102.488V96.4884ZM207.363 94.8071C206.274 93.7178 205.642 92.2558 205.642 90.1284H199.642C199.642 93.6011 200.743 96.6724 203.12 99.0497L207.363 94.8071ZM235.016 78.3284L237.025 80.5565L237.027 80.5547L235.016 78.3284ZM235.016 91.0484L233.007 93.2765L233.016 93.2846L233.025 93.2927L235.016 91.0484ZM246.496 91.0484L248.505 93.2765H248.505L246.496 91.0484ZM246.496 78.3284L244.467 80.5384L244.477 80.5475L244.487 80.5565L246.496 78.3284ZM230.296 74.0484L232.366 76.2199L232.367 76.2194L230.296 74.0484ZM251.216 74.0484L253.297 71.8871L251.216 74.0484ZM251.216 95.4084L253.286 97.5799L253.291 97.5748L253.297 97.5698L251.216 95.4084ZM230.296 95.4084L228.216 97.5698L228.226 97.5797L228.236 97.5895L230.296 95.4084ZM233.007 76.1004C230.59 78.2799 229.576 81.3074 229.576 84.6884H235.576C235.576 82.5227 236.189 81.3103 237.025 80.5565L233.007 76.1004ZM229.576 84.6884C229.576 88.0694 230.59 91.097 233.007 93.2765L237.025 88.8204C236.189 88.0666 235.576 86.8541 235.576 84.6884H229.576ZM233.025 93.2927C235.221 95.2405 237.847 96.2484 240.776 96.2484V90.2484C239.332 90.2484 238.118 89.7897 237.007 88.8042L233.025 93.2927ZM240.776 96.2484C243.706 96.2484 246.328 95.2392 248.505 93.2765L244.487 88.8204C243.411 89.791 242.219 90.2484 240.776 90.2484V96.2484ZM248.505 93.2765C250.922 91.097 251.936 88.0694 251.936 84.6884H245.936C245.936 86.8541 245.323 88.0666 244.487 88.8204L248.505 93.2765ZM251.936 84.6884C251.936 81.3074 250.922 78.2799 248.505 76.1004L244.487 80.5565C245.323 81.3103 245.936 82.5227 245.936 84.6884H251.936ZM248.525 76.1185C246.351 74.1226 243.722 73.0884 240.776 73.0884V79.0884C242.203 79.0884 243.388 79.5476 244.467 80.5384L248.525 76.1185ZM240.776 73.0884C237.831 73.0884 235.198 74.1212 233.005 76.1021L237.027 80.5547C238.14 79.549 239.348 79.0884 240.776 79.0884V73.0884ZM229.016 84.7284C229.016 81.0439 230.179 78.3051 232.366 76.2199L228.226 71.877C224.707 75.2318 223.016 79.613 223.016 84.7284H229.016ZM232.367 76.2194C234.669 74.0234 237.413 72.9284 240.776 72.9284V66.9284C235.926 66.9284 231.683 68.5801 228.226 71.8774L232.367 76.2194ZM240.776 72.9284C244.139 72.9284 246.864 74.0228 249.136 76.2098L253.297 71.8871C249.862 68.5807 245.627 66.9284 240.776 66.9284V72.9284ZM249.136 76.2098C251.337 78.329 252.496 81.0767 252.496 84.7284H258.496C258.496 79.6335 256.802 75.2612 253.297 71.8871L249.136 76.2098ZM252.496 84.7284C252.496 88.3801 251.337 91.1279 249.136 93.2471L253.297 97.5698C256.802 94.1956 258.496 89.8234 258.496 84.7284H252.496ZM249.146 93.237C246.876 95.401 244.148 96.4884 240.776 96.4884V102.488C245.618 102.488 249.85 100.856 253.286 97.5799L249.146 93.237ZM240.776 96.4884C237.404 96.4884 234.657 95.4005 232.356 93.2274L228.236 97.5895C231.695 100.856 235.934 102.488 240.776 102.488V96.4884ZM232.377 93.2471C230.175 91.1279 229.016 88.3801 229.016 84.7284H223.016C223.016 89.8234 224.71 94.1956 228.216 97.5698L232.377 93.2471ZM266.4 98.8884V101.888H269.4V98.8884H266.4ZM260 98.8884H257V101.888H260V98.8884ZM260 70.5284V67.5284H257V70.5284H260ZM266.4 70.5284H269.4V67.5284H266.4V70.5284ZM266.4 95.8884H260V101.888H266.4V95.8884ZM263 98.8884V70.5284H257V98.8884H263ZM260 73.5284H266.4V67.5284H260V73.5284ZM263.4 70.5284V98.8884H269.4V70.5284H263.4ZM297.179 98.8884V101.888H300.179V98.8884H297.179ZM290.499 98.8884L287.957 100.481L288.838 101.888H290.499V98.8884ZM278.819 80.2484L281.361 78.6555L275.819 69.8108V80.2484H278.819ZM278.819 98.8884V101.888H281.819V98.8884H278.819ZM272.539 98.8884H269.539V101.888H272.539V98.8884ZM272.539 70.5284V67.5284H269.539V70.5284H272.539ZM280.219 70.5284L282.772 68.9528L281.893 67.5284H280.219V70.5284ZM290.859 87.7684L288.306 89.344L293.859 98.3415V87.7684H290.859ZM290.859 70.5284V67.5284H287.859V70.5284H290.859ZM297.179 70.5284H300.179V67.5284H297.179V70.5284ZM297.179 95.8884H290.499V101.888H297.179V95.8884ZM293.041 97.2955L281.361 78.6555L276.277 81.8414L287.957 100.481L293.041 97.2955ZM275.819 80.2484V98.8884H281.819V80.2484H275.819ZM278.819 95.8884H272.539V101.888H278.819V95.8884ZM275.539 98.8884V70.5284H269.539V98.8884H275.539ZM272.539 73.5284H280.219V67.5284H272.539V73.5284ZM277.666 72.104L288.306 89.344L293.412 86.1928L282.772 68.9528L277.666 72.104ZM293.859 87.7684V70.5284H287.859V87.7684H293.859ZM290.859 73.5284H297.179V67.5284H290.859V73.5284ZM294.179 70.5284V98.8884H300.179V70.5284H294.179ZM206.981 134.888V137.888H209.981V134.888H206.981ZM201.861 134.888L198.89 135.301L199.249 137.888H201.861V134.888ZM201.461 132.008L204.433 131.596L203.385 124.053L199.006 130.284L201.461 132.008ZM198.381 134.488L197.061 131.795L198.381 134.488ZM183.261 131.408L181.14 133.53L181.15 133.54L181.16 133.55L183.261 131.408ZM183.421 110.088L185.502 112.25L185.502 112.249L183.421 110.088ZM202.661 108.528L200.783 110.868L200.783 110.868L202.661 108.528ZM207.021 114.688L208.009 117.521L210.756 116.563L209.883 113.788L207.021 114.688ZM200.941 116.808L198.027 117.521L198.811 120.728L201.929 119.641L200.941 116.808ZM198.741 113.448L196.698 115.645L196.724 115.67L196.751 115.693L198.741 113.448ZM188.061 114.128L190.054 116.371L190.056 116.369L188.061 114.128ZM187.981 127.368L185.877 129.507L185.886 129.516L185.895 129.525L187.981 127.368ZM198.941 128.248L200.872 130.545L200.887 130.532L200.902 130.519L198.941 128.248ZM201.061 125.088L203.991 125.732L204.791 122.088H201.061V125.088ZM192.541 125.088H189.541V128.088H192.541V125.088ZM192.541 119.728V116.728H189.541V119.728H192.541ZM206.981 119.728H209.981V116.728H206.981V119.728ZM206.981 131.888H201.861V137.888H206.981V131.888ZM204.833 134.476L204.433 131.596L198.49 132.421L198.89 135.301L204.833 134.476ZM199.006 130.284C198.669 130.764 198.081 131.294 197.061 131.795L199.702 137.182C201.401 136.349 202.867 135.226 203.916 133.733L199.006 130.284ZM197.061 131.795C196.201 132.216 195.048 132.488 193.501 132.488V138.488C195.74 138.488 197.841 138.094 199.702 137.182L197.061 131.795ZM193.501 132.488C190.195 132.488 187.548 131.411 185.362 129.267L181.16 133.55C184.521 136.846 188.7 138.488 193.501 138.488V132.488ZM185.382 129.287C183.271 127.176 182.141 124.415 182.141 120.728H176.141C176.141 125.788 177.758 130.148 181.14 133.53L185.382 129.287ZM182.141 120.728C182.141 117.109 183.296 114.373 185.502 112.25L181.341 107.927C177.839 111.298 176.141 115.654 176.141 120.728H182.141ZM185.502 112.249C187.806 110.03 190.547 108.928 193.901 108.928V102.928C189.042 102.928 184.796 104.6 181.34 107.927L185.502 112.249ZM193.901 108.928C197.123 108.928 199.308 109.684 200.783 110.868L204.539 106.189C201.694 103.906 198.039 102.928 193.901 102.928V108.928ZM200.783 110.868C202.535 112.273 203.611 113.845 204.159 115.589L209.883 113.788C208.938 110.785 207.108 108.25 204.539 106.189L200.783 110.868ZM206.033 111.856L199.953 113.976L201.929 119.641L208.009 117.521L206.033 111.856ZM203.855 116.096C203.382 114.161 202.238 112.539 200.731 111.203L196.751 115.693C197.591 116.438 197.913 117.056 198.027 117.521L203.855 116.096ZM200.784 111.252C198.921 109.518 196.485 108.848 193.901 108.848V114.848C195.477 114.848 196.268 115.245 196.698 115.645L200.784 111.252ZM193.901 108.848C190.943 108.848 188.295 109.903 186.066 111.888L190.056 116.369C191.241 115.314 192.486 114.848 193.901 114.848V108.848ZM186.068 111.886C183.572 114.105 182.541 117.232 182.541 120.728H188.541C188.541 118.411 189.19 117.138 190.054 116.371L186.068 111.886ZM182.541 120.728C182.541 124.155 183.547 127.215 185.877 129.507L190.085 125.23C189.162 124.322 188.541 122.955 188.541 120.728H182.541ZM185.895 129.525C188.125 131.681 190.918 132.728 194.061 132.728V126.728C192.351 126.728 191.091 126.203 190.067 125.212L185.895 129.525ZM194.061 132.728C196.595 132.728 198.992 132.125 200.872 130.545L197.01 125.952C196.544 126.345 195.687 126.728 194.061 126.728V132.728ZM200.902 130.519C202.381 129.242 203.568 127.661 203.991 125.732L198.131 124.445C198.074 124.703 197.848 125.228 196.98 125.978L200.902 130.519ZM201.061 122.088H192.541V128.088H201.061V122.088ZM195.541 125.088V119.728H189.541V125.088H195.541ZM192.541 122.728H206.981V116.728H192.541V122.728ZM203.981 119.728V134.888H209.981V119.728H203.981ZM231.304 134.888L228.477 135.89L229.184 137.888H231.304V134.888ZM229.264 129.128L232.092 128.127L231.385 126.128H229.264V129.128ZM218.304 129.128V126.128H216.184L215.477 128.127L218.304 129.128ZM216.264 134.888V137.888H218.385L219.092 135.89L216.264 134.888ZM209.624 134.888L206.817 133.831L205.289 137.888H209.624V134.888ZM220.304 106.528V103.528H218.229L217.497 105.471L220.304 106.528ZM227.624 106.528L230.436 105.482L229.709 103.528H227.624V106.528ZM238.184 134.888V137.888H242.503L240.996 133.842L238.184 134.888ZM223.864 113.568L226.699 112.585L223.897 104.511L221.037 112.565L223.864 113.568ZM220.384 123.368L217.557 122.365L216.136 126.368H220.384V123.368ZM227.264 123.368V126.368H231.481L230.099 122.385L227.264 123.368ZM234.132 133.887L232.092 128.127L226.437 130.13L228.477 135.89L234.132 133.887ZM229.264 126.128H218.304V132.128H229.264V126.128ZM215.477 128.127L213.437 133.887L219.092 135.89L221.132 130.13L215.477 128.127ZM216.264 131.888H209.624V137.888H216.264V131.888ZM212.432 135.946L223.112 107.586L217.497 105.471L206.817 133.831L212.432 135.946ZM220.304 109.528H227.624V103.528H220.304V109.528ZM224.813 107.575L235.373 135.935L240.996 133.842L230.436 105.482L224.813 107.575ZM238.184 131.888H231.304V137.888H238.184V131.888ZM221.037 112.565L217.557 122.365L223.212 124.372L226.692 114.572L221.037 112.565ZM220.384 126.368H227.264V120.368H220.384V126.368ZM230.099 122.385L226.699 112.585L221.03 114.552L224.43 124.352L230.099 122.385ZM273.799 134.888V137.888H276.799V134.888H273.799ZM267.599 134.888H264.599V137.888H267.599V134.888ZM267.599 116.088H270.599L264.808 114.99L267.599 116.088ZM260.199 134.888V137.888H262.243L262.991 135.987L260.199 134.888ZM255.079 134.888L252.293 135.999L253.046 137.888H255.079V134.888ZM247.679 116.328L250.466 115.217L244.679 116.328H247.679ZM247.679 134.888V137.888H250.679V134.888H247.679ZM241.679 134.888H238.679V137.888H241.679V134.888ZM241.679 106.528V103.528H238.679V106.528H241.679ZM249.919 106.528L252.698 105.397L251.937 103.528H249.919V106.528ZM257.719 125.688L254.941 126.82L257.793 133.825L260.518 126.769L257.719 125.688ZM265.119 106.528V103.528H263.062L262.321 105.448L265.119 106.528ZM273.799 106.528H276.799V103.528H273.799V106.528ZM273.799 131.888H267.599V137.888H273.799V131.888ZM270.599 134.888V116.088H264.599V134.888H270.599ZM264.808 114.99L257.408 133.79L262.991 135.987L270.391 117.187L264.808 114.99ZM260.199 131.888H255.079V137.888H260.199V131.888ZM257.866 133.777L250.466 115.217L244.893 117.439L252.293 135.999L257.866 133.777ZM244.679 116.328V134.888H250.679V116.328H244.679ZM247.679 131.888H241.679V137.888H247.679V131.888ZM244.679 134.888V106.528H238.679V134.888H244.679ZM241.679 109.528H249.919V103.528H241.679V109.528ZM247.141 107.66L254.941 126.82L260.498 124.557L252.698 105.397L247.141 107.66ZM260.518 126.769L267.918 107.609L262.321 105.448L254.921 124.608L260.518 126.769ZM265.119 109.528H273.799V103.528H265.119V109.528ZM270.799 106.528V134.888H276.799V106.528H270.799ZM297.961 134.888V137.888H300.961V134.888H297.961ZM279.961 134.888H276.961V137.888H279.961V134.888ZM279.961 106.528V103.528H276.961V106.528H279.961ZM297.921 106.528H300.921V103.528H297.921V106.528ZM297.921 112.488V115.488H300.921V112.488H297.921ZM286.281 112.488V109.488H283.281V112.488H286.281ZM286.281 117.888H283.281V120.888H286.281V117.888ZM296.841 117.888H299.841V114.888H296.841V117.888ZM296.841 123.448V126.448H299.841V123.448H296.841ZM286.281 123.448V120.448H283.281V123.448H286.281ZM286.281 128.888H283.281V131.888H286.281V128.888ZM297.961 128.888H300.961V125.888H297.961V128.888ZM297.961 131.888H279.961V137.888H297.961V131.888ZM282.961 134.888V106.528H276.961V134.888H282.961ZM279.961 109.528H297.921V103.528H279.961V109.528ZM294.921 106.528V112.488H300.921V106.528H294.921ZM297.921 109.488H286.281V115.488H297.921V109.488ZM283.281 112.488V117.888H289.281V112.488H283.281ZM286.281 120.888H296.841V114.888H286.281V120.888ZM293.841 117.888V123.448H299.841V117.888H293.841ZM296.841 120.448H286.281V126.448H296.841V120.448ZM283.281 123.448V128.888H289.281V123.448H283.281ZM286.281 131.888H297.961V125.888H286.281V131.888ZM294.961 128.888V134.888H300.961V128.888H294.961Z" fill="black" mask="url(#path-3-outside-1_16_25)"/>
<path fill-rule="evenodd" clip-rule="evenodd" d="M3 66.415V51.0788L21.9237 61.9431L28.5338 50.4018L62.6755 70.003L42.8452 104.627L8.70347 85.0257L15.3136 73.4844L3 66.415ZM81.7243 155.563L84.1425 151.341L72.762 144.807L85.9822 121.724C91.4174 112.234 88.1843 99.9843 78.8265 94.6118L61.7557 84.8112L55.1455 96.3525L72.2164 106.153C75.4394 108.004 76.4736 111.922 74.6016 115.191L61.3814 138.273L50.0008 131.74L36.3563 155.563H51.479L54.7713 149.815L64.784 155.563H81.7243ZM44.6848 75.0106L33.3042 68.4769L26.6941 80.0182L38.0747 86.5519L44.6848 75.0106Z" fill="white"/>
<path d="M3 66.415H0.5V67.8625L1.75527 68.5831L3 66.415ZM3 51.0788L4.24473 48.9107L0.5 46.7608V51.0788H3ZM21.9237 61.9431L20.6789 64.1112L22.8493 65.3573L24.0931 63.1856L21.9237 61.9431ZM28.5338 50.4018L29.7785 48.2337L27.6082 46.9877L26.3644 49.1593L28.5338 50.4018ZM62.6755 70.003L64.8449 71.2455L66.0861 69.0784L63.9202 67.8349L62.6755 70.003ZM42.8452 104.627L41.6004 106.795L43.7708 108.041L45.0145 105.869L42.8452 104.627ZM8.70347 85.0257L6.53409 83.7833L5.2929 85.9504L7.45874 87.1938L8.70347 85.0257ZM15.3136 73.4844L17.483 74.7269L18.7242 72.5598L16.5583 71.3163L15.3136 73.4844ZM81.7243 155.563V158.063H83.1735L83.8937 156.805L81.7243 155.563ZM84.1425 151.341L86.3119 152.583L87.5531 150.416L85.3873 149.173L84.1425 151.341ZM72.762 144.807L70.5926 143.565L69.3514 145.732L71.5172 146.975L72.762 144.807ZM85.9822 121.724L88.1516 122.967L85.9822 121.724ZM78.8265 94.6118L77.5818 96.7799L78.8265 94.6118ZM61.7557 84.8112L63.0004 82.6431L60.83 81.3971L59.5863 83.5687L61.7557 84.8112ZM55.1455 96.3525L52.9762 95.11L51.735 97.2772L53.9008 98.5206L55.1455 96.3525ZM72.2164 106.153L73.4611 103.985L72.2164 106.153ZM74.6016 115.191L72.4322 113.948V113.948L74.6016 115.191ZM61.3814 138.273L60.1367 140.441L62.307 141.687L63.5508 139.516L61.3814 138.273ZM50.0008 131.74L51.2456 129.571L49.0752 128.325L47.8315 130.497L50.0008 131.74ZM36.3563 155.563L34.1869 154.321L32.0435 158.063H36.3563V155.563ZM51.479 155.563V158.063H52.9281L53.6484 156.805L51.479 155.563ZM54.7713 149.815L56.016 147.646L53.8457 146.4L52.6019 148.572L54.7713 149.815ZM64.784 155.563L63.5393 157.731L64.1174 158.063H64.784V155.563ZM33.3042 68.4769L34.549 66.3088L32.3786 65.0627L31.1349 67.2344L33.3042 68.4769ZM44.6848 75.0106L46.8542 76.2531L48.0954 74.086L45.9295 72.8425L44.6848 75.0106ZM26.6941 80.0182L24.5248 78.7757L23.2836 80.9428L25.4494 82.1863L26.6941 80.0182ZM38.0747 86.5519L36.83 88.72L39.0003 89.966L40.2441 87.7944L38.0747 86.5519ZM5.5 66.415V51.0788H0.5V66.415H5.5ZM23.1684 59.775L4.24473 48.9107L1.75527 53.2469L20.6789 64.1112L23.1684 59.775ZM26.3644 49.1593L19.7543 60.7007L24.0931 63.1856L30.7032 51.6443L26.3644 49.1593ZM63.9202 67.8349L29.7785 48.2337L27.2891 52.5699L61.4307 72.1711L63.9202 67.8349ZM45.0145 105.869L64.8449 71.2455L60.5061 68.7606L40.6758 103.384L45.0145 105.869ZM7.45874 87.1938L41.6004 106.795L44.0899 102.459L9.94821 82.8576L7.45874 87.1938ZM13.1442 72.242L6.53409 83.7833L10.8729 86.2682L17.483 74.7269L13.1442 72.242ZM1.75527 68.5831L14.0688 75.6525L16.5583 71.3163L4.24473 64.2469L1.75527 68.5831ZM83.8937 156.805L86.3119 152.583L81.9731 150.098L79.5549 154.321L83.8937 156.805ZM85.3873 149.173L74.0067 142.639L71.5172 146.975L82.8978 153.509L85.3873 149.173ZM74.9314 146.049L88.1516 122.967L83.8128 120.482L70.5926 143.565L74.9314 146.049ZM88.1516 122.967C94.2568 112.307 90.6529 98.5188 80.0712 92.4437L77.5818 96.7799C85.7158 101.45 88.5781 112.162 83.8128 120.482L88.1516 122.967ZM80.0712 92.4437L63.0004 82.6431L60.5109 86.9793L77.5818 96.7799L80.0712 92.4437ZM59.5863 83.5687L52.9762 95.11L57.3149 97.595L63.925 86.0537L59.5863 83.5687ZM53.9008 98.5206L70.9717 108.321L73.4611 103.985L56.3903 94.1844L53.9008 98.5206ZM70.9717 108.321C72.9708 109.469 73.6343 111.849 72.4322 113.948L76.771 116.433C79.3129 111.995 77.908 106.538 73.4611 103.985L70.9717 108.321ZM72.4322 113.948L59.212 137.031L63.5508 139.516L76.771 116.433L72.4322 113.948ZM62.6261 136.105L51.2456 129.571L48.7561 133.908L60.1367 140.441L62.6261 136.105ZM47.8315 130.497L34.1869 154.321L38.5257 156.805L52.1702 132.982L47.8315 130.497ZM51.479 153.063H36.3563V158.063H51.479V153.063ZM53.6484 156.805L56.9407 151.057L52.6019 148.572L49.3096 154.321L53.6484 156.805ZM53.5266 151.983L63.5393 157.731L66.0287 153.395L56.016 147.646L53.5266 151.983ZM81.7243 153.063H64.784V158.063H81.7243V153.063ZM32.0595 70.645L43.4401 77.1787L45.9295 72.8425L34.549 66.3088L32.0595 70.645ZM28.8635 81.2607L35.4736 69.7194L31.1349 67.2344L24.5248 78.7757L28.8635 81.2607ZM39.3194 84.3838L27.9389 77.8501L25.4494 82.1863L36.83 88.72L39.3194 84.3838ZM42.5154 73.7681L35.9053 85.3094L40.2441 87.7944L46.8542 76.2531L42.5154 73.7681Z" fill="black"/>
</svg>
