<svg width="250" height="76" viewBox="0 0 250 76" fill="none" xmlns="http://www.w3.org/2000/svg">
<rect y="1.90571" width="250" height="73.8189" rx="12.5" fill="#202020" fill-opacity="0.2"/>
<rect x="2.5" y="3.22461" width="245" height="68.8189" rx="10" fill="#FC5050" stroke="black" stroke-width="5"/>
<mask id="path-3-outside-1_14_74" maskUnits="userSpaceOnUse" x="74" y="20.7246" width="99" height="36" fill="black">
<rect fill="white" x="74" y="20.7246" width="99" height="36"/>
<path d="M77.8 43.9646V42.0846L83.8 41.0446V43.6446C83.8 44.8446 84.12 45.7646 84.76 46.4046C85.4267 47.0179 86.2533 47.3246 87.24 47.3246C88.2533 47.3246 89.0533 46.9913 89.64 46.3246C90.2533 45.6313 90.56 44.7513 90.56 43.6846V24.3646H96.88V43.8446C96.88 46.4846 95.9733 48.7246 94.16 50.5646C92.3467 52.4046 90.0533 53.3246 87.28 53.3246C84.4533 53.3246 82.16 52.4713 80.4 50.7646C78.6667 49.0313 77.8 46.7646 77.8 43.9646ZM109.374 32.1646C107.748 33.6313 106.934 35.7513 106.934 38.5246C106.934 41.2979 107.748 43.4179 109.374 44.8846C111.028 46.3513 112.948 47.0846 115.134 47.0846C117.321 47.0846 119.228 46.3513 120.854 44.8846C122.481 43.4179 123.294 41.2979 123.294 38.5246C123.294 35.7513 122.481 33.6313 120.854 32.1646C119.228 30.6713 117.321 29.9246 115.134 29.9246C112.948 29.9246 111.028 30.6713 109.374 32.1646ZM100.374 38.5646C100.374 34.1646 101.801 30.6046 104.654 27.8846C107.534 25.1379 111.028 23.7646 115.134 23.7646C119.241 23.7646 122.721 25.1379 125.574 27.8846C128.428 30.6313 129.854 34.1913 129.854 38.5646C129.854 42.9379 128.428 46.4979 125.574 49.2446C122.721 51.9646 119.241 53.3246 115.134 53.3246C111.028 53.3246 107.534 51.9646 104.654 49.2446C101.801 46.4979 100.374 42.9379 100.374 38.5646ZM139.958 52.7246H133.558V24.3646H139.958V52.7246ZM169.937 52.7246H163.257L151.577 34.0846V52.7246H145.297V24.3646H152.977L163.617 41.6046V24.3646H169.937V52.7246Z"/>
</mask>
<path d="M77.8 43.9646V42.0846L83.8 41.0446V43.6446C83.8 44.8446 84.12 45.7646 84.76 46.4046C85.4267 47.0179 86.2533 47.3246 87.24 47.3246C88.2533 47.3246 89.0533 46.9913 89.64 46.3246C90.2533 45.6313 90.56 44.7513 90.56 43.6846V24.3646H96.88V43.8446C96.88 46.4846 95.9733 48.7246 94.16 50.5646C92.3467 52.4046 90.0533 53.3246 87.28 53.3246C84.4533 53.3246 82.16 52.4713 80.4 50.7646C78.6667 49.0313 77.8 46.7646 77.8 43.9646ZM109.374 32.1646C107.748 33.6313 106.934 35.7513 106.934 38.5246C106.934 41.2979 107.748 43.4179 109.374 44.8846C111.028 46.3513 112.948 47.0846 115.134 47.0846C117.321 47.0846 119.228 46.3513 120.854 44.8846C122.481 43.4179 123.294 41.2979 123.294 38.5246C123.294 35.7513 122.481 33.6313 120.854 32.1646C119.228 30.6713 117.321 29.9246 115.134 29.9246C112.948 29.9246 111.028 30.6713 109.374 32.1646ZM100.374 38.5646C100.374 34.1646 101.801 30.6046 104.654 27.8846C107.534 25.1379 111.028 23.7646 115.134 23.7646C119.241 23.7646 122.721 25.1379 125.574 27.8846C128.428 30.6313 129.854 34.1913 129.854 38.5646C129.854 42.9379 128.428 46.4979 125.574 49.2446C122.721 51.9646 119.241 53.3246 115.134 53.3246C111.028 53.3246 107.534 51.9646 104.654 49.2446C101.801 46.4979 100.374 42.9379 100.374 38.5646ZM139.958 52.7246H133.558V24.3646H139.958V52.7246ZM169.937 52.7246H163.257L151.577 34.0846V52.7246H145.297V24.3646H152.977L163.617 41.6046V24.3646H169.937V52.7246Z" fill="white"/>
<path d="M77.8 42.0846L77.2876 39.1287L74.8 39.5599V42.0846H77.8ZM83.8 41.0446H86.8V37.4799L83.2876 38.0887L83.8 41.0446ZM84.76 46.4046L82.6387 48.5259L82.6829 48.5701L82.7288 48.6124L84.76 46.4046ZM89.64 46.3246L87.393 44.3369L87.3879 44.3427L89.64 46.3246ZM90.56 24.3646V21.3646H87.56V24.3646H90.56ZM96.88 24.3646H99.88V21.3646H96.88V24.3646ZM80.4 50.7646L78.2787 52.8859L78.295 52.9022L78.3116 52.9183L80.4 50.7646ZM80.8 43.9646V42.0846H74.8V43.9646H80.8ZM78.3124 45.0405L84.3124 44.0005L83.2876 38.0887L77.2876 39.1287L78.3124 45.0405ZM80.8 41.0446V43.6446H86.8V41.0446H80.8ZM80.8 43.6446C80.8 45.3719 81.2711 47.1584 82.6387 48.5259L86.8813 44.2833C86.9053 44.3073 86.8964 44.3148 86.8735 44.249C86.8459 44.1697 86.8 43.984 86.8 43.6446H80.8ZM82.7288 48.6124C84.0007 49.7825 85.5739 50.3246 87.24 50.3246V44.3246C86.9328 44.3246 86.8526 44.2533 86.7912 44.1968L82.7288 48.6124ZM87.24 50.3246C88.9805 50.3246 90.6524 49.7153 91.8921 48.3065L87.3879 44.3427C87.3838 44.3473 87.3895 44.3402 87.4052 44.3288C87.4212 44.3173 87.4366 44.3094 87.4462 44.3054C87.4682 44.2962 87.4167 44.3246 87.24 44.3246V50.3246ZM91.887 48.3123C93.0588 46.9877 93.56 45.3649 93.56 43.6846H87.56C87.56 44.1377 87.4479 44.2748 87.393 44.3369L91.887 48.3123ZM93.56 43.6846V24.3646H87.56V43.6846H93.56ZM90.56 27.3646H96.88V21.3646H90.56V27.3646ZM93.88 24.3646V43.8446H99.88V24.3646H93.88ZM93.88 43.8446C93.88 45.7159 93.27 47.1937 92.0233 48.4588L96.2967 52.6704C98.6767 50.2555 99.88 47.2534 99.88 43.8446H93.88ZM92.0233 48.4588C90.8181 49.6817 89.3156 50.3246 87.28 50.3246V56.3246C90.7911 56.3246 93.8752 55.1275 96.2967 52.6704L92.0233 48.4588ZM87.28 50.3246C85.1044 50.3246 83.6027 49.6914 82.4884 48.6109L78.3116 52.9183C80.7173 55.2512 83.8023 56.3246 87.28 56.3246V50.3246ZM82.5213 48.6433C81.432 47.5539 80.8 46.0919 80.8 43.9646H74.8C74.8 47.4373 75.9014 50.5086 78.2787 52.8859L82.5213 48.6433ZM109.374 32.1646L111.383 34.3927L111.385 34.3909L109.374 32.1646ZM109.374 44.8846L107.365 47.1127L107.374 47.1208L107.384 47.1288L109.374 44.8846ZM120.854 44.8846L122.863 47.1127L120.854 44.8846ZM120.854 32.1646L118.826 34.3746L118.835 34.3837L118.845 34.3927L120.854 32.1646ZM104.654 27.8846L106.724 30.0561L106.725 30.0556L104.654 27.8846ZM125.574 27.8846L127.655 25.7233L125.574 27.8846ZM125.574 49.2446L127.644 51.4161L127.65 51.411L127.655 51.4059L125.574 49.2446ZM104.654 49.2446L102.574 51.4059L102.584 51.4158L102.595 51.4256L104.654 49.2446ZM107.365 29.9365C104.948 32.1161 103.934 35.1436 103.934 38.5246H109.934C109.934 36.3589 110.547 35.1465 111.383 34.3927L107.365 29.9365ZM103.934 38.5246C103.934 41.9056 104.948 44.9331 107.365 47.1127L111.383 42.6565C110.547 41.9027 109.934 40.6903 109.934 38.5246H103.934ZM107.384 47.1288C109.579 49.0766 112.205 50.0846 115.134 50.0846V44.0846C113.69 44.0846 112.476 43.6259 111.365 42.6404L107.384 47.1288ZM115.134 50.0846C118.064 50.0846 120.687 49.0754 122.863 47.1127L118.845 42.6565C117.769 43.6272 116.578 44.0846 115.134 44.0846V50.0846ZM122.863 47.1127C125.281 44.9331 126.294 41.9056 126.294 38.5246H120.294C120.294 40.6903 119.681 41.9027 118.845 42.6565L122.863 47.1127ZM126.294 38.5246C126.294 35.1436 125.281 32.1161 122.863 29.9365L118.845 34.3927C119.681 35.1465 120.294 36.3589 120.294 38.5246H126.294ZM122.883 29.9547C120.709 27.9588 118.081 26.9246 115.134 26.9246V32.9246C116.562 32.9246 117.746 33.3838 118.826 34.3746L122.883 29.9547ZM115.134 26.9246C112.189 26.9246 109.557 27.9573 107.364 29.9383L111.385 34.3909C112.499 33.3852 113.706 32.9246 115.134 32.9246V26.9246ZM103.374 38.5646C103.374 34.8801 104.537 32.1413 106.724 30.0561L102.584 25.7132C99.0651 29.068 97.3744 33.4491 97.3744 38.5646H103.374ZM106.725 30.0556C109.027 27.8596 111.771 26.7646 115.134 26.7646V20.7646C110.284 20.7646 106.041 22.4163 102.584 25.7136L106.725 30.0556ZM115.134 26.7646C118.497 26.7646 121.222 27.859 123.494 30.0459L127.655 25.7233C124.22 22.4169 119.985 20.7646 115.134 20.7646V26.7646ZM123.494 30.0459C125.695 32.1651 126.854 34.9129 126.854 38.5646H132.854C132.854 33.4697 131.16 29.0974 127.655 25.7233L123.494 30.0459ZM126.854 38.5646C126.854 42.2163 125.695 44.9641 123.494 47.0833L127.655 51.4059C131.16 48.0318 132.854 43.6596 132.854 38.5646H126.854ZM123.504 47.0732C121.234 49.2372 118.506 50.3246 115.134 50.3246V56.3246C119.976 56.3246 124.208 54.692 127.644 51.4161L123.504 47.0732ZM115.134 50.3246C111.763 50.3246 109.015 49.2367 106.714 47.0636L102.595 51.4256C106.054 54.6926 110.293 56.3246 115.134 56.3246V50.3246ZM106.735 47.0833C104.533 44.9641 103.374 42.2163 103.374 38.5646H97.3744C97.3744 43.6596 99.0687 48.0318 102.574 51.4059L106.735 47.0833ZM139.958 52.7246V55.7246H142.958V52.7246H139.958ZM133.558 52.7246H130.558V55.7246H133.558V52.7246ZM133.558 24.3646V21.3646H130.558V24.3646H133.558ZM139.958 24.3646H142.958V21.3646H139.958V24.3646ZM139.958 49.7246H133.558V55.7246H139.958V49.7246ZM136.558 52.7246V24.3646H130.558V52.7246H136.558ZM133.558 27.3646H139.958V21.3646H133.558V27.3646ZM136.958 24.3646V52.7246H142.958V24.3646H136.958ZM169.937 52.7246V55.7246H172.937V52.7246H169.937ZM163.257 52.7246L160.715 54.3175L161.597 55.7246H163.257V52.7246ZM151.577 34.0846L154.119 32.4917L148.577 23.647V34.0846H151.577ZM151.577 52.7246V55.7246H154.577V52.7246H151.577ZM145.297 52.7246H142.297V55.7246H145.297V52.7246ZM145.297 24.3646V21.3646H142.297V24.3646H145.297ZM152.977 24.3646L155.53 22.789L154.651 21.3646H152.977V24.3646ZM163.617 41.6046L161.064 43.1802L166.617 52.1776V41.6046H163.617ZM163.617 24.3646V21.3646H160.617V24.3646H163.617ZM169.937 24.3646H172.937V21.3646H169.937V24.3646ZM169.937 49.7246H163.257V55.7246H169.937V49.7246ZM165.799 51.1317L154.119 32.4917L149.035 35.6775L160.715 54.3175L165.799 51.1317ZM148.577 34.0846V52.7246H154.577V34.0846H148.577ZM151.577 49.7246H145.297V55.7246H151.577V49.7246ZM148.297 52.7246V24.3646H142.297V52.7246H148.297ZM145.297 27.3646H152.977V21.3646H145.297V27.3646ZM150.424 25.9402L161.064 43.1802L166.17 40.029L155.53 22.789L150.424 25.9402ZM166.617 41.6046V24.3646H160.617V41.6046H166.617ZM163.617 27.3646H169.937V21.3646H163.617V27.3646ZM166.937 24.3646V52.7246H172.937V24.3646H166.937Z" fill="black" mask="url(#path-3-outside-1_14_74)"/>
</svg>
